<svg width="20" height="21" viewBox="0 0 20 21" fill="none" xmlns="http://www.w3.org/2000/svg">
<path d="M16.1706 17.1676H8.00391C7.8713 17.1676 7.74412 17.115 7.65035 17.0212C7.55658 16.9274 7.50391 16.8003 7.50391 16.6676V8.50098C7.50391 8.36837 7.55658 8.24119 7.65035 8.14742C7.74412 8.05365 7.8713 8.00098 8.00391 8.00098H16.1706C16.3032 8.00098 16.4304 8.05365 16.5241 8.14742C16.6179 8.24119 16.6706 8.36837 16.6706 8.50098V16.6676C16.6706 16.8003 16.6179 16.9274 16.5241 17.0212C16.4304 17.115 16.3032 17.1676 16.1706 17.1676Z" stroke="#979995" stroke-width="2" stroke-linecap="round" stroke-linejoin="round"/>
<path d="M12.5026 8.00065V4.33398C12.5026 4.20138 12.4499 4.0742 12.3562 3.98043C12.2624 3.88666 12.1352 3.83398 12.0026 3.83398H3.83594C3.70333 3.83398 3.57615 3.88666 3.48238 3.98043C3.38862 4.0742 3.33594 4.20138 3.33594 4.33398V12.5006C3.33594 12.6333 3.38862 12.7604 3.48238 12.8542C3.57615 12.948 3.70333 13.0007 3.83594 13.0007H7.5026" stroke="#979995" stroke-width="2" stroke-linecap="round" stroke-linejoin="round"/>
</svg>
