<svg width="16" height="17" viewBox="0 0 16 17" fill="none" xmlns="http://www.w3.org/2000/svg">
<g clip-path="url(#clip0_14368_251684)">
<path d="M7.67795 1.56711C7.71537 1.51942 7.76315 1.48087 7.81766 1.45435C7.87217 1.42784 7.932 1.41406 7.99262 1.41406C8.05323 1.41406 8.11306 1.42784 8.16757 1.45435C8.22209 1.48087 8.26986 1.51942 8.30728 1.56711L9.51328 3.10044C9.56223 3.16281 9.6286 3.20922 9.70397 3.23379C9.77935 3.25836 9.86032 3.25998 9.93662 3.23844L11.8133 2.70644C11.8716 2.68984 11.9328 2.68669 11.9925 2.69723C12.0522 2.70777 12.1087 2.73173 12.1577 2.7673C12.2068 2.80287 12.2471 2.84913 12.2757 2.90256C12.3042 2.956 12.3203 3.01523 12.3226 3.07578L12.3959 5.02578C12.399 5.10499 12.4256 5.1815 12.4722 5.2456C12.5189 5.3097 12.5835 5.35849 12.6579 5.38578L14.4893 6.05911C14.5461 6.07997 14.5975 6.11346 14.6395 6.15706C14.6816 6.20067 14.7131 6.25324 14.7319 6.31082C14.7506 6.36841 14.756 6.4295 14.7477 6.48948C14.7394 6.54947 14.7176 6.60678 14.684 6.65711L13.5973 8.27778C13.5531 8.34365 13.5296 8.42115 13.5296 8.50044C13.5296 8.57974 13.5531 8.65724 13.5973 8.72311L14.684 10.3438C14.7176 10.3941 14.7394 10.4514 14.7477 10.5114C14.756 10.5714 14.7506 10.6325 14.7319 10.6901C14.7131 10.7476 14.6816 10.8002 14.6395 10.8438C14.5975 10.8874 14.5461 10.9209 14.4893 10.9418L12.6579 11.6151C12.5836 11.6425 12.5191 11.6913 12.4726 11.7554C12.4261 11.8195 12.3996 11.896 12.3966 11.9751L12.3226 13.9251C12.3203 13.9857 12.3042 14.0449 12.2757 14.0983C12.2471 14.1518 12.2068 14.198 12.1577 14.2336C12.1087 14.2692 12.0522 14.2931 11.9925 14.3037C11.9328 14.3142 11.8716 14.3111 11.8133 14.2944L9.93662 13.7624C9.86029 13.7407 9.77922 13.7421 9.70372 13.7666C9.62821 13.791 9.56169 13.8374 9.51262 13.8998L8.30795 15.4338C8.27052 15.4815 8.22275 15.52 8.16824 15.5465C8.11373 15.573 8.0539 15.5868 7.99328 15.5868C7.93266 15.5868 7.87284 15.573 7.81833 15.5465C7.76381 15.52 7.71604 15.4815 7.67862 15.4338L6.47262 13.9004C6.42367 13.8381 6.3573 13.7917 6.28193 13.7671C6.20655 13.7425 6.12558 13.7409 6.04928 13.7624L4.17262 14.2944C4.11434 14.3111 4.05306 14.3142 3.99339 14.3037C3.93372 14.2931 3.87723 14.2692 3.82817 14.2336C3.77912 14.198 3.73879 14.1518 3.71022 14.0983C3.68166 14.0449 3.66561 13.9857 3.66328 13.9251L3.58995 11.9751C3.58687 11.8959 3.56032 11.8194 3.51367 11.7553C3.46702 11.6912 3.40238 11.6424 3.32795 11.6151L1.49662 10.9418C1.43976 10.9209 1.38839 10.8874 1.34636 10.8438C1.30434 10.8002 1.27277 10.7476 1.25402 10.6901C1.23528 10.6325 1.22985 10.5714 1.23815 10.5114C1.24645 10.4514 1.26827 10.3941 1.30195 10.3438L2.38862 8.72311C2.43276 8.65724 2.45632 8.57974 2.45632 8.50044C2.45632 8.42115 2.43276 8.34365 2.38862 8.27778L1.30195 6.65711C1.26827 6.60678 1.24645 6.54947 1.23815 6.48948C1.22985 6.4295 1.23528 6.36841 1.25402 6.31082C1.27277 6.25324 1.30434 6.20067 1.34636 6.15706C1.38839 6.11346 1.43976 6.07997 1.49662 6.05911L3.32795 5.38578C3.40225 5.35838 3.46675 5.30955 3.51328 5.24546C3.5598 5.18137 3.58625 5.10491 3.58928 5.02578L3.66328 3.07578C3.66561 3.01523 3.68166 2.956 3.71022 2.90256C3.73879 2.84913 3.77912 2.80287 3.82817 2.7673C3.87723 2.73173 3.93372 2.70777 3.99339 2.69723C4.05306 2.68669 4.11434 2.68984 4.17262 2.70644L6.04928 3.23844C6.12558 3.25998 6.20655 3.25836 6.28193 3.23379C6.3573 3.20922 6.42367 3.16281 6.47262 3.10044L7.67928 1.56711H7.67795Z" stroke="#AEE67F" stroke-width="1.5"/>
<path d="M5.99219 8.49935L7.32552 9.83268L9.99219 7.16602" stroke="#AEE67F" stroke-width="1.5" stroke-linecap="round" stroke-linejoin="round"/>
</g>
<defs>
<clipPath id="clip0_14368_251684">
<rect width="16" height="16" fill="white" transform="translate(0 0.5)"/>
</clipPath>
</defs>
</svg>
