<svg width="20" height="20" viewBox="0 0 20 20" fill="none" xmlns="http://www.w3.org/2000/svg">
<path d="M4.16602 13.3337V11.667" stroke="#979995" stroke-width="1.66667" stroke-linecap="round" stroke-linejoin="round"/>
<path d="M10 17.4997V15.833" stroke="#979995" stroke-width="1.66667" stroke-linecap="round" stroke-linejoin="round"/>
<path d="M15.834 10.8337V9.16699" stroke="#979995" stroke-width="1.66667" stroke-linecap="round" stroke-linejoin="round"/>
<path d="M4.16602 6.66667V5" stroke="#979995" stroke-width="1.66667" stroke-linecap="round" stroke-linejoin="round"/>
<path d="M10 10.8337V9.16699" stroke="#979995" stroke-width="1.66667" stroke-linecap="round" stroke-linejoin="round"/>
<path d="M15.834 4.16667V2.5" stroke="#979995" stroke-width="1.66667" stroke-linecap="round" stroke-linejoin="round"/>
<path d="M5.83333 7.16699V11.167C5.83333 11.4432 5.60948 11.667 5.33333 11.667H3C2.72386 11.667 2.5 11.4432 2.5 11.167V7.16699C2.5 6.89085 2.72386 6.66699 3 6.66699H5.33333C5.60948 6.66699 5.83333 6.89085 5.83333 7.16699Z" stroke="#979995" stroke-width="1.66667" stroke-linecap="round" stroke-linejoin="round"/>
<path d="M11.6673 11.333V15.333C11.6673 15.6092 11.4435 15.833 11.1673 15.833H8.83398C8.55782 15.833 8.33398 15.6092 8.33398 15.333V11.333C8.33398 11.0568 8.55782 10.833 8.83398 10.833H11.1673C11.4435 10.833 11.6673 11.0568 11.6673 11.333Z" stroke="#979995" stroke-width="1.66667" stroke-linecap="round" stroke-linejoin="round"/>
<path d="M17.4993 4.66699V8.66699C17.4993 8.94316 17.2755 9.16699 16.9993 9.16699H14.666C14.3898 9.16699 14.166 8.94316 14.166 8.66699V4.66699C14.166 4.39085 14.3898 4.16699 14.666 4.16699H16.9993C17.2755 4.16699 17.4993 4.39085 17.4993 4.66699Z" stroke="#979995" stroke-width="1.66667" stroke-linecap="round" stroke-linejoin="round"/>
</svg>
