<svg width="24" height="24" viewBox="0 0 24 24" fill="none" xmlns="http://www.w3.org/2000/svg">
<path d="M11.7578 4.71327C12.3273 3.74434 13.1799 2.97312 14.2009 2.5034C15.2219 2.03369 16.3623 1.88803 17.4686 2.08604C18.5749 2.28405 19.5939 2.81622 20.3886 3.61092C21.1833 4.40561 21.7155 5.42469 21.9135 6.53099C22.1115 7.63728 21.9659 8.77768 21.4962 9.79869C21.0264 10.8197 20.2552 11.6723 19.2863 12.2417" stroke="#F7F7F7" stroke-width="1.5" stroke-linecap="round" stroke-linejoin="round"/>
<path d="M9.5 22C7.51088 22 5.60322 21.2098 4.1967 19.8033C2.79018 18.3968 2 16.4891 2 14.5C2 12.5109 2.79018 10.6032 4.1967 9.1967C5.60322 7.79018 7.51088 7 9.5 7C11.4891 7 13.3968 7.79018 14.8033 9.1967C16.2098 10.6032 17 12.5109 17 14.5C17 16.4891 16.2098 18.3968 14.8033 19.8033C13.3968 21.2098 11.4891 22 9.5 22Z" stroke="#F7F7F7" stroke-width="1.5" stroke-linecap="round" stroke-linejoin="round"/>
<path d="M6 14.5H9.5M9.5 14.5H13M9.5 14.5V11M9.5 14.5V18" stroke="#F7F7F7" stroke-width="1.5" stroke-linecap="round" stroke-linejoin="round"/>
</svg>
