<svg width="16" height="16" viewBox="0 0 16 16" fill="none" xmlns="http://www.w3.org/2000/svg">
<path d="M9.25002 2.00002H6.75002C6.71708 1.99964 6.6844 2.00585 6.6539 2.01828C6.6234 2.03071 6.59569 2.04911 6.5724 2.0724C6.54911 2.09569 6.53071 2.1234 6.51828 2.1539C6.50585 2.1844 6.49964 2.21708 6.50002 2.25002V3.00002H9.50002V2.25002C9.50039 2.21708 9.49418 2.1844 9.48175 2.1539C9.46932 2.1234 9.45092 2.09569 9.42763 2.0724C9.40434 2.04911 9.37663 2.03071 9.34613 2.01828C9.31563 2.00585 9.28295 1.99964 9.25002 2.00002Z" fill="#4A4D46"/>
<path d="M13.9859 3H10.5V1.5C10.5 1.36739 10.4473 1.24021 10.3536 1.14645C10.2598 1.05268 10.1326 1 10 1H6C5.86739 1 5.74021 1.05268 5.64645 1.14645C5.55268 1.24021 5.5 1.36739 5.5 1.5V3H2.01406L2 4.25H3.03125L3.65906 14.0625C3.67495 14.3163 3.7869 14.5544 3.97214 14.7286C4.15738 14.9027 4.402 14.9998 4.65625 15H11.3438C11.5979 15 11.8424 14.9032 12.0277 14.7294C12.2131 14.5555 12.3253 14.3176 12.3416 14.0641L12.9688 4.25H14L13.9859 3ZM5.5 13L5.21875 5H6.25L6.53125 13H5.5ZM8.5 13H7.5V5H8.5V13ZM9.25 3H6.75V2.125C6.75 2.09185 6.76317 2.06005 6.78661 2.03661C6.81005 2.01317 6.84185 2 6.875 2H9.125C9.15815 2 9.18995 2.01317 9.21339 2.03661C9.23683 2.06005 9.25 2.09185 9.25 2.125V3ZM10.5 13H9.46875L9.75 5H10.7812L10.5 13Z" fill="#FF5947"/>
</svg>
