<svg width="18" height="18" viewBox="0 0 18 18" fill="none" xmlns="http://www.w3.org/2000/svg">
    <path fill-rule="evenodd" clip-rule="evenodd"
        d="M15.1579 8.52632C15.1579 12.1888 12.1888 15.1579 8.52632 15.1579C4.8638 15.1579 1.89474 12.1888 1.89474 8.52632C1.89474 4.8638 4.8638 1.89474 8.52632 1.89474C12.1888 1.89474 15.1579 4.8638 15.1579 8.52632ZM15.1881 13.8483C16.3549 12.3897 17.0526 10.5395 17.0526 8.52632C17.0526 3.81736 13.2353 0 8.52632 0C3.81736 0 0 3.81736 0 8.52632C0 13.2353 3.81736 17.0526 8.52632 17.0526C10.5395 17.0526 12.3897 16.3549 13.8483 15.1881L16.3827 17.7225C16.7527 18.0925 17.3526 18.0925 17.7225 17.7225C18.0925 17.3526 18.0925 16.7527 17.7225 16.3827L15.1881 13.8483Z"
        fill="#232521" />
</svg>