<svg width="119" height="121" viewBox="0 0 119 121" fill="none" xmlns="http://www.w3.org/2000/svg">
<g clip-path="url(#clip0_14348_322757)">
<path fill-rule="evenodd" clip-rule="evenodd" d="M20.0558 99.6675C20.0558 99.6675 30.7841 95.3386 38.5673 88.8773C46.3445 82.4177 47.2721 80.0627 47.2721 80.0627L29.677 78.9408C39.6887 72.1563 45.7357 67.7579 52.5497 57.6306L41.3216 56.3221C41.3216 56.3221 60.1009 44.0972 64.6021 20.471C71.7526 43.4337 91.7969 53.453 91.7969 53.453L80.7869 56.0249C88.7005 65.3101 95.2121 68.9975 105.923 74.6053L88.5685 77.7163C88.5685 77.7163 89.7613 79.953 98.217 85.4933C106.679 91.0319 117.828 94.1157 117.828 94.1157C109.847 98.6933 91.3046 103.844 72.0752 105.117C51.0708 106.506 29.2737 103.647 20.0436 99.6707L20.0558 99.6675Z" fill="#00654B"/>
<path fill-rule="evenodd" clip-rule="evenodd" d="M51.2475 83.8746C45.5438 89.9678 36.941 96.8508 28.4865 98.1054C28.1283 98.1557 28.1219 97.864 28.3393 97.7992C28.6032 97.5916 30.2926 96.7411 30.5351 96.6239C38.793 92.494 43.1328 88.977 49.0164 81.9487C49.5484 81.3301 50.4824 81.2624 51.0949 81.7961C51.7135 82.3281 51.7812 83.2621 51.2475 83.8746ZM28.4625 98.0401L28.4415 98.0588C28.4415 98.0588 28.452 98.0494 28.4625 98.0401Z" fill="#3C7F6A"/>
<path fill-rule="evenodd" clip-rule="evenodd" d="M29.676 78.9346C29.3899 78.9135 30.1503 78.6119 30.3875 78.4505C39.7658 72.077 45.636 67.7 52.1132 58.2628C52.2594 58.0541 52.8103 57.6521 52.5486 57.6244L51.976 57.5561L41.3205 56.3159C41.3205 56.3159 47.4281 52.3383 53.5157 44.538C60.5327 44.3924 71.4644 44.5218 80.0639 44.8065C86.3132 50.7032 91.7958 53.4468 91.7958 53.4468L80.7858 56.0187C88.4983 65.0644 94.8732 68.8015 105.101 74.1668C105.374 74.3089 106.232 74.542 105.922 74.5991C76.1039 80.1629 59.8789 81.2823 29.6699 78.9363L29.676 78.9346Z" fill="#004E38"/>
<path fill-rule="evenodd" clip-rule="evenodd" d="M41.3212 56.3164C41.3212 56.3164 60.1005 44.0915 64.6017 20.4653C71.7523 43.428 91.7965 53.4473 91.7965 53.4473C87.5563 54.44 84.3339 55.5317 80.7754 56.1722C68.1651 58.4424 57.9077 58.2498 41.3212 56.3164Z" fill="#00654B"/>
<path fill-rule="evenodd" clip-rule="evenodd" d="M66.2144 30.8197C62.235 39.868 55.3252 50.9275 46.3757 55.6405C45.9986 55.8394 45.8785 55.5129 46.0914 55.358C46.3012 55.0214 47.8586 53.4107 48.0778 53.1824C55.6788 45.3353 59.1518 39.7029 62.9644 29.545C63.3175 28.6483 64.3338 28.2064 65.2306 28.5596C66.1273 28.9127 66.5692 29.929 66.216 30.8258L66.2144 30.8197ZM46.3213 55.5834L46.3096 55.6126C46.3096 55.6126 46.3169 55.5911 46.3213 55.5834Z" fill="#3C7F6A"/>
<path fill-rule="evenodd" clip-rule="evenodd" d="M53.9413 43.2831C53.2851 42.8785 53.0873 42.0185 53.4918 41.3623C53.898 40.7122 54.7564 40.5083 55.4125 40.9129C67.2309 48.2454 85.0287 45.8894 85.079 45.8824C85.8429 45.7886 86.5427 46.3314 86.6365 47.0954C86.7304 47.8593 86.1875 48.5591 85.4236 48.6529C85.3672 48.6615 66.6075 51.1514 53.9413 43.2831Z" fill="#5A2A1A"/>
<path fill-rule="evenodd" clip-rule="evenodd" d="M44.6611 67.4519C44.0633 66.973 43.96 66.1008 44.4433 65.4952C44.9206 64.8913 45.7944 64.7941 46.3984 65.2713C49.9822 68.1325 58.6339 69.6096 67.9425 69.9848C78.8916 70.4225 90.5939 69.315 96.0914 67.1246C96.8047 66.8421 97.6142 67.1861 97.9028 67.8978C98.1852 68.6112 97.8413 69.4207 97.1235 69.7109C91.289 72.0307 79.1205 73.224 67.835 72.7721C58.0128 72.3781 48.7514 70.7186 44.6611 67.4519Z" fill="#5A2A1A"/>
<path fill-rule="evenodd" clip-rule="evenodd" d="M39.6759 88.7102C39.0108 88.3211 38.7887 87.4677 39.1717 86.8042C39.5609 86.1391 40.4143 85.9169 41.0778 86.3C48.4462 90.6056 59.6571 92.4339 70.7759 92.6044C84.4485 92.8145 97.8456 90.5355 103.747 87.2718C104.423 86.9014 105.265 87.1454 105.635 87.8222C106.004 88.4929 105.762 89.3404 105.085 89.7109C98.8083 93.1795 84.8455 95.6101 70.7342 95.3936C59.2027 95.2163 47.4918 93.2742 39.6743 88.7042L39.6759 88.7102Z" fill="#5A2A1A"/>
<path fill-rule="evenodd" clip-rule="evenodd" d="M63.8735 7.70189L66.9752 12.8769L72.9654 13.5477L68.9989 18.0929L70.2151 23.9948L64.6639 21.6282L59.4243 24.6103L59.9604 18.604L55.5068 14.5412L61.3866 13.194L63.8735 7.70189Z" fill="#D69547"/>
<path fill-rule="evenodd" clip-rule="evenodd" d="M63.8737 7.70173L66.9693 12.8783L68.468 13.0441C67.7612 17.1723 64.9425 19.6492 59.8068 20.2689L59.9545 18.6055L55.5009 14.5427L61.3808 13.1954L63.8676 7.70336L63.8737 7.70173Z" fill="#ECAE5D"/>
<path fill-rule="evenodd" clip-rule="evenodd" d="M42.9978 89.7444C44.562 89.7166 45.8481 90.9631 45.8743 92.5212C45.9022 94.0854 44.6556 95.3715 43.0975 95.3977C41.5334 95.4255 40.2489 94.1851 40.221 92.6209C40.1932 91.0567 41.4398 89.7706 42.9978 89.7444Z" fill="#BD072F"/>
<path fill-rule="evenodd" clip-rule="evenodd" d="M41.8942 90.4181C42.4778 90.1378 43.0827 90.1322 43.2462 90.4015C43.4173 90.6751 43.0795 91.1178 42.4959 91.3981C41.9124 91.6784 41.3074 91.684 41.1379 91.4164C40.9667 91.1427 41.3046 90.7 41.8881 90.4197L41.8942 90.4181Z" fill="white"/>
<path fill-rule="evenodd" clip-rule="evenodd" d="M45.2718 91.5873C45.297 92.9956 44.1736 94.1575 42.7653 94.1827C41.5509 94.2016 40.5192 93.3694 40.242 92.2373C40.2287 92.3582 40.2248 92.4897 40.2209 92.6211C40.2488 94.1853 41.5393 95.4241 43.0974 95.3979C44.6616 95.3701 45.9004 94.0795 45.8742 92.5214C45.8709 92.1441 45.7886 91.7879 45.6502 91.4663C45.507 91.1265 45.294 90.8184 45.0283 90.557C45.1378 90.795 45.2123 91.0489 45.2459 91.3203C45.2566 91.4088 45.2611 91.4989 45.2673 91.595L45.2718 91.5873Z" fill="#830B1B"/>
<path fill-rule="evenodd" clip-rule="evenodd" d="M61.599 93.4994C63.1632 93.4715 64.4493 94.7181 64.4755 96.2762C64.5034 97.8404 63.2629 99.1248 61.6987 99.1527C60.1406 99.1789 58.8484 97.9339 58.8222 96.3759C58.7944 94.8117 60.041 93.5256 61.599 93.4994Z" fill="#BD072F"/>
<path fill-rule="evenodd" clip-rule="evenodd" d="M60.502 94.1774C61.0795 93.8988 61.6905 93.8915 61.854 94.1608C62.019 94.4361 61.6873 94.8771 61.1037 95.1574C60.5202 95.4377 59.9152 95.4433 59.7517 95.174C59.5883 94.9048 59.9185 94.4577 60.502 94.1774Z" fill="white"/>
<path fill-rule="evenodd" clip-rule="evenodd" d="M63.8753 95.3483C63.9005 96.7566 62.7772 97.9184 61.3704 97.9498C60.156 97.9687 59.1183 97.1381 58.8471 96.0043C58.8339 96.1253 58.83 96.2567 58.8244 96.3821C58.8523 97.9463 60.1429 99.1851 61.7009 99.1589C63.2651 99.1311 64.504 97.8405 64.4778 96.2824C64.4745 95.9051 64.3921 95.5489 64.2537 95.2273C64.1089 94.8814 63.8959 94.5733 63.6318 94.3179C63.7413 94.556 63.8158 94.8099 63.8494 95.0813C63.8601 95.1698 63.8646 95.2598 63.8708 95.356L63.8753 95.3483Z" fill="#830B1B"/>
<path fill-rule="evenodd" clip-rule="evenodd" d="M82.576 93.4197C84.1401 93.3919 85.4262 94.6384 85.4525 96.1965C85.4803 97.7607 84.2337 99.0468 82.6756 99.073C81.1115 99.1008 79.8254 97.8543 79.7992 96.2962C79.7713 94.732 81.0179 93.4459 82.576 93.4197Z" fill="#BD072F"/>
<path fill-rule="evenodd" clip-rule="evenodd" d="M81.4786 94.0927C82.0621 93.8124 82.6671 93.8068 82.8305 94.0761C83.0001 94.3437 82.6638 94.7924 82.0803 95.0727C81.4967 95.353 80.8917 95.3585 80.7283 95.0893C80.5649 94.8201 80.895 94.373 81.4786 94.0927Z" fill="white"/>
<path fill-rule="evenodd" clip-rule="evenodd" d="M84.8496 95.2623C84.8748 96.6707 83.7514 97.8325 82.3431 97.8577C81.1287 97.8766 80.0971 97.0444 79.8198 95.9123C79.8082 96.0393 79.7965 96.1663 79.7971 96.2901C79.8249 97.8542 81.1155 99.0931 82.6736 99.0669C84.2378 99.039 85.4827 97.7468 85.4504 96.1904C85.4471 95.813 85.3647 95.4569 85.2264 95.1353C85.0815 94.7893 84.8702 94.4873 84.6045 94.2259C84.7139 94.464 84.7885 94.7179 84.8221 94.9893C84.8327 95.0777 84.8434 95.1662 84.8435 95.264L84.8496 95.2623Z" fill="#830B1B"/>
<path fill-rule="evenodd" clip-rule="evenodd" d="M100.541 90.2964C102.105 90.2686 103.391 91.5151 103.417 93.0732C103.445 94.6374 102.199 95.9235 100.64 95.9497C99.0763 95.9775 97.7918 94.7371 97.764 93.1729C97.7362 91.6087 98.9766 90.3242 100.541 90.2964Z" fill="#BD072F"/>
<path fill-rule="evenodd" clip-rule="evenodd" d="M99.4434 90.9745C100.027 90.6943 100.632 90.6887 100.801 90.9563C100.973 91.2299 100.635 91.6726 100.051 91.9529C99.4676 92.2332 98.8627 92.2388 98.6932 91.9712C98.5281 91.6958 98.8599 91.2548 99.4434 90.9745Z" fill="white"/>
<path fill-rule="evenodd" clip-rule="evenodd" d="M102.817 92.1454C102.842 93.5538 101.719 94.7156 100.31 94.7408C99.0897 94.7613 98.0581 93.9291 97.7808 92.797C97.7676 92.9179 97.7576 93.051 97.7659 93.1792C97.7937 94.7434 99.0843 95.9823 100.642 95.956C102.207 95.9282 103.447 94.6437 103.419 93.0795C103.41 92.7038 103.333 92.346 103.195 92.0244C103.05 91.6785 102.839 91.3765 102.579 91.1134C102.689 91.3515 102.763 91.6054 102.797 91.8768C102.808 91.9653 102.818 92.0537 102.818 92.1515L102.817 92.1454Z" fill="#830B1B"/>
<path fill-rule="evenodd" clip-rule="evenodd" d="M50.2898 69.3551C51.8425 69.1869 53.2335 70.3141 53.4018 71.8667C53.57 73.4193 52.4445 74.8165 50.8902 74.9786C49.3376 75.1468 47.9465 74.0197 47.7783 72.4671C47.6161 70.9128 48.7372 69.5233 50.2898 69.3551Z" fill="#BD072F"/>
<path fill-rule="evenodd" clip-rule="evenodd" d="M49.2566 70.1213C49.8073 69.7911 50.4175 69.732 50.6036 69.9886C50.7958 70.2436 50.4998 70.7207 49.9475 71.0447C49.3908 71.3765 48.7867 71.434 48.6006 71.1774C48.4084 70.9224 48.7044 70.4453 49.2627 70.1196L49.2566 70.1213Z" fill="white"/>
<path fill-rule="evenodd" clip-rule="evenodd" d="M52.7191 70.9929C52.8664 72.3946 51.8531 73.6508 50.453 73.8043C49.242 73.9331 48.1448 73.1968 47.7641 72.0924C47.7585 72.2177 47.7668 72.346 47.7812 72.4725C47.9433 74.0268 49.3404 75.1523 50.8931 74.9841C52.4473 74.822 53.5729 73.4248 53.4047 71.8722C53.3632 71.4985 53.2565 71.1489 53.0894 70.8415C52.9096 70.5115 52.6756 70.222 52.3921 69.9915C52.5242 70.2169 52.6231 70.4643 52.675 70.7308C52.6978 70.816 52.7101 70.9106 52.7146 71.0006L52.7191 70.9929Z" fill="#830B1B"/>
<path fill-rule="evenodd" clip-rule="evenodd" d="M69.1512 71.4552C70.7054 71.2931 72.0949 72.4142 72.2631 73.9668C72.4313 75.5194 71.3042 76.9105 69.7515 77.0787C68.1989 77.2469 66.8078 76.1198 66.6396 74.5672C66.4714 73.0145 67.5985 71.6234 69.1512 71.4552Z" fill="#BD072F"/>
<path fill-rule="evenodd" clip-rule="evenodd" d="M68.1141 72.2292C68.6708 71.8974 69.2749 71.8399 69.4671 72.0949C69.6593 72.3499 69.3633 72.827 68.8066 73.1587C68.2499 73.4905 67.6458 73.548 67.4596 73.2914C67.2674 73.0364 67.5634 72.5593 68.1202 72.2275L68.1141 72.2292Z" fill="white"/>
<path fill-rule="evenodd" clip-rule="evenodd" d="M71.582 73.093C71.7355 74.4931 70.7161 75.7509 69.316 75.9044C68.105 76.0332 67.0061 75.2908 66.6254 74.1864C66.6199 74.3117 66.6281 74.4399 66.6425 74.5665C66.8046 76.1208 68.2018 77.2463 69.7544 77.0781C71.3087 76.916 72.4342 75.5188 72.266 73.9662C72.2246 73.5925 72.1178 73.2429 71.9507 72.9355C71.777 72.6038 71.5369 72.316 71.2534 72.0855C71.3855 72.3109 71.4783 72.5599 71.5363 72.8248C71.5591 72.91 71.5714 73.0045 71.576 73.0946L71.582 73.093Z" fill="#830B1B"/>
<path fill-rule="evenodd" clip-rule="evenodd" d="M90.0398 69.529C91.5941 69.3668 92.9835 70.4879 93.1518 72.0405C93.3139 73.5948 92.1928 74.9842 90.6402 75.1525C89.0876 75.3207 87.6965 74.1935 87.5283 72.6409C87.36 71.0883 88.4872 69.6972 90.0398 69.529Z" fill="#BD072F"/>
<path fill-rule="evenodd" clip-rule="evenodd" d="M88.9988 70.2965C89.5555 69.9648 90.1596 69.9073 90.3519 70.1622C90.5441 70.4172 90.2481 70.8944 89.6914 71.2261C89.1346 71.5579 88.5305 71.6154 88.3444 71.3588C88.1522 71.1038 88.4482 70.6267 89.0049 70.2949L88.9988 70.2965Z" fill="white"/>
<path fill-rule="evenodd" clip-rule="evenodd" d="M92.4685 71.1671C92.6159 72.5688 91.6026 73.8251 90.2025 73.9785C88.9915 74.1074 87.8926 73.3649 87.518 72.2589C87.5124 72.3842 87.5207 72.5125 87.5351 72.639C87.6972 74.1933 89.0944 75.3188 90.647 75.1506C92.2013 74.9885 93.3268 73.5913 93.1586 72.0387C93.1171 71.665 93.0104 71.3154 92.8433 71.008C92.6635 70.678 92.4295 70.3885 92.146 70.158C92.2781 70.3834 92.377 70.6308 92.4289 70.8973C92.4517 70.9825 92.464 71.0771 92.4746 71.1655L92.4685 71.1671Z" fill="#830B1B"/>
<path fill-rule="evenodd" clip-rule="evenodd" d="M57.1082 46.0065C58.6608 45.8383 60.0519 46.9654 60.2201 48.5181C60.3883 50.0707 59.2612 51.4618 57.7086 51.63C56.1559 51.7982 54.7648 50.6711 54.5966 49.1184C54.4284 47.5658 55.5556 46.1747 57.1082 46.0065Z" fill="#BD072F"/>
<path fill-rule="evenodd" clip-rule="evenodd" d="M56.0711 46.7804C56.6278 46.4487 57.2319 46.3911 57.4241 46.6461C57.6164 46.9011 57.3203 47.3782 56.7636 47.71C56.2069 48.0418 55.6028 48.0993 55.4167 47.8427C55.2244 47.5877 55.5205 47.1106 56.0772 46.7788L56.0711 46.7804Z" fill="white"/>
<path fill-rule="evenodd" clip-rule="evenodd" d="M59.536 47.6449C59.6834 49.0466 58.6701 50.3028 57.27 50.4563C56.0589 50.5851 54.9601 49.8427 54.581 48.7444C54.5755 48.8697 54.5837 48.998 54.5981 49.1245C54.7663 50.6772 56.1574 51.8043 57.71 51.6361C59.2626 51.4679 60.3898 50.0768 60.2216 48.5242C60.1802 48.1505 60.0673 47.8025 59.9063 47.4935C59.7266 47.1634 59.4925 46.874 59.209 46.6435C59.3411 46.8689 59.4339 47.1179 59.4919 47.3828C59.5147 47.468 59.527 47.5625 59.5376 47.651L59.536 47.6449Z" fill="#830B1B"/>
<path fill-rule="evenodd" clip-rule="evenodd" d="M75.9754 48.1127C77.5296 47.9506 78.9252 49.07 79.0873 50.6243C79.2555 52.1769 78.1284 53.568 76.5757 53.7362C75.0215 53.8983 73.632 52.7773 73.4638 51.2246C73.3017 49.6704 74.4227 48.2809 75.9754 48.1127Z" fill="#BD072F"/>
<path fill-rule="evenodd" clip-rule="evenodd" d="M74.9366 48.8811C75.4933 48.5493 76.0974 48.4918 76.2835 48.7484C76.4757 49.0034 76.1797 49.4805 75.623 49.8123C75.0724 50.1424 74.4622 50.2016 74.276 49.945C74.0838 49.69 74.3798 49.2129 74.9366 48.8811Z" fill="white"/>
<path fill-rule="evenodd" clip-rule="evenodd" d="M78.4029 49.7508C78.5502 51.1526 77.5369 52.4088 76.1368 52.5622C74.9258 52.6911 73.8269 51.9486 73.4523 50.8426C73.4468 50.968 73.455 51.0962 73.4633 51.2244C73.6315 52.777 75.0226 53.9042 76.5752 53.736C78.1279 53.5677 79.255 52.1767 79.0868 50.624C79.0454 50.2504 78.9387 49.9007 78.7715 49.5934C78.5979 49.2617 78.3593 48.98 78.0742 48.7433C78.2064 48.9688 78.3053 49.2162 78.3571 49.4827C78.3799 49.5679 78.3922 49.6624 78.3968 49.7525L78.4029 49.7508Z" fill="#830B1B"/>
</g>
<defs>
<clipPath id="clip0_14348_322757">
<rect width="95.8842" height="99.1282" fill="white" transform="translate(0 24.8167) rotate(-15)"/>
</clipPath>
</defs>
</svg>
