<svg width="151" height="51" viewBox="0 0 151 51" fill="none" xmlns="http://www.w3.org/2000/svg">
<g clip-path="url(#clip0_14401_99536)">
<path d="M12.5 26.1877H14.4452C14.4976 25.7358 14.5689 25.2887 14.6593 24.8415C14.8638 23.8379 15.1729 22.8485 15.5677 21.9066C15.9577 20.9791 16.4428 20.0848 17.0088 19.2476C17.57 18.4152 18.2121 17.6351 18.9207 16.9263C19.6294 16.2176 20.4094 15.5707 21.2417 15.0141C22.0787 14.4481 22.9729 13.9629 23.9003 13.5728C24.842 13.178 25.8313 12.8688 26.8348 12.6643C27.2771 12.5739 27.7242 12.5026 28.1808 12.4503V10.5C19.9195 11.3467 13.3466 17.9205 12.5 26.1877ZM45.55 29.8123C45.4977 30.2642 45.4263 30.7113 45.336 31.1585C45.1315 32.1621 44.8223 33.1515 44.4276 34.0934C44.0376 35.0209 43.5525 35.9152 42.9865 36.7524C42.4253 37.5848 41.7832 38.3649 41.0745 39.0737C40.3659 39.7824 39.5859 40.4293 38.7536 40.9859C37.9165 41.5519 37.0224 42.0371 36.0949 42.4272C35.1532 42.822 34.1639 43.1311 33.1604 43.3357C32.7181 43.4261 32.271 43.4974 31.8144 43.5497V45.4952C40.0805 44.6485 46.6534 38.0747 47.5 29.8076H45.55V29.8123ZM23.9051 42.4272C22.9776 42.0371 22.0835 41.5519 21.2464 40.9859C20.4141 40.4246 19.6341 39.7824 18.9255 39.0737C18.2168 38.3649 17.57 37.5848 17.0135 36.7524C16.4475 35.9152 15.9624 35.0209 15.5724 34.0934C15.1777 33.1515 14.8685 32.1621 14.664 31.1585C14.5737 30.7161 14.5023 30.269 14.45 29.8123H12.5C13.3466 38.0795 19.9195 44.6533 28.1856 45.5V43.5545C27.7337 43.5022 27.2867 43.4308 26.8396 43.3404C25.8361 43.1359 24.8468 42.8267 23.9051 42.4272ZM31.8097 10.5V12.4455C32.2615 12.4978 32.7086 12.5692 33.1557 12.6596C34.1592 12.8641 35.1485 13.1733 36.0902 13.5681C37.0176 13.9581 37.9117 14.4433 38.7488 15.0094C39.5811 15.5707 40.3611 16.2128 41.0698 16.9216C41.7784 17.6303 42.4253 18.4104 42.9817 19.2429C43.5477 20.0801 44.0328 20.9743 44.4228 21.9019C44.8176 22.8437 45.1267 23.8331 45.3312 24.8368C45.4216 25.2792 45.4929 25.7263 45.5452 26.1829H47.4952C46.6487 17.9205 40.0805 11.3467 31.8097 10.5Z" fill="black"/>
<path d="M24.2216 18.8813H20.8828V22.2206H24.2216V18.8813Z" fill="black"/>
<path d="M39.1212 18.8813H34.6172V23.386H39.1212V18.8813Z" fill="black"/>
<path d="M39.1214 31.1968V37.1189H33.1953V31.1968H39.1214Z" fill="black"/>
<path d="M22.8233 35.1731H20.8828V37.1138H22.8233V35.1731Z" fill="black"/>
<path d="M30.0002 28.1237L21.0065 37.1186H20.8828V36.995L29.8766 28L30.0002 28.1237Z" fill="url(#paint0_linear_14401_99536)"/>
<path d="M39.13 18.8813V19.005L34.7449 23.386L30.1362 28L30.0078 27.8716L34.626 23.2623L39.0016 18.8813H39.13Z" fill="url(#paint1_linear_14401_99536)"/>
<path d="M30.0002 27.8716L29.8766 28L20.8828 19.005V18.8813H21.0065L30.0002 27.8716Z" fill="url(#paint2_linear_14401_99536)"/>
<path d="M39.13 36.995V37.1186H39.0016L30.0078 28.1237L30.1362 28L39.13 36.995Z" fill="url(#paint3_linear_14401_99536)"/>
<path d="M70.0348 28.0568C70.0014 31.3235 67.9948 34.5902 63.5547 34.5902C59.1147 34.5902 57.0547 31.3968 57.0547 28.0702C57.0547 24.7435 59.188 21.4102 63.5547 21.4102C67.9014 21.4168 70.0681 24.7568 70.0348 28.0568ZM59.4014 28.1102C59.4547 30.1835 60.5747 32.4102 63.5547 32.4102C66.5347 32.4102 67.6548 30.1702 67.6881 28.0968C67.7214 25.9635 66.5347 23.5835 63.5547 23.5835C60.5747 23.5835 59.348 25.9835 59.4014 28.1102Z" fill="black"/>
<path d="M74.1181 25.4031L74.2781 26.4298C74.9648 25.3298 75.8848 25.1631 76.7848 25.1631C77.7048 25.1631 78.5915 25.5231 79.0781 26.0098L78.0848 27.9231C77.6315 27.5431 77.2181 27.3431 76.4981 27.3431C75.3448 27.3431 74.2781 27.9564 74.2781 29.6031V34.2964H72.0781V25.4031H74.1181Z" fill="black"/>
<path d="M87.415 25.4038H89.5283V34.3038H87.455L87.3483 33.0038C86.8417 34.0505 85.455 34.5572 84.4617 34.5772C81.8283 34.5972 79.875 32.9705 79.875 29.8505C79.875 26.7838 81.915 25.1772 84.515 25.1905C85.7083 25.1905 86.8417 25.7505 87.3483 26.6372L87.415 25.4038ZM82.0683 29.8438C82.0683 31.5438 83.2417 32.5505 84.7017 32.5505C88.1683 32.5505 88.1683 27.1505 84.7017 27.1505C83.2417 27.1572 82.0683 28.1505 82.0683 29.8438Z" fill="black"/>
<path d="M94.2328 22.8964C94.2328 24.6098 91.6328 24.6098 91.6328 22.8964C91.6328 21.1764 94.2328 21.1764 94.2328 22.8964ZM91.8328 25.3698V34.3031H94.0328V25.3698H91.8328Z" fill="black"/>
<path d="M107.763 27.8764C107.817 31.0697 105.87 34.3031 101.443 34.3031C99.8899 34.3031 98.0299 34.3031 96.4766 34.3031V21.6631C98.0299 21.6631 99.8899 21.6631 101.443 21.6631C105.783 21.6631 107.71 24.7564 107.763 27.8764ZM98.8499 32.0097H101.45C104.323 32.0097 105.457 29.9164 105.403 27.8564C105.35 25.8897 104.197 23.9231 101.45 23.9231H98.8499V32.0097Z" fill="black"/>
<path d="M119.202 34.3031H109.742C109.742 30.0964 109.742 25.8697 109.742 21.6631H119.202V23.9764H112.109V26.8831H118.949V29.1031H112.109V31.9564H119.202V34.3031Z" fill="black"/>
<path d="M130.067 21.6631H132.687V21.7698L128.407 27.9097L132.813 34.2297V34.3031H130.14L126.907 29.5564L123.673 34.3031H121V34.2297L125.387 27.9097L121.127 21.7698V21.6631H123.747L126.907 26.3764L130.067 21.6631Z" fill="black"/>
</g>
<g clip-path="url(#clip1_14401_99536)">
<path d="M10.1536 7.80341C9.85266 11.7625 8.39309 15.437 6.42276 18.8829C8.39711 18.9049 11.2091 17.9875 12.6024 16.5903C13.9957 15.1931 14.5655 13.5598 14.5394 11.5853L10.1524 7.80201L10.1536 7.80341Z" fill="#B40C17"/>
<path d="M20.08 6.00328C19.7488 5.6978 19.4127 5.38929 19.0243 5.15819C17.4131 4.19631 15.3609 4.7618 13.5784 5.34925C12.299 5.77203 10.8909 6.30073 10.2966 7.50936C9.66132 8.80026 10.2066 10.3333 10.7525 11.6623C11.463 13.3891 12.1738 15.1133 12.8844 16.84L15.2424 17.8559C18.6087 15.6367 21.6482 12.924 24.2355 9.83288C22.8489 8.55753 21.4638 7.28099 20.0784 6.00704L20.08 6.00328Z" fill="#F00616"/>
<path d="M15.6731 16.3731C14.6622 14.6764 13.6525 12.9811 12.6417 11.2844C11.8636 9.97824 11.0572 8.45905 11.52 7.01157C11.3042 7.2218 11.121 7.46213 10.9839 7.74025C10.3835 8.95875 10.8983 10.4073 11.4153 11.6649C12.086 13.2959 12.7581 14.9257 13.4288 16.5567L15.6578 17.516C16.0645 17.2481 16.4652 16.9732 16.8615 16.6901L15.6717 16.3743L15.6731 16.3731Z" fill="#F41A1A" fill-opacity="0.3"/>
<path d="M20.0808 6.00334C19.7496 5.69785 19.4135 5.38935 19.0251 5.15825C18.5058 4.84825 17.9389 4.69797 17.3511 4.65381C17.3183 5.06443 17.2853 5.47764 17.2525 5.88826C17.167 6.95612 17.1259 8.15652 17.8455 8.94923C18.3073 9.4584 18.9949 9.68669 19.6503 9.8966C20.8321 10.2741 22.0142 10.649 23.196 11.0265C23.5509 10.6346 23.8973 10.2354 24.2379 9.82918C22.8513 8.55382 21.4662 7.27729 20.0808 6.00334Z" fill="#B40C17"/>
<path d="M26.555 10.2964C26.5621 11.0134 24.3125 12.7814 23.7627 13.323C22.7314 14.3366 21.688 15.3102 20.6258 16.29C19.6442 17.1948 18.4759 18.0484 17.3401 18.7358C16.7942 19.0658 14.2653 21.1933 13.8341 20.8714C13.6901 20.7627 13.4736 20.0615 13.3763 19.8776C13.1984 19.5437 12.9775 19.1645 12.7727 18.8413C12.4501 18.3299 11.9504 17.7616 11.7604 17.2056C11.5135 16.4796 11.8181 16.4604 12.5535 16.0739C13.1867 15.7424 13.7838 15.4675 14.3524 15.025C16.3164 13.4924 18.2467 11.914 20.1036 10.2512C20.6403 9.77095 21.0289 9.24537 21.511 8.72006C21.7892 8.419 22.566 7.31062 22.938 7.26337C23.4913 7.19535 24.3366 8.49036 24.704 8.81326C25.0353 9.10185 26.5476 9.9746 26.5524 10.2961L26.555 10.2964Z" fill="#FAFAFA"/>
<path d="M25.9559 9.83782C25.3217 9.50233 24.6189 8.77216 24.1296 8.26453C23.8217 7.94416 23.4606 7.20184 22.9453 7.26664C21.8703 7.40021 22.4477 10.0074 22.2006 10.8689C21.0591 14.8504 16.9641 18.2835 13.2051 19.6744C13.8286 20.5862 13.6768 21.2453 14.7781 20.5055C15.4501 20.0551 16.0721 19.5366 16.7658 19.1063C18.0652 18.3004 19.3464 17.4188 20.5011 16.4067C21.6614 15.3899 22.7482 14.3199 23.85 13.2421C24.4562 12.6508 25.0072 12.0196 25.5938 11.4136C26.246 10.7404 26.9976 10.3931 25.9531 9.84018L25.9559 9.83782Z" fill="#E6E6E6" fill-opacity="0.5"/>
<path d="M9.82724 10.194C9.23334 13.2528 7.98986 16.1399 6.42203 18.8833C6.92729 18.8891 7.48597 18.8333 8.06105 18.7229C9.07901 15.9633 9.75482 13.1157 9.82724 10.194Z" fill="#F00616"/>
<path d="M9.0254 17.6149C8.88963 17.3197 8.72821 17.1108 8.50419 16.9042C8.2705 16.6891 8.06764 16.4935 7.77394 16.3862C7.48165 16.2778 7.19466 16.1985 6.879 16.2103C6.57367 16.223 6.22818 16.1737 5.93304 16.3095C5.6379 16.4453 5.36094 16.6567 5.15301 16.8819C4.93784 17.1156 4.95529 17.4863 4.84807 17.78C4.74084 18.0737 4.53569 18.3421 4.54748 18.6577C4.56017 18.9631 4.66246 19.2696 4.79824 19.5648C4.93402 19.8599 5.09997 20.1368 5.32518 20.3448C5.55886 20.5599 5.83209 20.7538 6.12438 20.8622C6.41667 20.9706 6.75213 21.0307 7.06919 21.0178C7.37452 21.0051 7.7191 20.9594 8.01423 20.8236C8.30937 20.6878 8.60587 20.491 8.81498 20.2672C9.03015 20.0336 9.12213 19.6904 9.23053 19.3981C9.33894 19.1059 9.48637 18.7831 9.4734 18.4661C9.46071 18.1607 9.16236 17.9114 9.02518 17.6174L9.0254 17.6149Z" fill="#FAFAFA"/>
<path d="M9.02368 17.6148C8.8879 17.3197 8.72649 17.1107 8.50246 16.9042C8.26878 16.689 8.06591 16.4934 7.77222 16.3862C7.47993 16.2778 7.19293 16.1985 6.87728 16.2103C6.75721 16.2155 6.63147 16.2112 6.5041 16.2106C6.71291 16.3222 6.87995 16.4809 7.06557 16.6503C7.29078 16.8583 7.45101 17.0658 7.58679 17.3609C7.72257 17.6561 8.02231 17.9042 8.035 18.2096C8.04798 18.5266 7.89936 18.848 7.79214 19.1417C7.68491 19.4353 7.59035 19.7782 7.37659 20.0107C7.16865 20.2359 6.87098 20.4313 6.57702 20.5685C6.35771 20.6692 6.11402 20.721 5.87653 20.746C5.95719 20.7907 6.0397 20.829 6.12288 20.8596C6.41517 20.968 6.75063 21.0281 7.06768 21.0151C7.37301 21.0025 7.71759 20.9567 8.01273 20.821C8.30787 20.6852 8.60436 20.4884 8.81348 20.2646C9.02864 20.0309 9.12063 19.6878 9.22903 19.3955C9.33744 19.1032 9.48487 18.7805 9.47189 18.4634C9.45921 18.1581 9.16086 17.9088 9.02368 17.6148Z" fill="#E6E6E6"/>
</g>
<defs>
<linearGradient id="paint0_linear_14401_99536" x1="29.9391" y1="28.063" x2="22.7989" y2="35.2021" gradientUnits="userSpaceOnUse">
<stop stop-opacity="0"/>
<stop offset="1"/>
</linearGradient>
<linearGradient id="paint1_linear_14401_99536" x1="30.0727" y1="27.9369" x2="34.6041" y2="23.4062" gradientUnits="userSpaceOnUse">
<stop offset="0.0176145" stop-opacity="0"/>
<stop offset="1"/>
</linearGradient>
<linearGradient id="paint2_linear_14401_99536" x1="29.8995" y1="27.8973" x2="24.1973" y2="22.1959" gradientUnits="userSpaceOnUse">
<stop stop-opacity="0"/>
<stop offset="1"/>
</linearGradient>
<linearGradient id="paint3_linear_14401_99536" x1="30.0532" y1="28.0435" x2="33.3112" y2="31.301" gradientUnits="userSpaceOnUse">
<stop stop-opacity="0"/>
<stop offset="0.9809"/>
</linearGradient>
<clipPath id="clip0_14401_99536">
<rect width="125" height="35" fill="white" transform="translate(11.5 10.5)"/>
</clipPath>
<clipPath id="clip1_14401_99536">
<rect width="22.7724" height="13.6202" fill="white" transform="translate(0.900391 15.1096) rotate(-40.0735)"/>
</clipPath>
</defs>
</svg>
