<svg width="55" height="82" viewBox="0 0 55 82" fill="none" xmlns="http://www.w3.org/2000/svg">
<g clip-path="url(#clip0_14345_368257)">
<path d="M30.684 62.4512H24.3027V81.7149H30.684V62.4512Z" fill="#E2A061"/>
<mask id="mask0_14345_368257" style="mask-type:luminance" maskUnits="userSpaceOnUse" x="24" y="62" width="7" height="20">
<path d="M30.686 62.4507H24.3047V81.7144H30.686V62.4507Z" fill="white"/>
</mask>
<g mask="url(#mask0_14345_368257)">
<g style="mix-blend-mode:multiply" opacity="0.3">
<path d="M53.1461 61.9609C53.745 61.9228 54.3058 61.2313 53.8975 60.6487C52.6561 58.8846 51.0825 57.4254 49.6233 55.8518C47.6959 53.7773 46.1332 51.3 44.5161 48.975C42.9698 46.7535 41.4561 44.5103 39.9751 42.2398C38.9733 40.6989 38.3308 39.011 37.6284 37.3395C39.7519 37.8676 42.1204 37.5464 44.2602 37.3939C45.066 37.334 45.3437 36.5119 44.8755 35.9075C43.3999 34.0073 41.7175 32.2976 40.0786 30.5335C38.2981 28.6169 36.8553 26.5479 35.4941 24.3264C32.6791 19.731 30.1963 14.9396 27.7679 10.1318C27.5937 9.78879 27.3051 9.66901 27.0165 9.69623C26.7279 9.66901 26.4394 9.78335 26.2651 10.1318C23.9347 14.749 21.5281 19.3335 18.8711 23.7765C17.5262 26.0252 16.1051 28.1378 14.3573 30.0979C12.6205 32.0362 10.7583 33.8548 9.15756 35.9129C8.6893 36.5173 8.96699 37.3395 9.77282 37.3994C11.9235 37.5518 14.3029 37.8785 16.4318 37.3395C15.8274 38.8314 15.2775 40.345 14.4063 41.7008C12.9362 43.9821 11.4171 46.2308 9.87627 48.4578C8.24283 50.8154 6.63117 53.2274 4.78538 55.4271C3.27717 57.2239 1.48583 58.7212 0.135521 60.6487C-0.272839 61.2313 0.287975 61.9173 0.886904 61.9609C4.89972 62.2277 8.93432 61.3511 12.5606 59.6414C11.9344 62.4727 9.67481 65.1406 8.10127 67.373C5.58032 70.9502 2.6728 74.3478 0.658222 78.2463C0.364203 78.8125 0.718115 79.5694 1.4096 79.5585C7.36622 79.4441 12.7783 76.4767 17.8039 73.444C17.2322 75.5783 16.5516 77.6855 15.9146 79.8035C15.6532 80.6692 16.7531 81.23 17.3683 80.6474C20.4229 77.7835 24.2015 75.8397 27.4466 73.2098C30.5012 75.7144 33.7844 77.9305 36.6592 80.6474C37.2745 81.23 38.3744 80.6583 38.113 79.8035C37.476 77.6855 36.7954 75.5783 36.2237 73.444C41.2492 76.4767 46.6614 79.4441 52.618 79.5585C53.3095 79.5694 53.6634 78.818 53.3693 78.2463C51.4092 74.4567 48.5725 71.2061 46.1604 67.7051C44.5379 65.353 42.1149 62.5979 41.467 59.6414C45.0932 61.3565 49.1333 62.2331 53.1407 61.9663L53.1461 61.9609Z" fill="#00654B"/>
</g>
</g>
<path d="M53.6231 56.7021C54.222 56.664 54.7828 55.9725 54.3745 55.3899C53.1331 53.6258 51.5595 52.1721 50.1003 50.5931C48.1728 48.5186 46.6102 46.0412 44.9931 43.7163C43.4468 41.4948 41.9331 39.2515 40.4521 36.9811C39.4503 35.4402 38.8078 33.7523 38.1054 32.0862C40.2289 32.6143 42.5974 32.2931 44.7372 32.1406C45.5484 32.0862 45.8207 31.2586 45.3524 30.6542C43.8769 28.754 42.1944 27.0443 40.5556 25.2802C38.7806 23.3636 37.3322 21.2946 35.971 19.0731C33.1615 14.4777 30.6732 9.68628 28.2449 4.87852C28.0706 4.53549 27.7821 4.41571 27.4935 4.44293C27.2049 4.41571 26.9163 4.53549 26.7421 4.87852C24.4117 9.49571 22.0051 14.0802 19.3481 18.5232C18.0032 20.7719 16.5821 22.8845 14.8343 24.8392C13.0974 26.7775 11.2353 28.5961 9.63453 30.6542C9.16628 31.2586 9.44397 32.0807 10.2498 32.1406C12.4005 32.2931 14.7799 32.6198 16.9142 32.0807C16.3099 33.5726 15.7599 35.0863 14.8888 36.4366C13.4187 38.718 11.8996 40.9667 10.3587 43.1936C8.72525 45.5512 7.11359 47.9687 5.2678 50.1629C3.76504 51.9597 1.9737 53.457 0.617943 55.3845C0.209583 55.9671 0.770397 56.6531 1.36933 56.6967C5.38214 56.9635 9.41674 56.0869 13.043 54.3772C12.4168 57.2085 10.1572 59.8764 8.58369 62.1088C6.06819 65.6861 3.15522 69.0836 1.14064 72.9821C0.846624 73.5483 1.20054 74.3052 1.89203 74.2943C7.84864 74.1799 13.2608 71.2125 18.2863 68.1798C17.7146 70.3141 17.034 72.4213 16.397 74.5393C16.1356 75.3996 17.2355 75.9658 17.8507 75.3832C20.9053 72.5193 24.684 70.5755 27.9345 67.9456C30.989 70.4503 34.2723 72.6663 37.1471 75.3832C37.7624 75.9658 38.8622 75.3941 38.6009 74.5393C37.9638 72.4213 37.2832 70.3141 36.7115 68.1798C41.7371 71.2125 47.1492 74.1799 53.1058 74.2943C53.7973 74.3052 54.1512 73.5538 53.8572 72.9821C51.8971 69.1925 49.0603 65.942 46.6483 62.441C45.0257 60.0888 42.6028 57.3337 41.9549 54.3772C45.5811 56.0923 49.6157 56.9689 53.6285 56.7021H53.6231Z" fill="#00654B"/>
<g style="mix-blend-mode:multiply" opacity="0.3">
<path d="M51.1076 68.5711C33.1996 62.9412 20.1158 45.1203 20.1158 24.0054C20.1158 21.3157 20.3281 18.6858 20.7365 16.1213C20.2791 16.9217 19.8218 17.7276 19.3481 18.517C18.0032 20.7658 16.5821 22.8783 14.8343 24.833C13.0974 26.7714 11.2353 28.5899 9.63453 30.6481C9.16628 31.2524 9.44396 32.0746 10.2498 32.1345C12.4005 32.287 14.7799 32.6136 16.9142 32.0746C16.3099 33.5665 15.7599 35.0801 14.8888 36.4304C13.4187 38.7118 11.8996 40.9605 10.3587 43.1874C8.72525 45.545 7.11359 47.9625 5.2678 50.1568C3.76504 51.9536 1.9737 53.4509 0.617943 55.3784C0.209583 55.9609 0.770397 56.647 1.36933 56.6906C5.38214 56.9574 9.41674 56.0807 13.043 54.3711C12.4168 57.2024 10.1572 59.8703 8.58369 62.1027C6.06819 65.6799 3.15522 69.0775 1.14064 72.976C0.846624 73.5422 1.20054 74.299 1.89203 74.2882C7.84864 74.1738 13.2608 71.2064 18.2863 68.1736C17.7146 70.308 17.034 72.4151 16.397 74.5332C16.1356 75.3934 17.2355 75.9597 17.8507 75.3771C20.9053 72.5131 24.684 70.5694 27.9345 67.9395C30.989 70.4441 34.2723 72.6602 37.1471 75.3771C37.7624 75.9597 38.8622 75.388 38.6009 74.5332C37.9638 72.4151 37.2832 70.308 36.7115 68.1736C41.7371 71.2064 47.1492 74.1738 53.1058 74.2882C53.7973 74.299 54.1512 73.5477 53.8572 72.976C53.0623 71.4351 52.1149 69.9868 51.1185 68.5711H51.1076Z" fill="#00654B"/>
</g>
<path d="M35.6074 37.7048C35.6074 38.6413 34.8505 39.3981 33.914 39.3981C32.9775 39.3981 32.2207 38.6413 32.2207 37.7048C32.2207 36.7683 32.9775 36.0115 33.914 36.0115C34.8505 36.0115 35.6074 36.7683 35.6074 37.7048Z" fill="#F2453E"/>
<g style="mix-blend-mode:multiply" opacity="0.5">
<path d="M34.5293 38.3199C33.5928 38.3199 32.836 37.5631 32.836 36.6266C32.836 36.5449 32.8469 36.4633 32.8577 36.3816C32.4712 36.6919 32.2207 37.1656 32.2207 37.7047C32.2207 38.6412 32.9775 39.398 33.914 39.398C34.7689 39.398 35.4712 38.7664 35.5856 37.9497C35.297 38.1838 34.9268 38.3254 34.5293 38.3254V38.3199Z" fill="#F2453E"/>
</g>
<path d="M34.7525 36.6433C34.7525 36.8339 34.6 36.9863 34.4094 36.9863C34.2189 36.9863 34.0664 36.8339 34.0664 36.6433C34.0664 36.4528 34.2189 36.3003 34.4094 36.3003C34.6 36.3003 34.7525 36.4528 34.7525 36.6433Z" fill="white"/>
<path d="M37.2031 54.3176C37.2031 55.2541 36.4462 56.0109 35.5097 56.0109C34.5732 56.0109 33.8164 55.2541 33.8164 54.3176C33.8164 53.3811 34.5732 52.6243 35.5097 52.6243C36.4462 52.6243 37.2031 53.3811 37.2031 54.3176Z" fill="#F2453E"/>
<g style="mix-blend-mode:multiply" opacity="0.5">
<path d="M36.125 54.9325C35.1885 54.9325 34.4317 54.1757 34.4317 53.2392C34.4317 53.1575 34.4371 53.0758 34.4534 52.9941C34.0669 53.3045 33.8164 53.7836 33.8164 54.3172C33.8164 55.2537 34.5732 56.0106 35.5097 56.0106C36.3646 56.0106 37.067 55.379 37.1813 54.5622C36.8927 54.7909 36.5225 54.9325 36.125 54.9325Z" fill="#F2453E"/>
</g>
<path d="M36.3482 53.2556C36.3482 53.4462 36.1957 53.5986 36.0051 53.5986C35.8146 53.5986 35.6621 53.4462 35.6621 53.2556C35.6621 53.0651 35.8146 52.9126 36.0051 52.9126C36.1957 52.9126 36.3482 53.0651 36.3482 53.2556Z" fill="white"/>
<path d="M18.6406 47.8364C18.6406 48.7729 17.8837 49.5297 16.9472 49.5297C16.0107 49.5297 15.2539 48.7729 15.2539 47.8364C15.2539 46.8999 16.0107 46.1431 16.9472 46.1431C17.8837 46.1431 18.6406 46.8999 18.6406 47.8364Z" fill="#F2453E"/>
<g style="mix-blend-mode:multiply" opacity="0.5">
<path d="M17.5625 48.4515C16.626 48.4515 15.8692 47.6947 15.8692 46.7582C15.8692 46.6765 15.8801 46.5949 15.8909 46.5132C15.5044 46.8235 15.2539 47.2972 15.2539 47.8363C15.2539 48.7728 16.0107 49.5296 16.9472 49.5296C17.7966 49.5296 18.5045 48.898 18.6188 48.0813C18.3302 48.3154 17.96 48.457 17.5625 48.457V48.4515Z" fill="#F2453E"/>
</g>
<path d="M17.7876 46.7756C17.7876 46.9662 17.6352 47.1187 17.4446 47.1187C17.254 47.1187 17.1016 46.9662 17.1016 46.7756C17.1016 46.5851 17.254 46.4326 17.4446 46.4326C17.6352 46.4326 17.7876 46.5851 17.7876 46.7756Z" fill="white"/>
<path d="M28.1074 20.9416C28.1074 21.8781 27.3505 22.635 26.414 22.635C25.4775 22.635 24.7207 21.8781 24.7207 20.9416C24.7207 20.0051 25.4775 19.2483 26.414 19.2483C27.3505 19.2483 28.1074 20.0051 28.1074 20.9416Z" fill="#F2453E"/>
<g style="mix-blend-mode:multiply" opacity="0.5">
<path d="M27.0293 21.5568C26.0928 21.5568 25.336 20.7999 25.336 19.8634C25.336 19.7818 25.3414 19.7001 25.3577 19.6184C24.9712 19.9288 24.7207 20.4025 24.7207 20.9415C24.7207 21.878 25.4775 22.6348 26.414 22.6348C27.2689 22.6348 27.9712 22.0032 28.0856 21.1865C27.797 21.4206 27.4268 21.5568 27.0293 21.5568Z" fill="#F2453E"/>
</g>
<path d="M27.2525 19.8794C27.2525 20.07 27.1 20.2224 26.9094 20.2224C26.7189 20.2224 26.5664 20.07 26.5664 19.8794C26.5664 19.6888 26.7189 19.5364 26.9094 19.5364C27.1 19.5364 27.2525 19.6888 27.2525 19.8794Z" fill="white"/>
<path d="M24.6074 62.9128C24.6074 63.8493 23.8505 64.6061 22.914 64.6061C21.9775 64.6061 21.2207 63.8493 21.2207 62.9128C21.2207 61.9763 21.9775 61.2195 22.914 61.2195C23.8505 61.2195 24.6074 61.9763 24.6074 62.9128Z" fill="#F2453E"/>
<g style="mix-blend-mode:multiply" opacity="0.5">
<path d="M23.5293 63.5279C22.5928 63.5279 21.836 62.7711 21.836 61.8346C21.836 61.7529 21.8469 61.6713 21.8577 61.5896C21.4712 61.9 21.2207 62.3791 21.2207 62.9127C21.2207 63.8492 21.9775 64.606 22.914 64.606C23.7689 64.606 24.4712 63.9744 24.5856 63.1577C24.297 63.3918 23.9268 63.5279 23.5293 63.5279Z" fill="#F2453E"/>
</g>
<path d="M23.7525 61.8521C23.7525 62.0426 23.6 62.1951 23.4094 62.1951C23.2189 62.1951 23.0664 62.0426 23.0664 61.8521C23.0664 61.6615 23.2189 61.509 23.4094 61.509C23.6 61.509 23.7525 61.6615 23.7525 61.8521Z" fill="white"/>
<path d="M14.3574 32.424C14.3574 33.3606 13.6005 34.1174 12.664 34.1174C11.7275 34.1174 10.9707 33.3606 10.9707 32.424C10.9707 31.4875 11.7275 30.7307 12.664 30.7307C13.6005 30.7307 14.3574 31.4875 14.3574 32.424Z" fill="#F2453E"/>
<g style="mix-blend-mode:multiply" opacity="0.5">
<path d="M13.2793 33.0392C12.3428 33.0392 11.586 32.2824 11.586 31.3458C11.586 31.2642 11.5969 31.1825 11.6077 31.1008C11.2212 31.4112 10.9707 31.8849 10.9707 32.4239C10.9707 33.3604 11.7275 34.1173 12.664 34.1173C13.5189 34.1173 14.2212 33.4857 14.3356 32.6689C14.047 32.9031 13.6768 33.0392 13.2793 33.0392Z" fill="#F2453E"/>
</g>
<path d="M13.4966 31.3626C13.4966 31.5531 13.3441 31.7056 13.1536 31.7056C12.963 31.7056 12.8105 31.5531 12.8105 31.3626C12.8105 31.172 12.963 31.0195 13.1536 31.0195C13.3441 31.0195 13.4966 31.172 13.4966 31.3626Z" fill="white"/>
<path d="M52.8769 56.9455C52.8769 57.882 52.1201 58.6389 51.1836 58.6389C50.2471 58.6389 49.4902 57.882 49.4902 56.9455C49.4902 56.009 50.2471 55.2522 51.1836 55.2522C52.1201 55.2522 52.8769 56.009 52.8769 56.9455Z" fill="#F2453E"/>
<g style="mix-blend-mode:multiply" opacity="0.5">
<path d="M51.7988 57.5607C50.8623 57.5607 50.1055 56.8038 50.1055 55.8673C50.1055 55.7857 50.1164 55.704 50.1273 55.6223C49.7407 55.9327 49.4902 56.4118 49.4902 56.9454C49.4902 57.8819 50.2471 58.6387 51.1836 58.6387C52.0384 58.6387 52.7408 58.0071 52.8551 57.1904C52.5665 57.4245 52.1963 57.5607 51.7988 57.5607Z" fill="#F2453E"/>
</g>
<path d="M52.022 55.884C52.022 56.0746 51.8695 56.2271 51.679 56.2271C51.4884 56.2271 51.3359 56.0746 51.3359 55.884C51.3359 55.6935 51.4884 55.541 51.679 55.541C51.8695 55.541 52.022 55.6935 52.022 55.884Z" fill="white"/>
<path d="M48.1933 73.9358C48.1933 74.8723 47.4365 75.6291 46.5 75.6291C45.5635 75.6291 44.8066 74.8723 44.8066 73.9358C44.8066 72.9993 45.5635 72.2424 46.5 72.2424C47.4365 72.2424 48.1933 72.9993 48.1933 73.9358Z" fill="#F2453E"/>
<g style="mix-blend-mode:multiply" opacity="0.5">
<path d="M47.1152 74.5509C46.1787 74.5509 45.4219 73.7941 45.4219 72.8576C45.4219 72.7759 45.4328 72.6942 45.4437 72.6125C45.0571 72.9229 44.8066 73.402 44.8066 73.9356C44.8066 74.8721 45.5635 75.629 46.5 75.629C47.3548 75.629 48.0572 74.9974 48.1715 74.1807C47.883 74.4148 47.5127 74.5509 47.1152 74.5509Z" fill="#F2453E"/>
</g>
<path d="M47.3384 72.8789C47.3384 73.0695 47.1859 73.2219 46.9954 73.2219C46.8048 73.2219 46.6523 73.0695 46.6523 72.8789C46.6523 72.6883 46.8048 72.5359 46.9954 72.5359C47.1859 72.5359 47.3384 72.6883 47.3384 72.8789Z" fill="white"/>
<path d="M8.0976 73.5598C8.0976 74.4963 7.34078 75.2531 6.40427 75.2531C5.46777 75.2531 4.71094 74.4963 4.71094 73.5598C4.71094 72.6233 5.46777 71.8665 6.40427 71.8665C7.34078 71.8665 8.0976 72.6233 8.0976 73.5598Z" fill="#F2453E"/>
<g style="mix-blend-mode:multiply" opacity="0.5">
<path d="M7.01953 74.1808C6.08303 74.1808 5.3262 73.424 5.3262 72.4875C5.3262 72.4058 5.33164 72.3241 5.34798 72.2424C4.9614 72.5528 4.71094 73.0319 4.71094 73.5655C4.71094 74.502 5.46777 75.2589 6.40427 75.2589C7.25366 75.2589 7.96148 74.6273 8.07582 73.8105C7.78725 74.0447 7.417 74.1808 7.01953 74.1808Z" fill="#F2453E"/>
</g>
<path d="M7.24269 72.5039C7.24269 72.6945 7.09023 72.8469 6.89966 72.8469C6.7091 72.8469 6.55664 72.6945 6.55664 72.5039C6.55664 72.3133 6.7091 72.1609 6.89966 72.1609C7.09023 72.1609 7.24269 72.3133 7.24269 72.5039Z" fill="white"/>
<path d="M27.5593 -0.000488281L28.5012 1.90519L30.6084 2.21555L29.0838 3.69653L29.4432 5.79822L27.5593 4.80727L25.6808 5.79822L26.0402 3.69653L24.5156 2.21555L26.6228 1.90519L27.5593 -0.000488281Z" fill="#E2A061"/>
<path d="M18.3761 68.0818L18.3787 82.312C18.3787 82.312 17.9862 83.8691 16.1128 83.9344C13.8643 84.013 13.6237 82.4781 13.6237 82.4781L13.6211 68.248C13.6208 68.4902 14.6843 68.6499 15.9968 68.604C17.3097 68.5582 18.3755 68.3242 18.3761 68.0818Z" fill="#FFBE0B"/>
<path d="M18.3768 68.2679V68.0818C18.3765 68.1773 18.209 68.2714 17.9277 68.3534C18.0928 68.3279 18.243 68.2991 18.3768 68.2679Z" fill="#FFCB57"/>
<path d="M14.2715 82.439L14.2668 68.5256C13.8672 68.4611 13.6208 68.3642 13.6211 68.248L13.6237 82.4782C13.6237 82.4782 13.8643 84.0131 16.1128 83.9345C16.2284 83.9305 16.3437 83.9201 16.4582 83.9034C14.4942 83.8382 14.2715 82.439 14.2715 82.439Z" fill="#FFCB57"/>
<path d="M17.9102 83.1406C18.1237 82.901 18.2835 82.6184 18.3789 82.312L18.3763 68.0818C18.376 68.1792 18.2014 68.275 17.9102 68.3581V83.1406Z" fill="#FFA300"/>
<path d="M18.2324 82.6656C18.2923 82.5527 18.3411 82.4343 18.3781 82.312L18.3755 68.0818C18.3708 68.113 18.3614 68.1434 18.3478 68.1719C18.3228 68.2229 18.2851 68.2666 18.2382 68.2987C18.2361 73.0877 18.2342 77.8766 18.2324 82.6656Z" fill="#E06500"/>
<path d="M18.2293 77.6852L18.0696 77.5238L18.0684 77.4377H18.1519L18.3115 77.5992L18.3128 77.6852L18.2929 77.6987L18.2293 77.6852Z" fill="white"/>
<path d="M17.9739 77.3758L17.9939 77.3623L17.9925 77.2763L17.8934 77.1762L17.8367 77.1604L17.7954 77.2026L17.7599 77.3391C17.7558 77.3546 17.7578 77.371 17.7656 77.385C17.7734 77.399 17.7864 77.4094 17.8017 77.4141C17.8092 77.4162 17.817 77.4168 17.8248 77.4159C17.8325 77.4149 17.84 77.4124 17.8467 77.4085C17.8535 77.4046 17.8594 77.3993 17.864 77.3931C17.8687 77.3869 17.8721 77.3798 17.874 77.3722L17.8837 77.3354L17.9103 77.3623L17.9739 77.3758Z" fill="white"/>
<path d="M17.5734 78.2934C17.558 78.2888 17.5451 78.2784 17.5372 78.2644C17.5294 78.2504 17.5273 78.234 17.5313 78.2185L17.5886 77.9987C17.5905 77.9911 17.5938 77.984 17.5985 77.9777C17.6032 77.9714 17.6091 77.9662 17.6158 77.9623C17.6226 77.9584 17.6301 77.9559 17.6378 77.9549C17.6456 77.954 17.6534 77.9546 17.6609 77.9567C17.6762 77.9614 17.6892 77.9718 17.697 77.9858C17.7048 77.9997 17.7068 78.0162 17.7027 78.0317L17.6457 78.2514L17.611 78.2915L17.5734 78.2934ZM17.6875 77.8538C17.6722 77.8492 17.6592 77.8388 17.6514 77.8248C17.6436 77.8108 17.6416 77.7944 17.6457 77.7789L17.7027 77.5591C17.7045 77.5515 17.7079 77.5444 17.7126 77.5381C17.7172 77.5319 17.7231 77.5266 17.7299 77.5227C17.7367 77.5188 17.7441 77.5163 17.7519 77.5153C17.7596 77.5144 17.7675 77.515 17.775 77.5172C17.7904 77.5218 17.8033 77.5322 17.8112 77.5462C17.819 77.5601 17.8211 77.5766 17.8171 77.5921L17.7598 77.8119L17.7253 77.852L17.6875 77.8538Z" fill="white"/>
<path d="M17.5178 78.648L17.5525 78.6079L17.5877 78.4715C17.5918 78.456 17.5897 78.4395 17.5819 78.4256C17.5741 78.4116 17.5612 78.4012 17.5459 78.3965C17.5384 78.3944 17.5305 78.3938 17.5228 78.3947C17.5151 78.3957 17.5076 78.3982 17.5008 78.4021C17.4941 78.406 17.4882 78.4113 17.4835 78.4175C17.4788 78.4238 17.4755 78.4309 17.4736 78.4385L17.4694 78.4541L17.4599 78.441C17.4555 78.4345 17.4498 78.4291 17.4432 78.4249C17.4366 78.4207 17.4292 78.4179 17.4215 78.4167C17.4138 78.4154 17.406 78.4157 17.3984 78.4176C17.3908 78.4194 17.3837 78.4228 17.3774 78.4274C17.3647 78.4372 17.3564 78.4515 17.3541 78.4674C17.3519 78.4832 17.3559 78.4993 17.3653 78.5122L17.4478 78.6271L17.5065 78.6511L17.5178 78.648Z" fill="white"/>
<path d="M17.2333 78.3264L17.1003 78.1415C17.0908 78.1286 17.0868 78.1125 17.089 78.0966C17.0912 78.0808 17.0995 78.0664 17.1121 78.0566C17.1184 78.0519 17.1256 78.0486 17.1332 78.0468C17.1408 78.0449 17.1487 78.0446 17.1564 78.0459C17.1641 78.0472 17.1715 78.0499 17.1781 78.0541C17.1847 78.0583 17.1904 78.0637 17.1949 78.0701L17.328 78.2552C17.3374 78.2681 17.3414 78.2841 17.3392 78.3C17.337 78.3158 17.3287 78.3301 17.3161 78.34L17.303 78.3473L17.2333 78.3264ZM16.9673 77.9564L16.8342 77.7713C16.8247 77.7584 16.8206 77.7424 16.8229 77.7265C16.8251 77.7107 16.8334 77.6963 16.8461 77.6865C16.8523 77.6819 16.8595 77.6785 16.8671 77.6767C16.8746 77.6749 16.8825 77.6746 16.8902 77.6758C16.8979 77.6771 16.9053 77.6799 16.9119 77.684C16.9185 77.6882 16.9242 77.6937 16.9286 77.7001L17.0619 77.8851C17.0713 77.8981 17.0753 77.9142 17.0731 77.93C17.0708 77.9458 17.0625 77.9602 17.0498 77.9699L17.0369 77.9773C17.0247 77.9822 17.0111 77.9827 16.9985 77.9789C16.9858 77.9752 16.9748 77.9672 16.9673 77.9564Z" fill="white"/>
<path d="M16.7711 77.6083L16.784 77.601C16.7966 77.5912 16.8049 77.5768 16.8072 77.561C16.8094 77.5452 16.8053 77.5291 16.7959 77.5162L16.7133 77.4013L16.6594 77.3765L16.6121 77.4113L16.5558 77.5399C16.5495 77.5546 16.5491 77.5712 16.5547 77.5862C16.5603 77.6012 16.5714 77.6135 16.5858 77.6206C16.5928 77.6239 16.6005 77.6258 16.6083 77.6262C16.6161 77.6265 16.6238 77.6252 16.6311 77.6225C16.6384 77.6197 16.6451 77.6155 16.6507 77.6101C16.6563 77.6048 16.6608 77.5983 16.6639 77.5911L16.6791 77.5564L16.7012 77.5874C16.7088 77.5982 16.7199 77.6062 16.7326 77.61C16.7452 77.6138 16.7588 77.6132 16.7711 77.6083Z" fill="white"/>
<path d="M16.2224 78.4487C16.208 78.4417 16.1969 78.4294 16.1913 78.4144C16.1858 78.3993 16.1863 78.3828 16.1927 78.3681L16.2831 78.1609C16.2862 78.1538 16.2907 78.1473 16.2963 78.1419C16.3019 78.1365 16.3086 78.1323 16.3159 78.1295C16.3232 78.1268 16.3309 78.1255 16.3387 78.1259C16.3465 78.1262 16.3542 78.1281 16.3612 78.1315C16.3756 78.1385 16.3867 78.1508 16.3923 78.1659C16.3979 78.1809 16.3975 78.1975 16.3912 78.2122L16.3005 78.4192L16.2692 78.4503L16.2224 78.4487ZM16.4035 78.0345C16.3891 78.0274 16.378 78.0151 16.3724 78.0001C16.3669 77.9851 16.3673 77.9685 16.3736 77.9538L16.4643 77.7466C16.4673 77.7394 16.4718 77.7329 16.4774 77.7275C16.483 77.7221 16.4897 77.7179 16.497 77.7151C16.5043 77.7124 16.5121 77.7111 16.5199 77.7115C16.5277 77.7118 16.5353 77.7138 16.5423 77.7172C16.5568 77.7242 16.5679 77.7365 16.5734 77.7515C16.579 77.7666 16.5785 77.7832 16.572 77.7979L16.4816 78.0049L16.4501 78.0359L16.4035 78.0345Z" fill="white"/>
<path d="M16.1232 78.7859L16.1547 78.7549L16.211 78.6265C16.2174 78.6118 16.2179 78.5951 16.2123 78.5801C16.2067 78.565 16.1955 78.5527 16.181 78.5458C16.174 78.5424 16.1664 78.5404 16.1586 78.5401C16.1508 78.5397 16.143 78.541 16.1357 78.5437C16.1284 78.5465 16.1217 78.5507 16.1161 78.5561C16.1105 78.5615 16.106 78.568 16.1029 78.5752L16.0951 78.5935L16.0856 78.5756C16.082 78.5686 16.0771 78.5625 16.071 78.5574C16.065 78.5524 16.0581 78.5486 16.0506 78.5463C16.0431 78.544 16.0352 78.5432 16.0274 78.5439C16.0196 78.5447 16.012 78.547 16.0051 78.5508C15.9913 78.5587 15.9811 78.5718 15.9768 78.5872C15.9725 78.6026 15.9745 78.6191 15.9823 78.633L16.0491 78.758L16.1035 78.7901L16.1232 78.7859Z" fill="white"/>
<path d="M15.8725 78.4276L15.7626 78.2226C15.7549 78.2086 15.7529 78.1921 15.7572 78.1767C15.7615 78.1614 15.7716 78.1483 15.7855 78.1403C15.7924 78.1366 15.7999 78.1343 15.8077 78.1335C15.8155 78.1327 15.8234 78.1335 15.8309 78.1359C15.8384 78.1382 15.8453 78.1419 15.8513 78.147C15.8574 78.152 15.8623 78.1582 15.8659 78.1651L15.9758 78.3702C15.9835 78.3842 15.9853 78.4007 15.981 78.416C15.9767 78.4314 15.9665 78.4445 15.9527 78.4525C15.9387 78.4595 15.9225 78.4609 15.9076 78.4562C15.8926 78.4516 15.88 78.4413 15.8725 78.4276ZM15.6527 78.0174L15.5428 77.8123C15.5351 77.7983 15.5331 77.7819 15.5374 77.7665C15.5417 77.7511 15.5518 77.738 15.5657 77.73C15.5726 77.7263 15.5802 77.724 15.588 77.7232C15.5958 77.7224 15.6037 77.7232 15.6111 77.7255C15.6186 77.7278 15.6256 77.7316 15.6316 77.7367C15.6376 77.7417 15.6426 77.7479 15.6461 77.7549L15.756 77.9599C15.7637 77.9739 15.7656 77.9904 15.7612 78.0058C15.7569 78.0212 15.7467 78.0342 15.7329 78.0422C15.7189 78.0493 15.7027 78.0507 15.6878 78.0461C15.6728 78.0414 15.6602 78.0311 15.6527 78.0174Z" fill="white"/>
<path d="M15.5052 77.6353C15.5129 77.6318 15.5197 77.6268 15.5254 77.6205C15.5311 77.6143 15.5354 77.6069 15.5382 77.599C15.5409 77.591 15.542 77.5825 15.5413 77.5741C15.5407 77.5657 15.5383 77.5575 15.5344 77.55L15.4676 77.425L15.4189 77.3931L15.3674 77.418L15.288 77.5327C15.279 77.5459 15.2755 77.5622 15.2782 77.578C15.2809 77.5938 15.2896 77.6079 15.3025 77.6174C15.3087 77.6222 15.3158 77.6256 15.3234 77.6275C15.3309 77.6293 15.3388 77.6297 15.3465 77.6284C15.3542 77.6272 15.3616 77.6243 15.3681 77.6202C15.3747 77.616 15.3804 77.6105 15.3848 77.604L15.41 77.5678L15.431 77.6075C15.4378 77.6204 15.4491 77.6304 15.4628 77.6356C15.4765 77.6407 15.4916 77.6406 15.5052 77.6353Z" fill="white"/>
<path d="M14.783 78.3699C14.7701 78.3604 14.7614 78.3462 14.7587 78.3304C14.756 78.3146 14.7595 78.2984 14.7685 78.2851L14.8989 78.0969C14.9033 78.0905 14.909 78.085 14.9155 78.0808C14.9221 78.0766 14.9295 78.0738 14.9372 78.0726C14.9449 78.0713 14.9527 78.0716 14.9603 78.0735C14.9679 78.0754 14.975 78.0788 14.9812 78.0835C14.9941 78.093 15.0028 78.1072 15.0054 78.123C15.0081 78.1388 15.0045 78.1551 14.9954 78.1683L14.8652 78.3565L14.8395 78.3773L14.783 78.3699ZM15.0435 77.9936C15.0306 77.984 15.0219 77.9698 15.0192 77.954C15.0165 77.9382 15.02 77.922 15.029 77.9087L15.1594 77.7206C15.1638 77.7141 15.1695 77.7087 15.1761 77.7045C15.1827 77.7004 15.19 77.6976 15.1977 77.6963C15.2054 77.6951 15.2133 77.6954 15.2208 77.6972C15.2284 77.6991 15.2355 77.7025 15.2417 77.7072C15.2546 77.7167 15.2633 77.7309 15.266 77.7467C15.2687 77.7625 15.2652 77.7788 15.2562 77.7921L15.1258 77.9802L15.1 78.0009L15.0435 77.9936Z" fill="white"/>
<path d="M14.6297 78.6808L14.6555 78.6601L14.7349 78.5453C14.744 78.5321 14.7476 78.5159 14.7449 78.5C14.7423 78.4842 14.7336 78.4701 14.7207 78.4605C14.7145 78.4558 14.7073 78.4524 14.6998 78.4505C14.6922 78.4487 14.6843 78.4483 14.6767 78.4496C14.669 78.4509 14.6616 78.4537 14.655 78.4578C14.6484 78.462 14.6428 78.4675 14.6384 78.4739L14.625 78.4933L14.6174 78.4705C14.615 78.4629 14.6112 78.4559 14.6061 78.4499C14.601 78.4438 14.5947 78.4389 14.5876 78.4353C14.5806 78.4317 14.5728 78.4296 14.5649 78.4291C14.557 78.4286 14.5491 78.4296 14.5416 78.4322C14.5342 78.4348 14.5273 78.4389 14.5214 78.4442C14.5155 78.4495 14.5108 78.4559 14.5074 78.4631C14.5041 78.4703 14.5023 78.4781 14.502 78.486C14.5017 78.4939 14.503 78.5018 14.5059 78.5092L14.5516 78.6436L14.5992 78.6844L14.6297 78.6808Z" fill="white"/>
<path d="M14.5054 78.3269C14.4979 78.3293 14.49 78.3303 14.4822 78.3297C14.4743 78.3291 14.4667 78.327 14.4597 78.3234C14.4526 78.3198 14.4464 78.3149 14.4413 78.3089C14.4362 78.3029 14.4323 78.296 14.4299 78.2885L14.3547 78.0677C14.3495 78.0527 14.3504 78.0362 14.3571 78.0219C14.3639 78.0075 14.3761 77.9963 14.391 77.9908C14.3985 77.9884 14.4064 77.9875 14.4142 77.9881C14.422 77.9887 14.4296 77.9908 14.4366 77.9944C14.4436 77.998 14.4498 78.0029 14.4549 78.0089C14.46 78.0148 14.4638 78.0218 14.4662 78.0292L14.5414 78.25C14.5466 78.2644 14.546 78.2803 14.5399 78.2944C14.5337 78.3085 14.5224 78.3197 14.5082 78.3257L14.5054 78.3269ZM14.355 77.8856C14.3476 77.888 14.3397 77.8889 14.3319 77.8883C14.324 77.8877 14.3164 77.8856 14.3094 77.882C14.3024 77.8784 14.2962 77.8735 14.2911 77.8675C14.2861 77.8616 14.2822 77.8546 14.2798 77.8472L14.2046 77.6265C14.1993 77.6115 14.2002 77.595 14.2069 77.5806C14.2137 77.5662 14.2259 77.5551 14.2409 77.5496C14.2484 77.5472 14.2562 77.5462 14.264 77.5468C14.2719 77.5474 14.2795 77.5496 14.2865 77.5531C14.2935 77.5567 14.2997 77.5616 14.3048 77.5676C14.3098 77.5736 14.3137 77.5805 14.3161 77.588L14.3913 77.8085C14.3964 77.823 14.3958 77.8389 14.3897 77.853C14.3835 77.8671 14.3723 77.8783 14.3582 77.8844L14.355 77.8856Z" fill="white"/>
<path d="M14.2071 77.4429C14.2213 77.4369 14.2327 77.4257 14.2389 77.4116C14.2451 77.3975 14.2456 77.3816 14.2405 77.367L14.1948 77.2326L14.1519 77.1929L14.097 77.2084L14 77.3075L14.0002 77.3935L14.0839 77.3944L14.1146 77.3631L14.1291 77.4055C14.1314 77.413 14.1353 77.42 14.1404 77.4259C14.1454 77.4319 14.1517 77.4369 14.1586 77.4404C14.1656 77.444 14.1733 77.4461 14.1811 77.4467C14.1889 77.4474 14.1968 77.4464 14.2042 77.4439L14.2071 77.4429Z" fill="white"/>
<path d="M13.6819 77.7188L13.6816 77.6329L13.841 77.4702L13.9245 77.4712L13.9251 77.557L13.7655 77.7197L13.746 77.7328L13.6819 77.7188Z" fill="white"/>
<path d="M18.2175 79.6092L18.0579 79.4478L18.0566 79.362L18.1402 79.3618L18.2998 79.5232L18.3011 79.6092L18.2811 79.6227L18.2175 79.6092Z" fill="white"/>
<path d="M17.9621 79.3L17.9821 79.2863L17.9808 79.2005L17.8817 79.1002L17.8249 79.0845L17.7836 79.1268L17.7481 79.2632C17.7441 79.2787 17.7461 79.2952 17.7539 79.3091C17.7617 79.3231 17.7746 79.3335 17.7899 79.3382C17.7974 79.3403 17.8053 79.3409 17.813 79.3399C17.8208 79.339 17.8282 79.3365 17.835 79.3325C17.8417 79.3286 17.8476 79.3234 17.8523 79.3171C17.857 79.3109 17.8604 79.3038 17.8622 79.2962L17.872 79.2594L17.8985 79.2865L17.9621 79.3Z" fill="white"/>
<path d="M17.5616 80.2176C17.5463 80.213 17.5333 80.2026 17.5255 80.1886C17.5177 80.1746 17.5155 80.1581 17.5196 80.1426L17.5769 79.9228C17.5787 79.9152 17.5821 79.9081 17.5868 79.9019C17.5915 79.8956 17.5974 79.8904 17.6041 79.8865C17.6109 79.8825 17.6183 79.88 17.6261 79.8791C17.6338 79.8781 17.6417 79.8787 17.6492 79.8809C17.6645 79.8855 17.6774 79.8959 17.6852 79.9099C17.693 79.9239 17.6951 79.9403 17.691 79.9558L17.6339 80.1757L17.5992 80.2157L17.5616 80.2176ZM17.6757 79.7779C17.6604 79.7733 17.6476 79.7629 17.6398 79.7489C17.632 79.7349 17.6299 79.7185 17.6339 79.703L17.6912 79.4832C17.6931 79.4756 17.6964 79.4685 17.7011 79.4622C17.7057 79.4559 17.7116 79.4507 17.7184 79.4467C17.7251 79.4428 17.7326 79.4403 17.7404 79.4394C17.7482 79.4384 17.756 79.4391 17.7635 79.4413C17.7789 79.446 17.7918 79.4564 17.7996 79.4703C17.8074 79.4843 17.8094 79.5008 17.8053 79.5162L17.7483 79.736L17.7136 79.7761L17.6757 79.7779Z" fill="white"/>
<path d="M17.5061 80.5721L17.5408 80.532L17.5762 80.3957C17.5802 80.3801 17.5781 80.3637 17.5702 80.3497C17.5624 80.3357 17.5495 80.3253 17.5342 80.3206C17.5267 80.3185 17.5188 80.3178 17.5111 80.3188C17.5033 80.3198 17.4959 80.3223 17.4891 80.3262C17.4824 80.3301 17.4765 80.3353 17.4718 80.3416C17.4671 80.3478 17.4637 80.355 17.4619 80.3625L17.4577 80.3783L17.4482 80.365C17.4438 80.3586 17.4381 80.3531 17.4315 80.349C17.4249 80.3448 17.4175 80.342 17.4098 80.3407C17.4021 80.3395 17.3942 80.3398 17.3867 80.3416C17.3791 80.3435 17.3719 80.3468 17.3657 80.3515C17.353 80.3613 17.3447 80.3756 17.3424 80.3914C17.3402 80.4073 17.3442 80.4234 17.3536 80.4363L17.4361 80.5512L17.4948 80.5753L17.5061 80.5721Z" fill="white"/>
<path d="M17.2215 80.2516L17.0885 80.0665C17.0791 80.0536 17.0751 80.0375 17.0773 80.0217C17.0795 80.0058 17.0877 79.9915 17.1003 79.9816C17.1066 79.9769 17.1138 79.9736 17.1214 79.9718C17.129 79.9699 17.1369 79.9697 17.1446 79.9709C17.1523 79.9722 17.1597 79.975 17.1663 79.9791C17.1729 79.9833 17.1786 79.9887 17.1831 79.9951L17.3161 80.1802C17.3255 80.1931 17.3296 80.2092 17.3273 80.225C17.3251 80.2409 17.3169 80.2552 17.3043 80.2651L17.2912 80.2725L17.2215 80.2516ZM16.9555 79.8814L16.8224 79.6965C16.813 79.6836 16.8089 79.6675 16.8111 79.6516C16.8133 79.6358 16.8216 79.6214 16.8343 79.6116C16.8406 79.6069 16.8477 79.6036 16.8553 79.6017C16.8629 79.5999 16.8708 79.5996 16.8785 79.6009C16.8862 79.6021 16.8936 79.6049 16.9003 79.6091C16.9069 79.6132 16.9126 79.6187 16.9171 79.6251L17.0501 79.8102C17.0595 79.8231 17.0635 79.8392 17.0613 79.8551C17.059 79.8709 17.0507 79.8853 17.038 79.8951L17.0251 79.9025L16.9555 79.8814Z" fill="white"/>
<path d="M16.7575 79.5327L16.7703 79.5253C16.783 79.5155 16.7913 79.5012 16.7936 79.4854C16.7959 79.4695 16.7919 79.4534 16.7824 79.4405L16.6999 79.3258L16.6457 79.3008L16.5984 79.3357L16.5421 79.4643C16.5358 79.479 16.5354 79.4956 16.541 79.5106C16.5466 79.5256 16.5577 79.5379 16.5721 79.5449C16.5791 79.5483 16.5868 79.5502 16.5946 79.5505C16.6024 79.5509 16.6102 79.5496 16.6175 79.5469C16.6248 79.5441 16.6314 79.5399 16.6371 79.5345C16.6427 79.5291 16.6472 79.5226 16.6502 79.5154L16.6654 79.4807L16.6875 79.5118C16.6951 79.5226 16.7062 79.5305 16.7189 79.5343C16.7316 79.5381 16.7451 79.5375 16.7575 79.5327Z" fill="white"/>
<path d="M16.2109 80.3728C16.1965 80.3659 16.1853 80.3536 16.1797 80.3385C16.1741 80.3235 16.1745 80.3068 16.181 80.2921L16.2714 80.085C16.2744 80.0778 16.2789 80.0713 16.2845 80.0659C16.2902 80.0605 16.2968 80.0563 16.3041 80.0536C16.3114 80.0508 16.3192 80.0496 16.327 80.0499C16.3348 80.0502 16.3424 80.0522 16.3495 80.0555C16.3638 80.0626 16.375 80.0749 16.3806 80.0899C16.3861 80.1049 16.3857 80.1215 16.3794 80.1362L16.2887 80.3434L16.2575 80.3743L16.2109 80.3728ZM16.3918 79.9585C16.3774 79.9515 16.3663 79.9392 16.3607 79.9241C16.3552 79.9091 16.3557 79.8925 16.3621 79.8778L16.4525 79.6707C16.4556 79.6635 16.46 79.657 16.4657 79.6516C16.4713 79.6462 16.478 79.642 16.4853 79.6392C16.4926 79.6365 16.5003 79.6352 16.5081 79.6356C16.5159 79.6359 16.5236 79.6378 16.5306 79.6412C16.545 79.6483 16.5561 79.6606 16.5617 79.6756C16.5673 79.6906 16.5669 79.7072 16.5606 79.7219L16.4699 79.9291L16.4383 79.96L16.3918 79.9585Z" fill="white"/>
<path d="M16.1116 80.7099L16.1429 80.679L16.1991 80.5505C16.2055 80.5357 16.206 80.5191 16.2004 80.5041C16.1948 80.489 16.1836 80.4767 16.1691 80.4698C16.1621 80.4664 16.1545 80.4645 16.1467 80.4642C16.1389 80.4638 16.1311 80.4651 16.1238 80.4678C16.1165 80.4706 16.1099 80.4748 16.1042 80.4802C16.0986 80.4856 16.0941 80.492 16.0911 80.4992L16.0832 80.5175L16.0737 80.4997C16.0701 80.4928 16.0652 80.4866 16.0592 80.4815C16.0532 80.4765 16.0462 80.4727 16.0387 80.4704C16.0312 80.4681 16.0234 80.4672 16.0156 80.468C16.0077 80.4687 16.0002 80.471 15.9933 80.4747C15.9795 80.4828 15.9694 80.4959 15.9651 80.5113C15.9609 80.5266 15.9627 80.543 15.9704 80.557L16.0374 80.682L16.0916 80.7141L16.1116 80.7099Z" fill="white"/>
<path d="M15.8587 80.3516L15.7488 80.1466C15.7412 80.1326 15.7393 80.1162 15.7436 80.1008C15.7479 80.0854 15.7579 80.0723 15.7717 80.0643C15.7786 80.0606 15.7862 80.0583 15.794 80.0576C15.8018 80.0568 15.8096 80.0576 15.8171 80.0599C15.8246 80.0622 15.8316 80.066 15.8376 80.071C15.8436 80.076 15.8485 80.0822 15.8522 80.0891L15.9621 80.2942C15.9697 80.3082 15.9716 80.3247 15.9673 80.3401C15.963 80.3555 15.9528 80.3685 15.9389 80.3765C15.925 80.3836 15.9088 80.385 15.8938 80.3803C15.8788 80.3757 15.8662 80.3654 15.8587 80.3516ZM15.639 79.9414L15.5291 79.7363C15.5214 79.7224 15.5194 79.7059 15.5237 79.6905C15.528 79.6752 15.5381 79.6621 15.5519 79.6541C15.5588 79.6503 15.5664 79.648 15.5742 79.6473C15.582 79.6465 15.5899 79.6473 15.5974 79.6496C15.6049 79.6519 15.6118 79.6557 15.6178 79.6607C15.6238 79.6658 15.6288 79.6719 15.6324 79.6789L15.7423 79.8841C15.7499 79.8981 15.7518 79.9146 15.7475 79.9299C15.7432 79.9453 15.733 79.9584 15.7191 79.9664C15.7052 79.9735 15.689 79.9748 15.674 79.9701C15.659 79.9655 15.6465 79.9552 15.639 79.9414Z" fill="white"/>
<path d="M15.4934 79.5589C15.5011 79.5554 15.508 79.5504 15.5136 79.5441C15.5193 79.5379 15.5236 79.5305 15.5264 79.5226C15.5292 79.5146 15.5303 79.5061 15.5296 79.4977C15.529 79.4893 15.5267 79.4811 15.5228 79.4736L15.4558 79.3486L15.4072 79.3167L15.3559 79.3416L15.2765 79.4562C15.2674 79.4695 15.2638 79.4857 15.2665 79.5016C15.2691 79.5174 15.2778 79.5316 15.2907 79.5412C15.2969 79.5459 15.304 79.5492 15.3116 79.5511C15.3192 79.553 15.3271 79.5533 15.3347 79.552C15.3424 79.5507 15.3498 79.5479 15.3564 79.5437C15.3629 79.5395 15.3686 79.5341 15.373 79.5276L15.3982 79.4913L15.4195 79.531C15.4262 79.544 15.4375 79.554 15.4511 79.5591C15.4647 79.5643 15.4798 79.5642 15.4934 79.5589Z" fill="white"/>
<path d="M14.7712 80.294C14.7583 80.2844 14.7496 80.2703 14.7469 80.2545C14.7443 80.2386 14.7479 80.2224 14.757 80.2092L14.8871 80.021C14.8915 80.0145 14.8972 80.0091 14.9038 80.0049C14.9103 80.0007 14.9177 79.9979 14.9254 79.9967C14.9331 79.9954 14.9409 79.9957 14.9485 79.9976C14.9561 79.9995 14.9632 80.0029 14.9694 80.0076C14.9823 80.0171 14.991 80.0313 14.9937 80.0471C14.9964 80.0629 14.9928 80.0792 14.9839 80.0925L14.8535 80.2806L14.8277 80.3015L14.7712 80.294ZM15.0317 79.9176C15.0188 79.9081 15.0101 79.8939 15.0074 79.8781C15.0047 79.8623 15.0083 79.846 15.0172 79.8327L15.1476 79.6446C15.1521 79.6382 15.1577 79.6328 15.1643 79.6286C15.1709 79.6244 15.1782 79.6216 15.1859 79.6204C15.1936 79.6191 15.2015 79.6194 15.209 79.6213C15.2166 79.6232 15.2237 79.6265 15.2299 79.6312C15.2428 79.6408 15.2515 79.655 15.2542 79.6708C15.2569 79.6866 15.2534 79.7028 15.2444 79.7161L15.114 79.9042L15.0882 79.925L15.0317 79.9176Z" fill="white"/>
<path d="M14.616 80.6048L14.642 80.584L14.7214 80.4694C14.7304 80.4561 14.7339 80.4398 14.7312 80.424C14.7285 80.4082 14.7198 80.394 14.707 80.3845C14.7007 80.3798 14.6936 80.3764 14.6861 80.3745C14.6785 80.3727 14.6706 80.3723 14.663 80.3736C14.6553 80.3749 14.6479 80.3776 14.6413 80.3818C14.6348 80.386 14.6291 80.3914 14.6247 80.3979L14.6113 80.4172L14.6036 80.3946C14.6013 80.387 14.5975 80.38 14.5924 80.374C14.5873 80.3679 14.581 80.363 14.5739 80.3594C14.5669 80.3558 14.5592 80.3537 14.5513 80.3532C14.5434 80.3526 14.5355 80.3537 14.528 80.3563C14.5205 80.3588 14.5137 80.3629 14.5078 80.3682C14.5019 80.3735 14.4972 80.3799 14.4938 80.3871C14.4905 80.3943 14.4886 80.402 14.4883 80.4099C14.488 80.4178 14.4893 80.4257 14.4922 80.4331L14.5379 80.5676L14.5855 80.6083L14.616 80.6048Z" fill="white"/>
<path d="M14.4937 80.2502C14.4862 80.2526 14.4783 80.2536 14.4705 80.253C14.4626 80.2524 14.455 80.2502 14.448 80.2467C14.4409 80.2431 14.4347 80.2382 14.4296 80.2322C14.4245 80.2262 14.4206 80.2193 14.4182 80.2118L14.343 79.9911C14.3377 79.9761 14.3386 79.9596 14.3454 79.9452C14.3522 79.9308 14.3644 79.9197 14.3793 79.9142C14.3868 79.9118 14.3947 79.9108 14.4025 79.9114C14.4103 79.912 14.418 79.9142 14.425 79.9178C14.432 79.9213 14.4382 79.9262 14.4433 79.9322C14.4484 79.9382 14.4523 79.9451 14.4547 79.9526L14.5296 80.1733C14.5348 80.1878 14.5343 80.2037 14.5281 80.2178C14.522 80.2319 14.5107 80.2431 14.4965 80.2491L14.4937 80.2502ZM14.3435 79.8089C14.3361 79.8114 14.3282 79.8124 14.3203 79.8118C14.3125 79.8112 14.3048 79.809 14.2978 79.8054C14.2908 79.8019 14.2845 79.797 14.2794 79.791C14.2743 79.785 14.2705 79.778 14.2681 79.7705L14.1929 79.5498C14.1876 79.5348 14.1884 79.5183 14.1952 79.5039C14.202 79.4895 14.2142 79.4784 14.2292 79.4729C14.2366 79.4705 14.2445 79.4695 14.2523 79.4702C14.2601 79.4708 14.2678 79.4729 14.2747 79.4765C14.2817 79.4801 14.2879 79.485 14.293 79.4909C14.2981 79.4969 14.302 79.5039 14.3043 79.5113L14.3795 79.732C14.3847 79.7465 14.3842 79.7624 14.378 79.7765C14.3719 79.7906 14.3606 79.8017 14.3464 79.8078L14.3435 79.8089Z" fill="white"/>
<path d="M14.1957 79.3669C14.2098 79.3609 14.2211 79.3496 14.2272 79.3355C14.2334 79.3215 14.2339 79.3056 14.2288 79.2911L14.1831 79.1566L14.1402 79.1169L14.0853 79.1325L13.9883 79.2315L13.9885 79.3175L14.0721 79.3184L14.1029 79.2871L14.1173 79.3297C14.1197 79.3372 14.1236 79.3441 14.1287 79.3501C14.1337 79.3561 14.14 79.361 14.1469 79.3645C14.1539 79.3681 14.1616 79.3703 14.1694 79.3709C14.1772 79.3715 14.1851 79.3706 14.1925 79.3681L14.1957 79.3669Z" fill="white"/>
<path d="M13.6704 79.643L13.6699 79.5572L13.8295 79.3945L13.9131 79.3955L13.9134 79.4813L13.7541 79.644L13.7346 79.657L13.6704 79.643Z" fill="white"/>
<path d="M18.2372 68.0818C18.2369 68.1792 18.1147 68.275 17.9102 68.3581C18.0233 68.3284 18.1329 68.2868 18.2372 68.2338L18.2372 68.0818Z" fill="#FFE1AB"/>
<path d="M18.2372 68.2336C18.1329 68.2866 18.0233 68.3282 17.9102 68.3579V77.1933L17.9927 77.2767L17.994 77.3627L17.974 77.3762L17.9104 77.3627C17.9102 77.3624 17.9102 79.1295 17.9102 79.1295L17.9806 79.2008L17.9819 79.2866L17.9619 79.3003L17.9102 79.2893V83.1404C18.06 82.8924 18.1691 82.622 18.2334 82.3395C18.2337 81.4307 18.234 80.522 18.2344 79.6132L18.2175 79.6096L18.0579 79.4482L18.0566 79.3624L18.1402 79.3622L18.2345 79.4576C18.2347 78.8671 18.2349 78.2769 18.2352 77.6868C18.2296 77.6856 18.07 77.5242 18.07 77.5242L18.0687 77.4382H18.1523L18.2352 77.5221C18.236 75.5334 18.2368 73.5447 18.2376 71.5563L18.2372 68.2336Z" fill="#FFA300"/>
<path d="M18.152 77.4377H18.0684L18.0696 77.5237L18.2293 77.6852C18.2339 77.6308 18.2358 77.5762 18.2349 77.5216L18.152 77.4377Z" fill="#FFE1AB"/>
<path d="M17.9102 77.1929V77.362C17.9104 77.3622 17.974 77.3758 17.974 77.3758L17.994 77.3622L17.9927 77.2763L17.9102 77.1929Z" fill="#FFE1AB"/>
<path d="M18.1402 79.3618L18.0566 79.362L18.0579 79.4478L18.2175 79.6092L18.2345 79.6128C18.2345 79.5611 18.2345 79.5089 18.2345 79.4572L18.1402 79.3618Z" fill="#FFE1AB"/>
<path d="M17.9102 79.1292V79.2889L17.9619 79.2999L17.9819 79.2863L17.9806 79.2004L17.9102 79.1292Z" fill="#FFE1AB"/>
<path d="M14.0718 79.3187L13.9882 79.3178L13.988 79.2318L14.085 79.1328L14.1399 79.1172L14.1828 79.1569L14.2285 79.2913C14.2336 79.3058 14.2331 79.3217 14.2269 79.3358C14.2208 79.3499 14.2095 79.3611 14.1954 79.3672C14.1884 79.3699 14.1811 79.3714 14.1736 79.3715C14.1611 79.3713 14.1488 79.3673 14.1387 79.3598C14.1285 79.3524 14.121 79.342 14.117 79.33L14.1026 79.2874L14.0718 79.3187ZM14.0839 77.3947L14.0003 77.3938L14.0001 77.3078L14.0971 77.2087L14.152 77.1932L14.1949 77.2329L14.2406 77.3674C14.2457 77.3819 14.2451 77.3978 14.2389 77.4119C14.2327 77.426 14.2214 77.4372 14.2072 77.4432C14.2003 77.4459 14.193 77.4473 14.1856 77.4474C14.1731 77.4473 14.1608 77.4432 14.1507 77.4357C14.1406 77.4283 14.133 77.4178 14.1291 77.4059L14.1147 77.3634L14.0839 77.3947ZM13.8021 68.4099V77.5096L13.8405 77.4704L13.9241 77.4715L13.9246 77.5573L13.8021 77.6821V79.4216L13.8287 79.3945L13.9123 79.3955L13.9125 79.4813L13.8021 79.5941V82.9311C13.718 82.791 13.6575 82.638 13.623 82.4783C13.6236 82.4818 13.8545 83.9375 15.9474 83.9375C16.0012 83.9375 16.0559 83.9365 16.1121 83.9346C16.2278 83.9305 16.3431 83.9201 16.4576 83.9034C14.4935 83.8382 14.2708 82.4391 14.2708 82.4391L14.2699 79.7782C14.2671 79.7713 14.192 79.5506 14.192 79.5506C14.1867 79.5355 14.1875 79.519 14.1943 79.5047C14.2011 79.4903 14.2133 79.4791 14.2282 79.4737C14.2342 79.4716 14.2405 79.4705 14.2468 79.4705C14.2548 79.4705 14.2626 79.4722 14.2698 79.4753L14.2693 77.818L14.2041 77.6266C14.1988 77.6116 14.1996 77.5951 14.2064 77.5807C14.2132 77.5663 14.2254 77.5551 14.2403 77.5497C14.2463 77.5476 14.2526 77.5465 14.259 77.5465C14.2692 77.5474 14.2661 68.5264 14.2661 68.5264C14.1078 68.504 13.9523 68.4649 13.8021 68.4099Z" fill="#FFCB57"/>
<path d="M14.2596 77.5466C14.2532 77.5466 14.2469 77.5477 14.2409 77.5498C14.2259 77.5552 14.2137 77.5664 14.2069 77.5808C14.2002 77.5952 14.1993 77.6117 14.2046 77.6267L14.2698 77.8181L14.2697 77.5475L14.2596 77.5466Z" fill="#FFEEC8"/>
<path d="M14.1519 77.1929L14.097 77.2084L14 77.3075L14.0002 77.3935L14.0839 77.3944L14.1146 77.3631L14.1291 77.4055C14.133 77.4175 14.1405 77.4279 14.1506 77.4354C14.1608 77.4428 14.173 77.4469 14.1856 77.4471C14.1919 77.4471 14.1982 77.446 14.2042 77.4439C14.2191 77.4384 14.2312 77.4272 14.238 77.4129C14.2447 77.3985 14.2457 77.3821 14.2405 77.367L14.1948 77.2326L14.1519 77.1929Z" fill="#FFEEC8"/>
<path d="M13.8411 77.4702L13.8027 77.5094V77.6819L13.9252 77.557L13.9247 77.4712L13.8411 77.4702Z" fill="#FFEEC8"/>
<path d="M14.2478 79.47C14.2414 79.47 14.2352 79.471 14.2292 79.4731C14.2142 79.4786 14.202 79.4897 14.1952 79.5041C14.1884 79.5185 14.1876 79.535 14.1929 79.55L14.2681 79.7707C14.2709 79.7776 14.2708 79.4748 14.2708 79.4748C14.2635 79.4716 14.2557 79.47 14.2478 79.47Z" fill="#FFEEC8"/>
<path d="M14.1402 79.1169L14.0853 79.1325L13.9883 79.2316L13.9885 79.3175L14.0721 79.3184L14.1029 79.2871L14.1173 79.3297C14.1213 79.3417 14.1288 79.3521 14.139 79.3596C14.1491 79.367 14.1614 79.3711 14.1739 79.3712C14.1803 79.3712 14.1865 79.3702 14.1925 79.3681C14.2074 79.3625 14.2195 79.3513 14.2263 79.3369C14.233 79.3226 14.2339 79.3061 14.2288 79.2911L14.1831 79.1566L14.1402 79.1169Z" fill="#FFEEC8"/>
<path d="M13.8293 79.3945L13.8027 79.4216V79.5941L13.9131 79.4813L13.9129 79.3955L13.8293 79.3945Z" fill="#FFEEC8"/>
<path d="M18.3755 68.0818C18.3708 68.113 18.3614 68.1434 18.3478 68.1719C18.3228 68.2229 18.2851 68.2666 18.2382 68.2987C18.2377 69.3846 18.2373 70.4705 18.2368 71.5565L18.2376 77.5256L18.311 77.5999L18.3123 77.6859L18.2924 77.6994L18.2376 77.6877L18.2378 79.462L18.299 79.5238L18.3002 79.6098L18.2803 79.6234L18.2378 79.6143L18.2382 82.312C18.2382 82.312 18.2364 82.3217 18.2325 82.3397C18.2325 82.4484 18.2325 82.5569 18.2324 82.6656C18.2923 82.5527 18.3411 82.4343 18.3781 82.312L18.3755 68.0818Z" fill="#E47507"/>
<path d="M18.2383 77.5247L18.2383 77.6869L18.2931 77.6985L18.3131 77.685L18.3118 77.599L18.2383 77.5247Z" fill="#F9DCB2"/>
<path d="M18.2383 79.4617V79.614L18.2807 79.623L18.3007 79.6095L18.2994 79.5235L18.2383 79.4617Z" fill="#F9DCB2"/>
<path d="M18.2351 77.6862C18.2348 78.2767 18.2346 78.8669 18.2344 79.457C18.2386 79.4612 18.2383 77.6869 18.2383 77.6869L18.2351 77.6862ZM18.2375 71.5557C18.2367 73.5444 18.2359 75.5331 18.2351 77.5215C18.2383 77.5247 18.2375 71.5557 18.2375 71.5557Z" fill="#EB8207"/>
<path d="M18.2344 77.5217C18.2344 77.5764 18.2344 77.6318 18.2344 77.6864C18.2376 77.6871 18.2376 77.5249 18.2376 77.5249L18.2344 77.5217Z" fill="#F9C879"/>
<path d="M18.2335 79.613C18.2331 80.5218 18.2328 81.4305 18.2324 82.3393C18.2363 82.3213 18.2381 82.3116 18.2381 82.3116L18.2377 79.6139L18.2335 79.613Z" fill="#EB8207"/>
<path d="M18.2344 79.4573C18.2344 79.509 18.2344 79.5612 18.2344 79.6129C18.2386 79.6138 18.2386 79.4615 18.2386 79.4615L18.2344 79.4573Z" fill="#F9C879"/>
<path d="M13.6211 68.248C13.6211 68.3076 13.6858 68.3621 13.8028 68.4098C13.6863 68.3617 13.6211 68.3074 13.6211 68.248Z" fill="#FFF8DA"/>
<path d="M13.6211 68.248C13.6211 68.2555 13.6221 68.263 13.6241 68.2702C13.6398 68.3226 13.7019 68.3687 13.8028 68.4098C13.6858 68.3621 13.6211 68.3076 13.6211 68.248Z" fill="#FFF0BF"/>
<path d="M13.6211 68.248L13.6237 82.4782C13.6581 82.638 13.7186 82.791 13.8028 82.9311V79.594L13.7539 79.644L13.7344 79.657L13.6703 79.6429L13.6697 79.5571L13.8028 79.4215V77.6821L13.7657 77.7198L13.7462 77.733L13.6821 77.7189L13.6818 77.6331L13.8028 77.5095V68.4098C13.7019 68.3687 13.6398 68.3226 13.6247 68.2724C13.6224 68.2645 13.6211 68.2563 13.6211 68.248Z" fill="#FFDE87"/>
<path d="M13.8026 77.5088L13.6816 77.6323L13.6819 77.7182L13.746 77.7322L13.7655 77.7191L13.8026 77.6813V77.5088Z" fill="#FFF0BF"/>
<path d="M13.803 79.4216L13.6699 79.5572L13.6704 79.643L13.7346 79.6571L13.7541 79.6441L13.803 79.5941V79.4216Z" fill="#FFF0BF"/>
<path d="M17.0147 64.2584C16.6696 63.443 16.057 62.7446 15.454 62.062C15.4821 62.923 15.0551 63.7415 14.7954 64.5743C14.5354 65.4071 14.4776 66.3928 15.1153 67.0285C15.308 67.2297 15.5661 67.3557 15.8433 67.3838L16.1125 67.3601C16.4276 67.2694 16.6995 67.0684 16.8785 66.7938C17.3957 66.0442 17.3597 65.0739 17.0147 64.2584Z" fill="#FFDB26"/>
<path d="M16.1373 67.7421L15.8631 67.7543C14.6135 67.8095 13.6214 68.0481 13.6211 68.2914C13.6208 68.5347 14.6842 68.7166 15.9969 68.6707C17.3095 68.6249 18.3755 68.3829 18.3761 68.1252C18.3763 67.8677 17.3849 67.7128 16.1373 67.7421Z" fill="#FFCB57"/>
<path d="M16.1104 67.8351L15.8911 67.845C14.8916 67.8891 14.0979 68.08 14.0977 68.2745C14.0971 68.4692 14.9481 68.6147 15.9981 68.578C17.0484 68.5414 17.9012 68.3477 17.9015 68.1418C17.9017 67.9357 17.1086 67.8117 16.1104 67.8351Z" fill="#ED9514"/>
<path d="M16.0694 67.9701L15.9293 67.9764C15.2894 68.0046 14.7815 68.1269 14.7813 68.2514C14.781 68.376 15.3257 68.469 15.9977 68.4456C16.6699 68.4221 17.2156 68.2982 17.2156 68.1663C17.2159 68.0345 16.7083 67.9551 16.0694 67.9701Z" fill="#FFA300"/>
<path d="M15.2584 65.8906C15.2765 65.9863 15.3861 66.617 15.8365 66.6769C16.205 66.726 16.5734 66.4832 16.6591 66.1347C16.6819 66.039 16.6836 65.9394 16.6638 65.843C16.5497 65.2729 16.1349 64.666 15.9254 64.3816C15.8538 64.4419 15.1075 65.0918 15.2584 65.8906Z" fill="#FFE578"/>
<path d="M16.0233 68.2694L15.9799 68.2782C15.9499 68.2783 15.921 68.2665 15.8996 68.2453C15.8783 68.2242 15.8662 68.1954 15.8661 68.1653L15.8574 66.1671C15.8573 66.137 15.8691 66.1081 15.8902 66.0868C15.9114 66.0654 15.9401 66.0534 15.9702 66.0532C16.0002 66.0531 16.0291 66.0649 16.0505 66.086C16.0718 66.1072 16.0839 66.1359 16.084 66.166L16.0927 68.1644C16.0928 68.1868 16.0863 68.2087 16.074 68.2274C16.0616 68.2461 16.044 68.2607 16.0233 68.2694Z" fill="#20124C"/>
<path d="M16.759 66.9529C16.5855 67.1459 16.3616 67.2869 16.1125 67.3599L16.0898 67.3619C16.0899 67.3671 16.1246 67.3643 16.1246 67.3643C16.3766 67.3029 16.6002 67.1579 16.759 66.9529Z" fill="#FFE7B0"/>
<path d="M15.9265 63.4124C15.7895 63.6504 15.602 63.9948 15.4046 64.4234C15.2663 64.7201 15.1441 65.024 15.0384 65.3338C14.8204 65.9424 14.77 66.6621 15.2981 67.1245C15.4555 67.2662 15.6534 67.3548 15.8639 67.378L15.8608 66.6795C15.8531 66.6787 15.8453 66.6778 15.8376 66.6768C15.3958 66.618 15.282 66.0106 15.2606 65.8967C15.2465 65.8235 15.2394 65.7492 15.2394 65.6746C15.2399 64.9774 15.8615 64.4363 15.9264 64.3815C16.136 64.6659 16.5508 65.2728 16.6649 65.8429C16.6844 65.9393 16.6828 66.0388 16.6602 66.1346C16.6233 66.2676 16.5502 66.3878 16.4491 66.4818C16.348 66.5758 16.2228 66.6398 16.0874 66.6668L16.0904 67.3619L16.1131 67.3599C16.3622 67.2869 16.586 67.1459 16.7595 66.9529C17.1936 66.4003 17.1662 65.692 16.8818 65.0976C16.7299 64.7802 16.6126 64.7766 16.3171 64.2612C16.1619 63.9904 16.0312 63.7064 15.9265 63.4124Z" fill="#FFD33D"/>
<path d="M16.665 65.8513C16.6831 65.9452 16.6809 66.0418 16.6585 66.1348C16.6217 66.2678 16.5487 66.388 16.4476 66.482C16.3465 66.576 16.2213 66.64 16.0859 66.667C16.2213 66.64 16.3465 66.5759 16.4477 66.482C16.5488 66.388 16.6218 66.2678 16.6587 66.1348C16.681 66.0418 16.6831 65.9452 16.665 65.8513Z" fill="#FFD968"/>
<path d="M16.0859 66.6663C16.0351 66.677 15.9834 66.6825 15.9315 66.6825C15.9075 66.6825 15.8835 66.6813 15.8594 66.679L15.8624 67.3774C15.8749 67.379 15.8874 67.3804 15.9 67.3816L16.089 67.3665C16.0889 67.3614 16.0859 66.6663 16.0859 66.6663Z" fill="#896951"/>
<path d="M15.2598 65.8967C15.2812 66.0106 15.3949 66.618 15.8367 66.6768C15.3952 66.618 15.2812 66.0106 15.2598 65.8967Z" fill="#FFDA55"/>
<path d="M15.9254 64.3816C15.8604 64.4364 15.2388 64.9775 15.2383 65.6747C15.2382 65.7472 15.2449 65.8195 15.2584 65.8906C15.2809 66.0107 15.3949 66.6182 15.8365 66.6769C15.8442 66.6779 15.852 66.6788 15.8597 66.6796L15.8575 66.1673C15.8574 66.1373 15.8692 66.1084 15.8903 66.087C15.9115 66.0657 15.9402 66.0536 15.9703 66.0535C16.0003 66.0533 16.0292 66.0651 16.0506 66.0863C16.0719 66.1074 16.084 66.1362 16.0841 66.1662L16.0863 66.6669C16.2217 66.6399 16.3469 66.5759 16.4479 66.4819C16.549 66.3879 16.622 66.2677 16.6588 66.1347C16.6813 66.0418 16.6835 65.9451 16.6654 65.8512C16.5497 65.2729 16.1349 64.666 15.9254 64.3816Z" fill="#FFDE6E"/>
<path d="M15.9707 66.0532C15.9557 66.0532 15.941 66.0562 15.9272 66.0619C15.9134 66.0676 15.9009 66.076 15.8904 66.0866C15.8799 66.0972 15.8715 66.1098 15.8659 66.1236C15.8602 66.1374 15.8573 66.1522 15.8574 66.1671L15.8596 66.6794C15.8837 66.6818 15.9078 66.683 15.9317 66.683C15.9836 66.6829 16.0354 66.6775 16.0862 66.6667L16.084 66.166C16.0839 66.136 16.0719 66.1073 16.0507 66.0862C16.0294 66.065 16.0006 66.0532 15.9707 66.0532Z" fill="#B89B61"/>
</g>
<path d="M48.2734 69.8204V72.5943C48.2734 72.8913 48.7338 72.8913 48.7338 72.5943V69.8204C48.7338 69.5234 48.2734 69.5234 48.2734 69.8204Z" fill="#864328"/>
<path d="M48.5202 63.9932C48.5202 63.9932 43.3222 70.7496 48.7803 70.7496C48.7803 70.7496 53.1979 70.2317 48.5202 63.9932Z" fill="#FF7900"/>
<path opacity="0.5" d="M48.5021 66.134C48.5021 66.134 45.8133 69.6285 48.6356 69.6285C48.6356 69.6285 50.9192 69.3592 48.5021 66.134Z" fill="#FFFF4A"/>
<path d="M52.3645 74.0483H44.5859V89H52.3645V74.0483Z" fill="#F2453E"/>
<g style="mix-blend-mode:multiply">
<path d="M44.582 77.0087C44.582 77.5888 45.8274 77.0179 45.9609 76.9373C46.3776 76.6795 46.6953 76.2674 47.1948 76.5782C47.9407 77.0455 47.6921 78.5119 47.9062 79.237C48.1087 79.9184 48.7326 80.2039 49.3518 79.8471C50.2496 79.3291 49.8882 78.3254 49.9688 77.4921C50.0056 77.1076 50.1092 76.5206 50.5719 76.4124C51.2925 76.2444 51.4352 77.2964 51.9554 77.4161C52.1235 77.4552 52.257 77.4276 52.3606 77.3517V74.0505H44.582V77.011V77.0087Z" fill="#F2453E"/>
</g>
<path d="M44.2249 72.4263C43.8727 73.598 44.1582 76.5285 45.5647 76.1786C46.2346 76.0105 46.2645 74.7697 47.0956 74.8664C48.1062 74.9838 47.6872 76.4617 47.7908 77.0764C47.8806 77.6197 48.6057 79.0055 49.3055 78.529C50.0905 77.9949 49.3355 74.97 50.6476 75.0022C51.3175 75.0184 51.771 76.586 52.4777 76.3259C53.0187 76.1279 52.8369 74.7559 52.7977 74.337C52.7747 74.0837 52.3442 72.592 52.48 72.4286H44.2249V72.4263Z" fill="#F2453E"/>
<defs>
<clipPath id="clip0_14345_368257">
<rect width="54.5188" height="81.7156" fill="white"/>
</clipPath>
</defs>
</svg>
