<svg width="92" height="59" viewBox="0 0 92 59" fill="none" xmlns="http://www.w3.org/2000/svg">
<g clip-path="url(#clip0_14345_367941)">
<path d="M90.4593 49.3784L90.422 49.484C89.6452 51.5347 88.6324 53.4051 87.402 55.0953V55.1077C84.5995 59.0039 80.7343 61.9059 76.3783 63.5526C71.0964 65.5722 65.0936 65.7461 59.3767 63.6209C53.6661 61.4958 49.2292 57.438 46.551 52.4481C45.4946 50.5404 44.7116 48.4774 44.2269 46.3273C43.6739 43.9039 43.4875 41.3934 43.7174 38.8518C43.8976 36.7701 44.3637 34.6822 45.1156 32.6254L45.1528 32.5322C45.7805 30.8482 46.5758 29.2823 47.5079 27.8282C48.4028 26.4424 49.4281 25.1686 50.5715 24.019C51.6962 22.8632 52.939 21.8254 54.2688 20.9368C60.5139 16.7113 68.6294 15.4747 76.2292 18.3021C81.8964 20.4086 86.2959 24.4042 88.9928 29.3195C89.9187 30.9973 90.6457 32.7932 91.1366 34.645C91.5654 36.186 91.8326 37.7768 91.9382 39.3863C92.0439 40.9957 91.9879 42.6238 91.7518 44.2518V44.2643C91.5157 45.9793 91.0931 47.6944 90.4655 49.3784H90.4593Z" fill="#E43D19"/>
<path d="M72.0214 11.5402L70.0352 16.8811L81.8585 21.2782L83.8447 15.9373L72.0214 11.5402Z" fill="#FBAC54"/>
<path d="M76.6138 17.2647C74.1034 16.3326 77.1234 7.99959 77.1544 7.91259C77.6143 6.68221 79 2.94137 81.585 3.90454C84.1701 4.86772 82.7781 8.60235 82.3183 9.83272C82.2872 9.91972 79.1305 18.1968 76.6138 17.2647ZM80.945 5.6134C80.4044 5.41455 79.609 6.53929 78.8633 8.54642C77.9312 11.0507 77.4341 13.7911 77.4216 15.0836C78.2605 14.0955 79.6773 11.6969 80.6032 9.19268C81.3489 7.18555 81.4794 5.81225 80.945 5.60719V5.6134Z" fill="#FBAC54"/>
<path d="M90.4586 49.3845C85.8043 61.8996 71.891 68.269 59.376 63.6146C51.4469 60.663 45.9848 53.9953 44.2324 46.321C46.1463 48.4711 48.2964 50.3601 51.0741 51.895C56.9215 55.1263 63.9185 56.2386 70.4743 54.9772C73.7118 54.3558 76.8685 53.1627 79.5654 51.2674C85.6862 46.9673 88.9175 39.3116 89.048 31.8299C89.0666 30.991 89.048 30.1521 88.992 29.3132C92.2544 35.2538 93.0063 42.5242 90.4586 49.3783V49.3845Z" fill="#BE2712"/>
<path d="M91.9328 39.3916L85.1036 42.1071L79.9335 32.1585L69.525 36.3219L64.3612 26.367L53.9465 30.5304L50.5723 24.0181C51.697 22.8623 52.9398 21.8245 54.2696 20.9359L56.1587 24.5711L66.5734 20.4202L71.7372 30.375L82.1457 26.2116L87.3096 36.1665L91.1312 34.6441C91.56 36.1851 91.8272 37.7759 91.9328 39.3854V39.3916Z" fill="#EDE2CC"/>
<path d="M91.7391 44.2632V44.2507L91.6148 43.9276L83.1699 47.2956L77.9999 37.347L67.5976 41.5041L62.4275 31.5555L52.0128 35.7065L47.8308 27.6531L47.5076 27.8209C46.5755 29.2749 45.7801 30.8347 45.1525 32.5249L45.1152 32.6181L49.8006 41.6595L60.2153 37.5085L65.3854 47.4572L75.7939 43.2938L80.9577 53.2486L90.4155 49.4829L91.7391 44.2632Z" fill="#EDE2CC"/>
<path d="M87.3958 55.107C84.5995 59.0032 80.7281 61.9051 76.3721 63.5518L71.6432 54.4358L61.2347 58.5992L56.0709 48.6444L46.551 52.4474C45.4946 50.5397 44.7116 48.4766 44.2269 46.3265C43.6739 43.9031 43.4875 41.3926 43.7174 38.8511L47.8684 46.8547L58.2893 42.6913L63.4531 52.6462L73.8616 48.4828L79.0255 58.4377L87.3958 55.1007V55.107Z" fill="#EDE2CC"/>
<path d="M91.9327 39.3918L87.1914 41.2747C87.906 39.4539 88.4218 37.5462 88.7263 35.6075L91.1373 34.6443C91.1435 34.6816 91.156 34.7251 91.1622 34.7624C91.2367 35.0047 91.2989 35.2533 91.3548 35.5018C91.4232 35.738 91.4791 35.9741 91.5102 36.2164C91.5474 36.3718 91.5723 36.5271 91.5971 36.6763C91.6406 36.8813 91.6842 37.0864 91.7028 37.2977C91.7525 37.5773 91.796 37.8569 91.8209 38.1304C91.8333 38.1925 91.8333 38.2546 91.8333 38.3168C91.8706 38.6275 91.9016 38.9382 91.9203 39.2427C91.9203 39.2924 91.9327 39.3421 91.9389 39.3918H91.9327Z" fill="#DACCB3"/>
<path d="M90.4223 49.4834L80.9646 53.2491L79.8398 51.0805C81.4368 49.9246 82.8288 48.5327 84.0157 46.973L91.6216 43.9343L91.7521 44.2575V44.2699L90.4285 49.4897L90.4223 49.4834Z" fill="#DACCB3"/>
<path d="M87.3948 55.1072C86.5248 56.3189 85.5492 57.4499 84.4804 58.4566C84.2256 58.6927 83.9709 58.9351 83.7099 59.1588C83.4116 59.4197 83.1133 59.6621 82.8088 59.9107C80.8638 61.4517 78.6889 62.6821 76.3773 63.5521L71.7852 54.7033C73.3324 54.3242 74.8362 53.8085 76.2717 53.156L79.0245 58.4504L87.3948 55.1134V55.1072Z" fill="#DACCB3"/>
<path d="M70.1405 55.045L61.2483 58.6057L59.3281 54.9146C62.8763 55.6354 66.5737 55.6913 70.1405 55.0513V55.045Z" fill="#DACCB3"/>
<path d="M49.8133 51.1485L46.551 52.4534C45.8426 51.1796 45.2709 49.8436 44.8172 48.4578C44.7365 48.2279 44.6681 47.9856 44.5998 47.7556C44.5376 47.5444 44.4817 47.3393 44.4258 47.128C44.345 46.8608 44.2891 46.5998 44.2207 46.3264C45.8363 48.1347 47.6136 49.769 49.8071 51.1485H49.8133Z" fill="#DACCB3"/>
<path d="M29.666 25.808C31.3251 29.1511 32.3318 32.9728 32.8848 36.869C34.7056 49.558 31.8347 62.9865 31.8347 62.9865C31.8347 62.9865 25.2913 59.923 18.257 54.7529C15.5974 52.8017 12.8633 50.546 10.3963 48.0418C7.62483 45.2392 5.18893 42.1322 3.52979 38.7891C2.65982 37.0367 2.04464 35.303 1.64072 33.6004C0.39792 28.4987 1.02554 23.7387 2.15649 19.9482C2.52312 18.6991 2.67225 17.4253 2.58526 16.1949C2.49205 14.9583 2.17513 13.7652 1.62208 12.6467L9.99237 8.4895C11.0985 10.7079 13.0435 12.4043 15.4856 13.324C19.1891 14.7097 23.3587 17.0897 26.677 21.1599C27.7831 22.5146 28.796 24.0494 29.666 25.8018V25.808Z" fill="#536410"/>
<path d="M29.6657 25.8084C31.3249 29.1515 32.3315 32.9731 32.8846 36.8693C34.7053 49.5584 31.8344 62.9869 31.8344 62.9869C31.8344 62.9869 25.291 59.9234 18.2568 54.7533C19.9781 44.8295 21.4073 24.3729 7.73021 11.2675C7.33251 10.8947 6.95967 10.5281 6.60547 10.1739L9.9859 8.49609C11.092 10.7145 13.037 12.4109 15.4791 13.3306C19.1827 14.7163 23.3523 17.0963 26.6706 21.1665C27.7766 22.5211 28.7895 24.056 29.6595 25.8084H29.6657Z" fill="#434E03"/>
<path d="M8.83609 5.86375L0.220703 10.1423L2.15546 14.0382L10.7708 9.75959L8.83609 5.86375Z" fill="#EDE2CC"/>
<path d="M5.80415 10.5718C3.97722 11.4853 0.919923 5.45769 0.888853 5.39555C0.441443 4.50073 -0.913214 1.77278 0.969635 0.840673C2.85248 -0.0914308 4.20714 2.63031 4.64834 3.52513C4.67941 3.58727 7.63107 9.66459 5.80415 10.5718ZM1.59104 2.08348C1.19955 2.27611 1.40462 3.30764 2.13787 4.77415C3.04512 6.60107 4.30657 8.30372 5.02118 8.98726C4.90933 8.00544 4.31278 5.96724 3.40553 4.14032C2.67849 2.67381 1.98252 1.88463 1.59104 2.08348Z" fill="#EDE2CC"/>
<path d="M29.6655 25.808C30.7095 27.9146 31.4987 30.2076 32.0704 32.6C32.2257 33.2462 32.3748 33.9049 32.5053 34.5636C32.6545 35.3279 32.785 36.0985 32.8906 36.8752L10.402 48.048C9.86143 47.4888 9.32081 46.9233 8.80504 46.3392C8.35142 45.842 7.91022 45.3263 7.49388 44.8105C5.93416 42.9152 4.5795 40.9019 3.53555 38.7953C3.34291 38.4039 3.16271 38.0186 2.99493 37.6333C2.72772 37.0181 2.48538 36.4029 2.2741 35.794C2.02554 35.0607 1.81426 34.3275 1.64648 33.6066L26.6828 21.1724C27.1551 21.7441 27.6149 22.353 28.0374 22.9993C28.3979 23.5337 28.7458 24.093 29.0752 24.6833C29.2865 25.0437 29.4791 25.4228 29.6717 25.8142L29.6655 25.808Z" fill="#E43D19"/>
<path d="M9.09862 39.2859C10.0929 41.2868 9.37204 43.6792 7.48919 44.8039C5.92947 42.9087 4.57481 40.8953 3.53085 38.7888C3.33822 38.3973 3.15801 38.012 2.99023 37.6267C3.12694 37.5335 3.26365 37.4527 3.419 37.3782C5.51934 36.3342 8.05466 37.198 9.09241 39.2859H9.09862Z" fill="#FBAC54"/>
<path d="M21.6941 33.0348C22.7381 35.1289 21.8806 37.6767 19.7864 38.7144C17.6923 39.7584 15.1446 38.9008 14.1068 36.8067C13.0629 34.7126 13.9204 32.1648 16.0145 31.1271C18.1087 30.0831 20.6564 30.9407 21.6941 33.0348Z" fill="#FBAC54"/>
<path d="M29.667 25.8077C30.7109 27.9143 31.5001 30.2073 32.0718 32.5997C30.0398 33.4199 27.6971 32.5437 26.7029 30.549C25.6651 28.4611 26.5102 25.9134 28.6106 24.8756C28.7659 24.8011 28.9151 24.7327 29.0704 24.6892C29.2817 25.0496 29.4743 25.4287 29.667 25.8202V25.8077Z" fill="#FBAC54"/>
<path d="M28.0316 22.9932L2.26824 35.7879C2.01968 35.0546 1.8084 34.3213 1.64062 33.6005L26.6769 21.1663C27.1492 21.738 27.609 22.3469 28.0316 22.9932Z" fill="#EDE2CC"/>
<path d="M32.4991 34.5574C32.6483 35.3217 32.7787 36.0922 32.8844 36.869L10.3958 48.0418C9.85521 47.4825 9.31459 46.9171 8.79883 46.3329L32.4991 34.5574Z" fill="#EDE2CC"/>
</g>
<defs>
<clipPath id="clip0_14345_367941">
<rect width="91.98" height="64.4954" fill="white" transform="translate(0 0.647461)"/>
</clipPath>
</defs>
</svg>
