<svg width="174" height="157" viewBox="0 0 174 157" fill="none" xmlns="http://www.w3.org/2000/svg">
<g clip-path="url(#clip0_14348_322534)">
<path d="M91.5491 41.6595L135.131 43.5547L133.236 87.1365L89.6539 85.2413L91.5491 41.6595Z" fill="#D4302E"/>
<path fill-rule="evenodd" clip-rule="evenodd" d="M135.133 43.5364L132.132 43.4114L89.7844 82.2207L89.6594 85.2214L91.0972 85.2839L135.07 44.9742L135.133 43.5364ZM126.218 43.1488L90.0345 76.3068L90.2345 71.8557L121.78 42.9488L126.231 43.1488H126.218ZM115.866 42.6987L90.4846 65.9543L90.6846 61.5032L111.427 42.4986L115.878 42.6987H115.866ZM105.513 42.2486L90.9347 55.6018L91.1222 51.1632L101.062 42.061L105.513 42.2611V42.2486ZM95.1607 41.7985L91.5473 41.6484L91.3848 45.2618L95.1482 41.811L95.1607 41.7985ZM96.9986 85.5465L134.808 50.8882L134.62 55.3392L101.45 85.734L96.9986 85.534V85.5465ZM107.351 85.9966L134.358 61.2532L134.158 65.6917L111.79 86.1967L107.339 86.0091L107.351 85.9966ZM117.704 86.4467L133.908 71.5931L133.707 76.0442L122.142 86.6468L117.691 86.4467H117.704ZM128.056 86.8968L132.507 87.0969L133.27 86.3967L133.47 81.9581L128.069 86.9093L128.056 86.8968Z" fill="#830B1B"/>
<path fill-rule="evenodd" clip-rule="evenodd" d="M94.9476 41.7868L91.5468 41.6367L89.6463 85.2222L133.232 87.1227L134.207 64.7173C130.656 67.5554 125.755 69.9185 119.066 70.5062C99.6862 72.2191 94.9351 58.8784 94.9476 41.7868Z" fill="#D4302E"/>
<path fill-rule="evenodd" clip-rule="evenodd" d="M105.1 68.1681L89.7714 82.209L89.6463 85.2097L91.0842 85.2722L108.238 69.5434C107.101 69.1683 106.05 68.7057 105.088 68.1556L105.1 68.1681ZM94.9476 41.7868V41.9868L91.3842 45.2501L91.5468 41.6367L94.9476 41.7868ZM95.1476 47.4881C95.2477 48.8134 95.3852 50.1138 95.5727 51.3641L90.9341 55.6026L91.1217 51.164L95.1351 47.4881H95.1476ZM96.5605 56.1277C96.8731 57.2655 97.2481 58.3407 97.6732 59.3785L90.484 65.9676L90.6841 61.5165L96.573 56.1277H96.5605ZM99.7112 63.1669C100.311 64.0421 100.974 64.8548 101.724 65.5925L90.0339 76.3076L90.234 71.8565L99.7237 63.1669H99.7112ZM113.352 70.5562C114.79 70.6812 116.328 70.6937 117.978 70.5937L101.449 85.7473L96.9981 85.5473L113.352 70.5562ZM125.642 69.2309L107.351 85.9974L111.802 86.1849L134.17 65.68L134.207 64.7048C131.944 66.5177 129.131 68.1306 125.642 69.2183V69.2309ZM117.703 86.4475L133.907 71.5939L133.707 76.045L122.142 86.6475L117.691 86.4475H117.703ZM128.056 86.8976L133.457 81.9464L133.257 86.385L132.494 87.0851L128.043 86.8851L128.056 86.8976Z" fill="#830B1B"/>
<path fill-rule="evenodd" clip-rule="evenodd" d="M89.0317 41.4991L88.7191 48.7758L95.2832 49.0634C95.0456 46.6628 94.9331 44.1497 94.9456 41.5491C92.9951 41.1865 91.0072 41.199 89.0317 41.4991Z" fill="#FFCB00"/>
<path fill-rule="evenodd" clip-rule="evenodd" d="M94.9476 41.7863L91.5468 41.6362L89.6463 85.2217L133.232 87.1222L134.207 64.7168C130.656 67.555 125.755 69.918 119.066 70.5057C99.6862 72.2186 94.9351 58.8779 94.9476 41.7863Z" fill="#9A1C1D"/>
<path fill-rule="evenodd" clip-rule="evenodd" d="M105.1 68.1676L89.7714 82.2085L89.6463 85.2092L91.0842 85.2717L108.238 69.5429C107.101 69.1678 106.05 68.7052 105.088 68.1551L105.1 68.1676ZM94.9476 41.7863V41.9863L91.3842 45.2496L91.5468 41.6362L94.9476 41.7863ZM95.1476 47.4876C95.2477 48.813 95.3852 50.1133 95.5727 51.3636L90.9341 55.6021L91.1217 51.1635L95.1351 47.4876H95.1476ZM96.5605 56.1272C96.8731 57.265 97.2481 58.3402 97.6732 59.378L90.484 65.9671L90.6841 61.516L96.573 56.1272H96.5605ZM99.7112 63.1664C100.311 64.0416 100.974 64.8543 101.724 65.592L90.0339 76.3071L90.234 71.856L99.7237 63.1664H99.7112ZM113.352 70.5557C114.79 70.6807 116.328 70.6932 117.978 70.5932L101.449 85.7468L96.9981 85.5468L113.352 70.5557ZM125.642 69.2304L107.351 85.9969L111.802 86.1844L134.17 65.6795L134.207 64.7043C131.944 66.5172 129.131 68.1301 125.642 69.2179V69.2304ZM117.703 86.447L133.907 71.5934L133.707 76.0445L122.142 86.647L117.691 86.447H117.703ZM128.056 86.8971L133.457 81.9459L133.257 86.3845L132.494 87.0847L128.043 86.8846L128.056 86.8971Z" fill="#6B0715"/>
<path d="M49.0962 12.8257L88.1562 32.2493L68.7327 71.3093L29.6726 51.8857L49.0962 12.8257Z" fill="#FFCB00"/>
<path fill-rule="evenodd" clip-rule="evenodd" d="M88.1465 32.2595L84.008 30.209C77.4814 40.824 66.5788 43.8373 51.5002 42.1619C44.8486 41.4242 40.3475 39.0611 37.3343 36.4855L29.6699 51.9017L68.7293 71.3314L88.1465 32.272V32.2595Z" fill="#B78F00"/>
<path fill-rule="evenodd" clip-rule="evenodd" d="M88.1465 32.259L85.4583 30.9212L31.0078 49.2006L29.6699 51.8887L30.9578 52.5389L87.5088 33.5593L88.1465 32.259ZM80.1696 28.2831L33.6459 43.8993L35.6339 39.9109L76.1936 26.2951L80.1821 28.2706L80.1696 28.2831ZM70.8798 23.6694L38.247 34.6221L40.2225 30.6336L66.8914 21.6815L70.8798 23.6569V23.6694ZM61.6026 19.0558L42.8606 25.3449L44.8361 21.3564L57.6141 17.0679L61.6026 19.0433V19.0558ZM52.3254 14.4422L49.0871 12.8293L47.4742 16.0676L52.3254 14.4422ZM36.259 55.1645L84.8832 38.8356L82.9077 42.8241L40.26 57.14L36.2715 55.152L36.259 55.1645ZM45.5362 59.7781L80.2696 48.1128L78.2816 52.1013L49.5247 61.7536L45.5362 59.7781ZM54.8135 64.3917L75.6435 57.3901L73.668 61.3785L58.8019 66.3672L54.8135 64.3917ZM64.0907 69.0053L68.0792 70.9808L69.0544 70.6557L71.0424 66.6673L64.1032 68.9928L64.0907 69.0053Z" fill="#251451"/>
<path d="M47.6484 10.0833L91.209 31.7449L87.1728 39.8614L43.6123 18.1998L47.6484 10.0833Z" fill="#251451"/>
<path d="M50.841 11.6663L91.2109 31.7412L88.6055 36.9806L48.2356 16.9056L50.841 11.6663Z" fill="#2B295B"/>
<path d="M157.535 11.6052L197.941 28.0454L181.501 68.4519L141.095 52.0116L157.535 11.6052Z" fill="#00654B"/>
<path fill-rule="evenodd" clip-rule="evenodd" d="M163.089 13.8675L157.55 11.6169L141.109 52.0267L181.518 68.4556L190.133 47.288C166.702 40.2363 161.588 27.4082 163.089 13.88V13.8675Z" fill="#004E38"/>
<path fill-rule="evenodd" clip-rule="evenodd" d="M193.134 28.1836C192.484 27.921 191.747 28.2336 191.484 28.8837C191.221 29.5339 191.534 30.2716 192.184 30.5341C192.834 30.7967 193.572 30.4841 193.835 29.834C194.097 29.1838 193.785 28.4461 193.134 28.1836ZM144.485 43.7123L144.16 44.525C144.148 45.0376 144.448 45.5377 144.948 45.7378C145.598 46.0004 146.336 45.6878 146.598 45.0376C146.861 44.3875 146.548 43.6498 145.898 43.3872C145.398 43.1872 144.835 43.3247 144.485 43.6998V43.7123ZM148.486 33.8599L148.149 34.6726C148.136 35.1853 148.436 35.6854 148.936 35.8854C149.586 36.148 150.324 35.8354 150.587 35.1853C150.849 34.5351 150.537 33.7974 149.886 33.5349C149.386 33.3348 148.824 33.4723 148.474 33.8474L148.486 33.8599ZM152.487 24.0201L152.15 24.8328C152.137 25.3454 152.437 25.8455 152.937 26.0456C153.587 26.3081 154.325 25.9955 154.588 25.3454C154.85 24.6952 154.538 23.9576 153.887 23.695C153.387 23.4949 152.825 23.6325 152.475 24.0076L152.487 24.0201ZM151.762 45.7753C151.112 45.5127 150.374 45.8253 150.112 46.4755C149.849 47.1256 150.162 47.8633 150.812 48.1259C151.462 48.3884 152.2 48.0759 152.462 47.4257C152.725 46.7755 152.412 46.0379 151.762 45.7753ZM155.775 35.9354C155.125 35.6729 154.388 35.9854 154.125 36.6356C153.862 37.2858 154.175 38.0234 154.825 38.286C155.475 38.5486 156.213 38.236 156.476 37.5858C156.738 36.9357 156.426 36.198 155.775 35.9354ZM159.776 26.0831C159.126 25.8205 158.389 26.1331 158.126 26.7832C157.863 27.4334 158.176 28.1711 158.826 28.4336C159.476 28.6962 160.214 28.3836 160.477 27.7335C160.739 27.0833 160.426 26.3456 159.776 26.0831ZM157.638 48.1634C156.988 47.9008 156.25 48.2134 155.988 48.8635C155.725 49.5137 156.038 50.2514 156.688 50.5139C157.338 50.7765 158.076 50.4639 158.338 49.8138C158.601 49.1636 158.288 48.4259 157.638 48.1634ZM161.639 38.3235C160.989 38.0609 160.251 38.3735 159.989 39.0237C159.726 39.6738 160.039 40.4115 160.689 40.6741C161.339 40.9366 162.077 40.6241 162.339 39.9739C162.602 39.3238 162.289 38.5861 161.639 38.3235ZM165.64 28.4711C164.99 28.2086 164.252 28.5212 163.99 29.1713C163.727 29.8215 164.04 30.5591 164.69 30.8217C165.34 31.0843 166.078 30.7717 166.34 30.1215C166.603 29.4714 166.29 28.7337 165.64 28.4711ZM163.502 50.5515C162.852 50.2889 162.114 50.6015 161.852 51.2516C161.589 51.9018 161.902 52.6395 162.552 52.902C163.202 53.1646 163.94 52.852 164.202 52.2019C164.465 51.5517 164.152 50.814 163.502 50.5515ZM167.516 40.7116C166.866 40.449 166.128 40.7616 165.865 41.4118C165.603 42.0619 165.915 42.7996 166.565 43.0622C167.216 43.3247 167.953 43.0121 168.216 42.362C168.478 41.7118 168.166 40.9741 167.516 40.7116ZM171.517 30.8592C170.867 30.5967 170.129 30.9092 169.866 31.5594C169.604 32.2095 169.916 32.9472 170.566 33.2098C171.217 33.4723 171.954 33.1598 172.217 32.5096C172.479 31.8595 172.167 31.1218 171.517 30.8592ZM169.379 52.9395C168.728 52.677 167.991 52.9895 167.728 53.6397C167.466 54.2898 167.778 55.0275 168.428 55.2901C169.079 55.5527 169.816 55.2401 170.079 54.5899C170.341 53.9398 170.029 53.2021 169.379 52.9395ZM173.38 43.0997C172.729 42.8371 171.992 43.1497 171.729 43.7998C171.467 44.45 171.779 45.1877 172.429 45.4502C173.08 45.7128 173.817 45.4002 174.08 44.7501C174.342 44.0999 174.03 43.3622 173.38 43.0997ZM177.393 33.2473C176.743 32.9847 176.005 33.2973 175.743 33.9475C175.48 34.5976 175.793 35.3353 176.443 35.5979C177.093 35.8604 177.831 35.5478 178.093 34.8977C178.356 34.2475 178.043 33.5099 177.393 33.2473ZM175.243 55.3276C174.592 55.065 173.855 55.3776 173.592 56.0278C173.33 56.6779 173.642 57.4156 174.292 57.6782C174.942 57.9407 175.68 57.6282 175.943 56.978C176.205 56.3278 175.893 55.5902 175.243 55.3276ZM179.256 45.4877C178.606 45.2252 177.868 45.5377 177.606 46.1879C177.343 46.8381 177.656 47.5757 178.306 47.8383C178.956 48.1009 179.694 47.7883 179.956 47.1381C180.219 46.488 179.906 45.7503 179.256 45.4877ZM183.257 35.6354C182.607 35.3728 181.869 35.6854 181.607 36.3355C181.344 36.9857 181.657 37.7234 182.307 37.9859C182.957 38.2485 183.695 37.9359 183.957 37.2858C184.22 36.6356 183.907 35.8979 183.257 35.6354ZM181.119 57.7157C180.469 57.4531 179.731 57.7657 179.469 58.4158C179.206 59.066 179.519 59.8037 180.169 60.0662C180.819 60.3288 181.557 60.0162 181.819 59.3661C182.082 58.7159 181.769 57.9782 181.119 57.7157ZM185.12 47.8758C184.47 47.6132 183.732 47.9258 183.47 48.576C183.207 49.2261 183.52 49.9638 184.17 50.2264C184.82 50.4889 185.558 50.1764 185.82 49.5262C186.083 48.876 185.77 48.1384 185.12 47.8758ZM189.121 38.0234C188.471 37.7609 187.733 38.0735 187.47 38.7236C187.208 39.3738 187.521 40.1114 188.171 40.374C188.821 40.6366 189.558 40.324 189.821 39.6738C190.084 39.0237 189.771 38.286 189.121 38.0234ZM146.873 49.5262C146.223 49.2636 145.485 49.5762 145.223 50.2264C144.96 50.8765 145.273 51.6142 145.923 51.8768C146.573 52.1393 147.311 51.8268 147.573 51.1766C147.836 50.5264 147.523 49.7888 146.873 49.5262ZM150.874 39.6738C150.224 39.4113 149.486 39.7238 149.224 40.374C148.961 41.0242 149.274 41.7618 149.924 42.0244C150.574 42.287 151.312 41.9744 151.574 41.3242C151.837 40.6741 151.524 39.9364 150.874 39.6738ZM154.888 29.834C154.238 29.5714 153.5 29.884 153.237 30.5341C152.975 31.1843 153.287 31.922 153.937 32.1845C154.588 32.4471 155.325 32.1345 155.588 31.4844C155.85 30.8342 155.538 30.0965 154.888 29.834ZM158.889 19.9941C158.238 19.7315 157.501 20.0441 157.238 20.6943C156.976 21.3444 157.288 22.0821 157.938 22.3447C158.589 22.6072 159.326 22.2947 159.589 21.6445C159.851 20.9943 159.539 20.2567 158.889 19.9941ZM152.75 51.9143C152.099 51.6517 151.362 51.9643 151.099 52.6144C150.837 53.2646 151.149 54.0023 151.799 54.2648C152.45 54.5274 153.187 54.2148 153.45 53.5647C153.712 52.9145 153.4 52.1768 152.75 51.9143ZM156.751 42.0619C156.1 41.7993 155.363 42.1119 155.1 42.7621C154.838 43.4122 155.15 44.1499 155.8 44.4125C156.451 44.675 157.188 44.3625 157.451 43.7123C157.713 43.0622 157.401 42.3245 156.751 42.0619ZM160.752 32.222C160.101 31.9595 159.364 32.2721 159.101 32.9222C158.839 33.5724 159.151 34.31 159.801 34.5726C160.451 34.8352 161.189 34.5226 161.452 33.8724C161.714 33.2223 161.402 32.4846 160.752 32.222ZM164.753 22.3822C164.102 22.1196 163.365 22.4322 163.102 23.0823C162.84 23.7325 163.152 24.4702 163.802 24.7327C164.452 24.9953 165.19 24.6827 165.453 24.0326C165.715 23.3824 165.403 22.6447 164.753 22.3822ZM158.614 54.3024C157.963 54.0398 157.226 54.3524 156.963 55.0025C156.701 55.6527 157.013 56.3904 157.663 56.6529C158.313 56.9155 159.051 56.6029 159.314 55.9528C159.576 55.3026 159.264 54.5649 158.614 54.3024ZM162.615 44.45C161.964 44.1874 161.227 44.5 160.964 45.1502C160.702 45.8003 161.014 46.538 161.664 46.8006C162.314 47.0631 163.052 46.7505 163.315 46.1004C163.577 45.4502 163.265 44.7125 162.615 44.45ZM166.628 34.6101C165.978 34.3476 165.24 34.6601 164.978 35.3103C164.715 35.9604 165.028 36.6981 165.678 36.9607C166.328 37.2232 167.066 36.9107 167.328 36.2605C167.591 35.6104 167.278 34.8727 166.628 34.6101ZM170.629 24.7703C169.979 24.5077 169.241 24.8203 168.979 25.4704C168.716 26.1206 169.029 26.8583 169.679 27.1208C170.329 27.3834 171.067 27.0708 171.329 26.4206C171.592 25.7705 171.279 25.0328 170.629 24.7703ZM164.49 56.6904C163.84 56.4279 163.102 56.7404 162.84 57.3906C162.577 58.0408 162.89 58.7784 163.54 59.041C164.19 59.3036 164.928 58.991 165.19 58.3408C165.453 57.6907 165.14 56.953 164.49 56.6904ZM168.491 46.8381C167.841 46.5755 167.103 46.8881 166.841 47.5382C166.578 48.1884 166.891 48.9261 167.541 49.1886C168.191 49.4512 168.929 49.1386 169.191 48.4885C169.454 47.8383 169.141 47.1006 168.491 46.8381ZM172.492 36.9982C171.842 36.7356 171.104 37.0482 170.841 37.6984C170.579 38.3485 170.892 39.0862 171.542 39.3488C172.192 39.6113 172.929 39.2987 173.192 38.6486C173.455 37.9984 173.142 37.2608 172.492 36.9982ZM176.493 27.1583C175.843 26.8958 175.105 27.2083 174.842 27.8585C174.58 28.5087 174.892 29.2463 175.543 29.5089C176.193 29.7715 176.93 29.4589 177.193 28.8087C177.456 28.1586 177.143 27.4209 176.493 27.1583ZM170.354 59.0785C169.704 58.8159 168.966 59.1285 168.703 59.7787C168.441 60.4288 168.753 61.1665 169.404 61.4291C170.054 61.6916 170.791 61.3791 171.054 60.7289C171.317 60.0787 171.004 59.3411 170.354 59.0785ZM174.355 49.2261C173.705 48.9636 172.967 49.2761 172.704 49.9263C172.442 50.5765 172.754 51.3141 173.405 51.5767C174.055 51.8393 174.792 51.5267 175.055 50.8765C175.318 50.2264 175.005 49.4887 174.355 49.2261ZM178.368 39.3863C177.718 39.1237 176.98 39.4363 176.718 40.0864C176.455 40.7366 176.768 41.4743 177.418 41.7368C178.068 41.9994 178.806 41.6868 179.068 41.0367C179.331 40.3865 179.018 39.6488 178.368 39.3863ZM182.369 29.5464C181.719 29.2838 180.981 29.5964 180.719 30.2466C180.456 30.8967 180.769 31.6344 181.419 31.897C182.069 32.1595 182.807 31.847 183.069 31.1968C183.332 30.5466 183.019 29.809 182.369 29.5464ZM176.23 61.4666C175.58 61.204 174.842 61.5166 174.58 62.1667C174.317 62.8169 174.63 63.5546 175.28 63.8171C175.93 64.0797 176.668 63.7671 176.93 63.117C177.193 62.4668 176.88 61.7291 176.23 61.4666ZM180.231 51.6142C179.581 51.3516 178.843 51.6642 178.581 52.3144C178.318 52.9645 178.631 53.7022 179.281 53.9648C179.931 54.2273 180.669 53.9148 180.931 53.2646C181.194 52.6144 180.881 51.8768 180.231 51.6142ZM184.232 41.7743C183.582 41.5118 182.844 41.8244 182.582 42.4745C182.319 43.1247 182.632 43.8623 183.282 44.1249C183.932 44.3875 184.67 44.0749 184.932 43.4247C185.195 42.7746 184.882 42.0369 184.232 41.7743ZM188.246 31.9345C187.596 31.6719 186.858 31.9845 186.595 32.6346C186.333 33.2848 186.645 34.0225 187.295 34.285C187.946 34.5476 188.683 34.235 188.946 33.5849C189.208 32.9347 188.896 32.197 188.246 31.9345ZM182.557 65.8801L182.882 65.0674C182.894 64.5548 182.594 64.0547 182.094 63.8547C181.444 63.5921 180.706 63.9047 180.444 64.5548C180.181 65.205 180.494 65.9427 181.144 66.2052C181.657 66.4178 182.207 66.2677 182.557 65.8926V65.8801ZM186.558 56.0403L186.895 55.2276C186.908 54.715 186.608 54.2148 186.108 54.0148C185.458 53.7522 184.72 54.0648 184.457 54.715C184.195 55.3651 184.507 56.1028 185.157 56.3653C185.658 56.5654 186.22 56.4279 186.57 56.0528L186.558 56.0403ZM190.559 46.1879L190.884 45.3752C190.896 44.8626 190.596 44.3625 190.096 44.1624C189.446 43.8999 188.708 44.2124 188.446 44.8626C188.183 45.5127 188.496 46.2504 189.146 46.513C189.659 46.713 190.209 46.5755 190.559 46.2004V46.1879ZM194.572 36.348L194.91 35.5353C194.922 35.0227 194.622 34.5226 194.122 34.3225C193.472 34.06 192.734 34.3726 192.472 35.0227C192.209 35.6729 192.522 36.4106 193.172 36.6731C193.684 36.8732 194.235 36.7356 194.585 36.348H194.572ZM156.501 14.1802L156.163 14.9929C156.15 15.5055 156.451 16.0056 156.951 16.2057C157.601 16.4683 158.338 16.1557 158.601 15.5055C158.864 14.8554 158.551 14.1177 157.901 13.8551C157.388 13.6551 156.838 13.7926 156.488 14.1677L156.501 14.1802ZM163.777 16.2432C163.127 15.9806 162.389 16.2932 162.127 16.9434C161.864 17.5935 162.177 18.3312 162.827 18.5938C163.477 18.8563 164.215 18.5438 164.477 17.8936C164.74 17.2434 164.427 16.5058 163.777 16.2432ZM169.654 18.6313C169.004 18.3687 168.266 18.6813 168.003 19.3314C167.741 19.9816 168.053 20.7193 168.703 20.9818C169.354 21.2444 170.091 20.9318 170.354 20.2817C170.616 19.6315 170.304 18.8938 169.654 18.6313ZM175.518 21.0194C174.867 20.7568 174.13 21.0694 173.867 21.7195C173.605 22.3697 173.917 23.1074 174.567 23.3699C175.218 23.6325 175.955 23.3199 176.218 22.6697C176.48 22.0196 176.168 21.2819 175.518 21.0194ZM181.394 23.4074C180.744 23.1449 180.006 23.4574 179.744 24.1076C179.481 24.7577 179.794 25.4954 180.444 25.758C181.094 26.0206 181.832 25.708 182.094 25.0578C182.357 24.4077 182.044 23.67 181.394 23.4074ZM187.258 25.7955C186.608 25.5329 185.87 25.8455 185.608 26.4957C185.345 27.1458 185.658 27.8835 186.308 28.1461C186.958 28.4086 187.696 28.0961 187.958 27.4459C188.221 26.7957 187.908 26.0581 187.258 25.7955Z" fill="#D4302E"/>
<path d="M155.903 8.97637L200.969 27.303L197.554 35.6999L152.489 17.3733L155.903 8.97637Z" fill="#00412E"/>
<path d="M161.797 11.3847L200.967 27.314L198.795 32.6532L159.625 16.724L161.797 11.3847Z" fill="#004E38"/>
<path fill-rule="evenodd" clip-rule="evenodd" d="M36.8225 130.883L52.0762 97.0751L45.9622 94.3245L30.7085 128.133L36.8225 130.883Z" fill="#5A2A1A"/>
<path fill-rule="evenodd" clip-rule="evenodd" d="M142.672 151.925L142.472 114.829L135.77 114.854L135.97 151.95L142.672 151.925Z" fill="#5A2A1A"/>
<path fill-rule="evenodd" clip-rule="evenodd" d="M199.947 56.0277C195.759 65.9051 192.958 98.1503 171.04 116.567C135.182 146.712 19.5039 109.203 11.3144 70.5562C7.97614 54.8024 13.9401 29.3213 13.9401 29.3213C13.9401 29.3213 39.6087 56.6529 78.068 57.1405C83.1192 57.203 77.1803 75.6949 84.2319 81.5588C92.5339 88.4605 113.927 82.8217 120.391 81.8339C131.456 80.1335 135.107 50.2763 145.584 48.6759C169.903 44.95 190.833 43.8123 199.947 56.0402V56.0277Z" fill="#BD072F"/>
<path fill-rule="evenodd" clip-rule="evenodd" d="M199.947 56.0277C195.759 65.9051 192.958 98.1503 171.04 116.567C135.182 146.712 19.5039 109.203 11.3144 70.5562C7.97614 54.8024 13.9401 29.3213 13.9401 29.3213C13.9401 29.3213 16.8533 32.422 22.192 36.5605C28.9312 70.7062 60.1887 101.551 102.886 103.389C152.423 105.527 176.129 75.6824 180.193 46.5254C188.795 47.4882 195.659 50.2888 199.935 56.0152L199.947 56.0277Z" fill="#A20A26"/>
<path fill-rule="evenodd" clip-rule="evenodd" d="M199.023 58.6158C198.648 59.7911 198.285 61.1414 197.885 62.6167C193.159 60.2787 188.445 58.5533 185.357 57.503C177.367 54.7774 168.865 52.9269 161.401 52.8144C154.449 52.7019 150.661 54.7023 147.248 58.2532C146.172 59.3785 145.322 60.7538 144.76 62.4042C140.396 75.1823 131.544 85.5222 120.254 90.2484C102.512 97.6502 77.881 92.2364 76.3807 75.9949C76.2931 75.0947 76.1931 73.8569 76.1056 72.6316C75.7805 68.5932 75.8555 64.0546 70.8918 63.617C40.222 60.9163 18.5168 42.4369 12.4903 36.748C12.8154 34.8476 13.1279 33.2222 13.378 31.9844C13.5155 32.0844 13.6406 32.2094 13.7656 32.3345C13.8406 32.4095 38.4841 58.6408 75.518 59.1034C78.0436 59.1409 79.4939 60.8663 80.3816 63.4794C80.4816 69.4184 79.8565 77.9204 84.2326 81.5463C84.4451 81.7213 84.6702 81.8839 84.9077 82.0464C91.3718 90.6985 107.001 92.4739 117.991 87.4602C127.931 82.9216 133.582 72.5691 136.933 62.7543C137.82 60.1411 139.183 57.9406 140.946 56.1152C145.797 51.064 153.462 49.1135 162.176 49.2635C170.378 49.4011 179.593 51.3765 188.183 54.3147C191.321 55.39 195.122 56.8153 199.035 58.6158H199.023Z" fill="#830B1B"/>
<path fill-rule="evenodd" clip-rule="evenodd" d="M192.684 81.4962C192.359 82.4839 192.021 83.4842 191.658 84.4844C191.533 84.4344 191.421 84.3719 191.296 84.3219C186.832 82.4089 181.643 81.6837 175.892 82.9841C170.853 84.1343 165.365 86.835 159.526 91.6486C154.262 95.9997 149.161 97.4 144.485 96.9374C138.721 96.3748 133.719 92.9615 129.944 88.7854C128.043 86.6974 126.318 84.4094 124.605 82.1213C124.205 81.5837 123.805 81.0711 123.404 80.571C124.217 80.0083 124.992 79.3082 125.73 78.4705C126.193 79.0456 126.643 79.6332 127.105 80.2459C128.781 82.4714 130.456 84.7095 132.257 86.6849C135.582 90.3483 139.908 93.3365 144.785 93.8117C148.673 94.1992 152.974 92.974 157.525 89.2231C163.764 84.0718 169.691 81.1586 175.192 79.9083C181.656 78.4455 187.495 79.2582 192.521 81.4087L192.671 81.4712L192.684 81.4962ZM184.032 101.038C179.993 100.001 175.542 99.8256 170.741 100.913C165.239 102.164 159.313 105.064 153.074 110.216C148.535 113.966 144.222 115.192 140.346 114.804C135.457 114.329 131.131 111.328 127.818 107.677C126.018 105.702 124.342 103.464 122.667 101.238C109.739 84.0343 97.3607 81.4087 78.5687 91.8737C76.1306 93.224 73.6925 94.5868 71.2544 95.6621C66.7283 97.6626 61.5646 98.6253 56.901 97.0749C53.2001 95.8496 49.7617 92.9865 47.1361 87.6977C43.5352 80.4584 39.2967 75.3822 34.7831 72.0064C29.4819 68.043 23.8055 66.4051 18.3417 66.33C15.7536 66.2925 13.203 66.6051 10.7774 67.1803C10.9149 68.243 11.0774 69.2808 11.29 70.2935C13.5405 69.7434 15.9036 69.4433 18.3042 69.4683C23.1553 69.5308 28.1941 70.9812 32.9202 74.507C37.0587 77.6078 40.9846 82.3089 44.3479 89.073C47.3862 95.187 51.4872 98.5503 55.9382 100.026C61.4396 101.851 67.391 100.763 72.5297 98.5003C75.1178 97.3625 77.6184 95.9622 80.119 94.5868C97.7858 84.7595 108.038 86.935 120.179 103.101C121.892 105.377 123.617 107.665 125.517 109.765C129.306 113.929 134.295 117.342 140.058 117.905C144.735 118.368 149.836 116.967 155.1 112.616C160.926 107.803 166.415 105.089 171.466 103.952C175.342 103.076 178.968 103.114 182.294 103.827C182.906 102.901 183.494 101.964 184.069 101.013L184.032 101.038ZM10.6523 51.0514C10.7399 49.8636 10.8524 48.6883 10.9774 47.5255C14.6283 46.1377 18.6543 45.3125 22.7928 45.3625C28.2566 45.4375 33.9329 47.0754 39.2342 51.0389C43.7478 54.4147 47.9863 59.4784 51.5872 66.7301C54.2128 72.0064 57.6511 74.8696 61.352 76.0949C66.0157 77.6453 71.1794 76.67 75.7055 74.6821C77.3309 73.9694 78.9688 73.1192 80.5942 72.2315C80.6942 73.3692 80.8442 74.482 81.0693 75.5448C79.7189 76.2574 78.3561 76.9451 76.9683 77.5577C71.817 79.8333 65.8656 80.9211 60.3643 79.0956C55.9132 77.6203 51.8122 74.257 48.774 68.143C45.4107 61.3664 41.4973 56.6652 37.3463 53.5645C32.6201 50.0386 27.5939 48.5883 22.7303 48.5133C18.4542 48.4507 14.3157 49.451 10.6398 51.0514H10.6523Z" fill="#AA6215"/>
<path fill-rule="evenodd" clip-rule="evenodd" d="M16.3793 27.0203C15.104 25.6825 12.9785 25.6325 11.6406 26.9078C10.3028 28.1831 10.2528 30.3086 11.5281 31.6464C11.6031 31.7214 35.3338 56.99 71.6051 60.1783C76.5688 60.6159 77.594 65.3795 77.9066 69.418C78.0066 70.6558 78.1066 71.8811 78.1816 72.7813C79.682 89.0227 103.225 94.2114 120.967 86.7972C132.27 82.071 138.984 71.0934 143.347 58.3153C143.91 56.6649 144.76 55.2896 145.835 54.1643C149.249 50.6135 155.175 49.2506 162.127 49.3632C169.591 49.4882 178.106 51.3261 186.083 54.0518C194.997 57.09 217.44 65.7671 214.902 78.4702C214.714 79.4204 214.189 80.2706 213.177 80.8832C212.714 78.3701 210.776 76.2571 208.125 75.6945C204.612 74.9443 201.149 77.1949 200.411 80.7082C199.786 83.6589 201.261 86.5721 203.837 87.8724C204.437 88.4601 205.25 88.8352 206.15 88.8477C210.563 88.9102 213.827 88.1475 216.202 86.8597C219.316 85.1593 220.891 82.6337 221.454 79.783C224.929 62.3788 201.011 52.0638 188.233 47.7128C179.656 44.7871 170.429 42.7991 162.227 42.6616C153.512 42.5115 145.86 44.462 140.997 49.5132C139.246 51.3386 137.871 53.5392 136.983 56.1523C133.632 65.9672 127.981 76.3196 118.041 80.8582C104.288 87.1347 85.7585 84.0465 84.5582 68.8929C83.958 61.316 83.3579 53.8392 78.0941 53.7767C41.0602 53.3141 16.4168 27.0828 16.3418 27.0078L16.3793 27.0203Z" fill="#F5D5A9"/>
<path fill-rule="evenodd" clip-rule="evenodd" d="M10.8398 28.1084C10.3772 29.2837 10.6147 30.6715 11.54 31.6467C11.615 31.7217 35.3457 56.9903 71.6169 60.1786C76.5806 60.6162 77.6058 65.3798 77.9184 69.4183C78.0184 70.6561 78.1185 71.8814 78.1935 72.7816C79.6938 89.023 103.237 94.2118 120.979 86.7975C132.281 82.0713 138.996 71.0937 143.359 58.3156C143.922 56.6652 144.772 55.2899 145.847 54.1646C149.261 50.6138 155.187 49.251 162.139 49.3635C169.603 49.4885 178.117 51.3265 186.094 54.0521C194.434 56.9028 214.614 64.6797 215.101 76.0699C215.752 77.8328 215.952 79.6833 215.564 81.6337C215.376 82.584 214.851 83.4342 213.839 84.0468C213.376 81.5337 211.451 79.4207 208.787 78.8581C205.274 78.1079 201.811 80.3584 201.073 83.8718C200.998 84.2219 200.96 84.5719 200.935 84.9095C201.548 86.1598 202.561 87.2226 203.849 87.8602C204.449 88.4479 205.262 88.823 206.162 88.8355C210.575 88.898 213.839 88.1353 216.214 86.8475C219.327 85.1471 220.903 82.6215 221.465 79.7708C221.816 78.0079 221.878 76.3325 221.715 74.7071C217.827 62.2041 199.51 54.4772 188.895 50.8513C180.318 47.9256 171.091 45.9377 162.901 45.8001C154.187 45.6501 146.535 47.6006 141.671 52.6643C139.908 54.4897 138.545 56.6902 137.658 59.3034C134.307 69.1182 128.656 79.4707 118.716 84.0093C104.962 90.2858 83.9198 85.9223 82.7196 70.7561C82.1194 63.1793 81.5193 55.7025 76.243 55.64C39.2091 55.1774 14.5657 28.9461 14.4906 28.8711C13.5154 27.8458 12.0526 27.5832 10.8148 28.0834L10.8398 28.1084Z" fill="#ECAE5D"/>
<path fill-rule="evenodd" clip-rule="evenodd" d="M152.087 82.1836C143.335 80.3206 134.72 85.9095 132.857 94.6741C130.994 103.439 136.583 112.041 145.348 113.904C154.1 115.767 162.714 110.178 164.577 101.413C166.44 92.6611 160.852 84.0465 152.087 82.1836Z" fill="#00412E"/>
<path fill-rule="evenodd" clip-rule="evenodd" d="M149.387 88.8474L147.949 87.5971C147.561 87.2595 146.986 87.3095 146.648 87.6971C145.748 88.7474 148.174 90.2352 148.949 90.9104L148.111 94.8738C147.649 94.9114 147.199 95.0614 146.799 95.299L143.748 92.5483C143.823 92.1607 143.898 91.7731 143.973 91.3855C144.098 90.7979 144.21 90.2102 144.335 89.6101C144.435 89.11 144.123 88.6223 143.623 88.5223C143.123 88.4223 142.635 88.7349 142.535 89.235C142.41 89.8351 142.285 90.4228 142.16 91.0229C142.16 91.0479 142.16 91.0854 142.147 91.1104L139.922 89.11C139.547 88.7724 138.959 88.7974 138.622 89.185C138.284 89.5601 138.309 90.1477 138.684 90.4853L140.985 92.5608L139.184 93.1859C138.709 93.3485 138.446 93.8861 138.622 94.3612C138.784 94.8363 139.309 95.0864 139.797 94.9239L142.56 93.9736L145.573 96.6868C145.473 96.8993 145.398 97.1119 145.361 97.3494C145.311 97.5745 145.286 97.812 145.298 98.0371L141.397 99.3124C141.097 99.0624 140.797 98.7998 140.509 98.5372C140.059 98.1371 139.609 97.737 139.159 97.3369C138.784 96.9994 138.196 97.0244 137.859 97.3995C137.521 97.7745 137.546 98.3622 137.921 98.6998C138.371 99.1124 138.822 99.5125 139.284 99.9251C139.309 99.9376 139.322 99.9626 139.347 99.9751L136.496 100.9C136.008 101.063 135.746 101.575 135.908 102.063C136.058 102.551 136.584 102.813 137.071 102.651L140.022 101.688L139.659 103.563C139.559 104.064 139.897 104.551 140.397 104.639C140.897 104.739 141.372 104.401 141.472 103.914L142.022 101.05L145.873 99.8C146.136 100.175 146.486 100.5 146.899 100.725L146.048 104.739C145.673 104.876 145.298 105.001 144.936 105.126C144.36 105.314 143.785 105.514 143.223 105.689C142.735 105.839 142.472 106.364 142.635 106.852C142.785 107.327 143.31 107.602 143.798 107.439C144.373 107.252 144.961 107.064 145.536 106.864C145.561 106.864 145.586 106.852 145.623 106.839L144.998 109.765C144.898 110.265 145.211 110.753 145.711 110.865C146.211 110.965 146.698 110.653 146.799 110.153L147.436 107.127L148.874 108.377C149.262 108.715 149.837 108.665 150.174 108.277C150.499 107.889 150.462 107.314 150.074 106.977L147.861 105.064L148.699 101.1C149.162 101.05 149.612 100.913 150.012 100.675L153.063 103.426C152.987 103.813 152.912 104.201 152.837 104.576C152.712 105.164 152.6 105.751 152.475 106.352C152.375 106.852 152.687 107.339 153.175 107.439C153.675 107.539 154.163 107.227 154.263 106.739C154.388 106.139 154.513 105.539 154.638 104.951C154.638 104.926 154.638 104.901 154.65 104.864L156.876 106.864C157.251 107.202 157.839 107.177 158.176 106.802C158.514 106.427 158.489 105.839 158.101 105.501L155.801 103.438L157.601 102.813C158.076 102.651 158.339 102.113 158.164 101.638C158.001 101.163 157.476 100.9 156.988 101.075L154.225 102.026L151.212 99.3124C151.312 99.0999 151.387 98.8873 151.425 98.6498C151.475 98.4247 151.5 98.1871 151.5 97.9621L155.401 96.6993C155.701 96.9493 156.001 97.2119 156.288 97.4745C156.738 97.8746 157.188 98.2747 157.639 98.6748C158.014 99.0123 158.601 98.9873 158.939 98.6123C159.276 98.2372 159.251 97.6495 158.876 97.3119C158.426 96.8993 157.964 96.4992 157.514 96.0866C157.489 96.0741 157.464 96.0491 157.451 96.0366L160.302 95.1114C160.789 94.9614 161.052 94.4362 160.889 93.9486C160.727 93.4735 160.214 93.1984 159.727 93.361L156.788 94.3112L157.151 92.4358C157.251 91.9356 156.913 91.448 156.426 91.3605C155.926 91.2605 155.438 91.5981 155.351 92.0982L154.8 94.9739L150.949 96.2242C150.687 95.8491 150.337 95.524 149.924 95.299L150.774 91.2855C151.15 91.148 151.512 91.0229 151.887 90.8979C152.462 90.7103 153.025 90.5103 153.6 90.3353C154.088 90.1852 154.35 89.6601 154.188 89.1725C154.038 88.6849 153.513 88.4223 153.025 88.5848C152.45 88.7724 151.862 88.9599 151.287 89.16C151.262 89.16 151.237 89.1725 151.2 89.185L151.825 86.2593C151.925 85.7592 151.612 85.2715 151.112 85.159C150.612 85.0465 150.124 85.3716 150.024 85.8717L149.387 88.8974V88.8474Z" fill="#BD072F"/>
<path fill-rule="evenodd" clip-rule="evenodd" d="M23.7058 99.5626C23.2557 95.6117 21.0677 93.0611 18.142 91.7232C15.5789 90.5479 12.4656 90.4479 9.58992 91.2606C6.75174 92.0483 4.0636 93.7362 2.27568 96.1243C-0.387466 99.6876 -1.15016 104.639 2.30066 110.378C4.4762 114.004 8.56467 118.017 15.2538 122.331C45.5861 141.91 147.248 165.741 178.068 153.601C181.131 152.4 184.057 150.7 186.332 148.537C188.47 146.499 190.058 144.023 190.671 141.123C191.884 135.496 189.783 131.058 186.407 128.169C184.907 126.894 183.144 125.944 181.306 125.344C179.468 124.744 177.53 124.519 175.68 124.669C172.654 124.931 169.903 126.207 168.116 128.632C167.19 129.332 166.515 130.358 166.253 131.57C165.677 134.283 167.403 136.947 170.116 137.522C172.829 138.097 175.492 136.371 176.067 133.658C176.23 132.871 176.205 132.083 176.017 131.345C176.092 131.345 176.167 131.333 176.242 131.32C177.193 131.233 178.23 131.37 179.256 131.695C180.281 132.033 181.256 132.558 182.081 133.258C183.732 134.671 184.757 136.872 184.144 139.71C183.832 141.173 182.944 142.498 181.706 143.673C180.106 145.199 177.93 146.436 175.617 147.349C147.06 158.589 47.399 135.071 18.8922 116.679C13.1283 112.953 9.72746 109.715 8.05206 106.914C6.27663 103.964 6.50169 101.651 7.65198 100.113C8.53969 98.9375 9.91501 98.0873 11.3904 97.6747C12.8282 97.2746 14.2785 97.2871 15.3913 97.7872C15.4663 97.8247 15.5414 97.8622 15.6164 97.8997C14.9912 98.5374 14.5411 99.3626 14.3411 100.288C13.7784 102.938 15.4663 105.552 18.117 106.114C20.7676 106.677 23.3682 104.989 23.9434 102.338C24.1434 101.376 24.0559 100.413 23.7183 99.5501L23.7058 99.5626Z" fill="#ECAE5D"/>
<path d="M89.1155 39.7253L137.719 41.8389L137.325 50.895L88.7217 48.7814L89.1155 39.7253Z" fill="#E4A303"/>
<path d="M94.5328 39.9513L137.715 41.8291L137.465 47.5751L94.2829 45.6972L94.5328 39.9513Z" fill="#FFCB00"/>
<path fill-rule="evenodd" clip-rule="evenodd" d="M181.783 13.8419C177.982 8.86569 174.644 5.36485 171.78 3.30185C169.717 1.81399 167.804 1.0138 166.054 0.901274C163.966 0.763741 162.216 1.52642 160.803 3.15181C160.04 4.03953 159.402 5.1898 158.89 6.59014C158.315 8.19053 158.24 9.67838 158.577 11.0287C159.152 13.3418 160.853 15.0672 163.128 16.28C165.104 17.3427 167.529 18.0179 169.98 18.368C174.243 18.9681 178.745 18.5555 181.02 17.3552L183.471 16.0549L181.783 13.8419ZM175.819 13.8919C174.306 14.0169 172.481 13.9669 170.655 13.7044C168.692 13.4293 166.804 12.9042 165.341 12.129C159.865 9.20327 164.841 0.601203 175.819 13.8794V13.8919Z" fill="#BD072F"/>
<path fill-rule="evenodd" clip-rule="evenodd" d="M161.704 2.8393C167.055 -3.02461 175.632 6.06508 178.758 10.4411C175.557 7.79049 167.118 -1.07414 163.004 3.85205C162.729 4.21463 162.204 4.27715 161.841 4.00208C161.479 3.72702 161.416 3.20189 161.691 2.8393H161.704Z" fill="#CE5465"/>
<path fill-rule="evenodd" clip-rule="evenodd" d="M165.866 6.60237C162.915 6.73991 162.802 10.7409 165.503 12.1912C166.953 12.9664 168.854 13.479 170.817 13.7541C172.555 14.0042 174.293 14.0667 175.755 13.9541L177.081 14.7918C177.081 14.7918 178.244 16.6923 179.094 18.1552C176.668 18.7553 173.342 18.8678 170.154 18.4177C167.716 18.0676 165.278 17.3925 163.302 16.3297C162.127 15.7046 161.114 14.9419 160.314 14.0292C159.752 12.9039 159.527 11.6286 159.727 10.1782C160.152 7.02748 163.077 6.21478 165.878 6.57737L165.866 6.60237Z" fill="#830B1B"/>
<path fill-rule="evenodd" clip-rule="evenodd" d="M187.446 33.6839L187.483 33.5714C188.446 30.7332 188.383 26.5322 187.208 22.7813C184.482 14.0292 176.043 11.416 168.616 16.3422C165.278 18.5553 162.452 21.781 161.464 24.6442L161.439 24.6942L165.44 23.5064L167.066 27.0948V27.0448H167.091C171.279 14.9169 187.458 13.8166 181.294 31.9835L181.269 32.0585L185.17 30.6332L187.421 33.6964L187.446 33.6839Z" fill="#BD072F"/>
<path fill-rule="evenodd" clip-rule="evenodd" d="M184.297 17.4924C181.934 14.8667 178.696 13.6289 175.245 13.9165C175.145 14.8417 176.608 16.8922 174.344 17.9175C170.281 19.7679 167.63 22.4311 167.068 27.0822L167.08 27.0447C171.269 14.9167 187.448 13.8165 181.284 31.9834L181.259 32.0584L181.859 31.8333C184.784 26.8196 182.997 22.2435 182.634 20.5556C182.284 18.9677 182.897 18.2676 184.272 17.4924H184.297Z" fill="#830B1B"/>
<path fill-rule="evenodd" clip-rule="evenodd" d="M162.628 23.4436C162.853 22.3558 164.666 20.2803 165.629 19.2176C168.092 16.4669 171.217 14.9791 173.931 14.3164C174.418 14.3164 174.606 14.904 174.193 15.1291C173.743 15.3792 169.104 15.8668 162.628 23.4561V23.4436Z" fill="#CE5465"/>
<path fill-rule="evenodd" clip-rule="evenodd" d="M117.402 39.8993C133.306 31.2223 132.931 41.5873 127.78 42.1624C126.142 42.3499 124.192 42.1124 122.266 41.6498C120.466 41.2122 118.765 40.587 117.402 39.8993ZM125.079 31.5598C121.653 32.41 117.252 34.4355 111.876 37.6363L109.488 39.0616L111.288 41.1747C112.951 43.1376 116.977 45.2006 121.153 46.2134C123.554 46.801 126.067 47.0761 128.293 46.826C130.856 46.5384 133.069 45.5757 134.469 43.6377C135.282 42.5125 135.769 41.1121 135.819 39.3992C135.869 37.9114 135.707 36.6111 135.319 35.4983C134.619 33.4603 133.281 32.0975 131.293 31.4598C129.618 30.9097 127.542 30.9472 125.079 31.5598Z" fill="#BD072F"/>
<path fill-rule="evenodd" clip-rule="evenodd" d="M129.518 36.8357C132.206 38.061 130.831 41.8244 127.78 42.162C126.142 42.3495 124.192 42.112 122.266 41.6493C120.553 41.2367 118.928 40.6491 117.603 39.999L116.065 40.2865C116.065 40.2865 114.289 41.6118 112.952 42.6621C114.977 44.1124 118.028 45.4628 121.153 46.2254C123.554 46.8131 126.067 47.0882 128.293 46.8381C129.618 46.6881 130.843 46.363 131.919 45.8129C132.856 44.9877 133.544 43.8749 133.894 42.462C134.669 39.3738 132.256 37.5359 129.518 36.8357Z" fill="#830B1B"/>
<path fill-rule="evenodd" clip-rule="evenodd" d="M114.476 37.7609C109.437 34.06 105.249 31.6219 101.923 30.4466C99.5224 29.5964 97.4719 29.3714 95.7465 29.759C93.7085 30.2091 92.2332 31.4344 91.3455 33.3973C90.8579 34.4601 90.5703 35.7479 90.4828 37.2358C90.3827 38.9362 90.7328 40.374 91.4205 41.5743C92.6208 43.6248 94.7338 44.8126 97.2594 45.3377C99.4474 45.8003 101.973 45.7628 104.424 45.4127C108.687 44.8001 112.888 43.1247 114.739 41.3367L116.727 39.3988L114.489 37.7484L114.476 37.7609ZM108.762 39.4863C107.349 40.0364 105.586 40.499 103.761 40.7616C101.798 41.0492 99.835 41.0867 98.2221 40.7491C92.1457 39.4738 94.5087 29.834 108.762 39.4988V39.4863Z" fill="#BD072F"/>
<path fill-rule="evenodd" clip-rule="evenodd" d="M134.896 34.8973C132.107 27.458 120.767 32.7218 116.241 35.635C120.192 34.3597 131.32 29.2709 133.308 35.3599C133.433 35.7975 133.895 36.0476 134.333 35.9225C134.771 35.7975 135.021 35.3349 134.896 34.8973Z" fill="#CE5465"/>
<path fill-rule="evenodd" clip-rule="evenodd" d="M92.1069 32.8475C95.5952 25.7208 106.385 32.0348 110.611 35.3606C106.798 33.7102 96.2079 27.5837 93.6447 33.4476C93.4822 33.8727 92.9946 34.0728 92.5695 33.9102C92.1444 33.7477 91.9443 33.2601 92.1069 32.835V32.8475Z" fill="#CE5465"/>
<path fill-rule="evenodd" clip-rule="evenodd" d="M97.1716 35.2849C94.3834 36.2476 95.3961 40.1236 98.3844 40.7612C99.9972 41.0988 101.96 41.0613 103.923 40.7737C105.661 40.5237 107.337 40.0986 108.724 39.5859L110.225 40.011C110.225 40.011 111.863 41.4989 113.088 42.6742C110.925 43.9245 107.774 44.9747 104.573 45.4374C102.135 45.7874 99.6096 45.8249 97.4091 45.3623C96.1088 45.0873 94.9085 44.6372 93.9083 43.9995C93.0456 43.0868 92.4704 41.9115 92.2579 40.4737C91.7828 37.3229 94.3584 35.7225 97.1591 35.2974L97.1716 35.2849Z" fill="#830B1B"/>
<path fill-rule="evenodd" clip-rule="evenodd" d="M125.466 55.2156V55.0906C125.604 52.0898 124.354 48.0764 122.178 44.8131C117.114 37.1737 108.275 37.0362 102.523 43.8504C99.9476 46.9136 98.1347 50.802 97.9847 53.8278V53.8903L101.486 51.6272L104.049 54.6154V54.5654C104.661 41.7498 119.89 36.1485 119.065 55.3156V55.3906L122.403 52.9275L125.429 55.2281L125.466 55.2156Z" fill="#BD072F"/>
<path fill-rule="evenodd" clip-rule="evenodd" d="M117.916 40.561C114.903 38.698 111.452 38.423 108.226 39.6607C108.389 40.586 110.364 42.1363 108.489 43.7492C105.1 46.6624 103.312 49.9632 104.075 54.5893V54.5518C104.688 41.7362 119.916 36.1349 119.091 55.302V55.377L119.604 54.9894C121.004 49.3506 118.003 45.4621 117.178 43.9493C116.39 42.5239 116.778 41.6862 117.891 40.5485L117.916 40.561Z" fill="#830B1B"/>
<path fill-rule="evenodd" clip-rule="evenodd" d="M113.237 36.4985C115.388 36.5986 117.05 38.424 116.938 40.5745C116.838 42.725 115.013 44.3879 112.862 44.2879C110.711 44.1879 109.049 42.3624 109.149 40.2119C109.249 38.0614 111.074 36.3985 113.237 36.511V36.4985Z" fill="#AA0A2A"/>
<path fill-rule="evenodd" clip-rule="evenodd" d="M113.226 36.6976C114.889 36.7851 116.189 37.9604 116.127 39.3358C116.064 40.7111 114.651 41.7613 112.988 41.6863C111.326 41.6113 110.025 40.4235 110.088 39.0482C110.15 37.6729 111.551 36.6226 113.226 36.6976Z" fill="#BD072F"/>
<path fill-rule="evenodd" clip-rule="evenodd" d="M114.201 37.1481C115.114 37.5482 115.664 38.3233 115.414 38.8735C115.177 39.4236 114.226 39.5486 113.314 39.1485C112.401 38.7484 111.851 37.9733 112.101 37.4231C112.338 36.873 113.289 36.748 114.201 37.1481Z" fill="#CE5465"/>
<path fill-rule="evenodd" clip-rule="evenodd" d="M125.129 53.6271C125.317 52.5394 124.404 49.9387 123.916 48.5884C122.654 45.1126 120.303 42.5745 118.028 40.9491C117.577 40.774 117.177 41.2366 117.49 41.6117C117.815 42.0118 121.941 44.1873 125.129 53.6271Z" fill="#CE5465"/>
<path fill-rule="evenodd" clip-rule="evenodd" d="M98.7853 52.352C98.6978 51.2517 99.8606 48.7511 100.473 47.4508C102.061 44.1125 104.649 41.8119 107.062 40.4116C107.525 40.274 107.875 40.7867 107.537 41.1243C107.175 41.4868 102.861 43.2623 98.7853 52.352Z" fill="#CE5465"/>
<path fill-rule="evenodd" clip-rule="evenodd" d="M72.9663 20.969C90.9457 18.7809 86.7697 28.2707 81.7685 26.9079C80.1806 26.4703 78.4427 25.5451 76.8298 24.3948C75.3294 23.3195 73.9666 22.1067 72.9538 20.969H72.9663ZM83.1813 16.0553C79.6805 15.5802 74.8418 15.8302 68.6653 16.818L65.9146 17.2556L66.8024 19.8812C67.6276 22.3193 70.6033 25.7201 74.1041 28.2207C76.1171 29.6461 78.3426 30.8338 80.5057 31.4215C82.9938 32.1091 85.4068 32.0216 87.4198 30.7463C88.5951 29.9961 89.5578 28.8834 90.2455 27.308C90.8456 25.9452 91.1707 24.6699 91.2332 23.4946C91.3333 21.3316 90.5956 19.5811 88.9827 18.2433C87.6324 17.118 85.6944 16.3804 83.1813 16.0428V16.0553Z" fill="#FFCB00"/>
<path fill-rule="evenodd" clip-rule="evenodd" d="M85.3574 22.5947C87.3954 24.7202 84.7322 27.7084 81.769 26.8957C80.1811 26.4581 78.4432 25.5329 76.8303 24.3826C75.405 23.3574 74.1047 22.2196 73.1044 21.1319L71.5666 20.8318C71.5666 20.8318 69.4161 21.4069 67.8032 21.882C69.1535 23.9825 71.4791 26.3581 74.1047 28.2336C76.1177 29.6589 78.3432 30.8467 80.5062 31.4343C81.794 31.7844 83.0568 31.9345 84.2571 31.8219C85.4324 31.3968 86.4827 30.6216 87.3329 29.4339C89.1958 26.8582 87.6329 24.2451 85.3449 22.5947H85.3574Z" fill="#C48C00"/>
<path fill-rule="evenodd" clip-rule="evenodd" d="M71.0414 17.8932C67.7281 12.5919 64.7274 8.77848 62.0768 6.46542C60.1638 4.79002 58.3384 3.81479 56.6005 3.53972C54.5375 3.20214 52.7245 3.78978 51.1617 5.29014C50.3114 6.10284 49.5738 7.1781 48.9361 8.52842C48.2109 10.0788 47.9984 11.5416 48.2109 12.917C48.561 15.2675 50.0864 17.143 52.2494 18.5808C54.1124 19.8186 56.4754 20.7188 58.876 21.294C63.0645 22.2942 67.5906 22.3067 69.9662 21.319L72.5293 20.2562L71.0539 17.8932H71.0414ZM65.09 17.3805C63.5646 17.368 61.7642 17.143 59.9638 16.7054C58.0383 16.2428 56.2004 15.5551 54.825 14.6424C49.6488 11.2166 55.4127 3.12712 65.09 17.3805Z" fill="#FFCB00"/>
<path fill-rule="evenodd" clip-rule="evenodd" d="M91.0687 22.7813C91.2313 14.8419 78.7408 15.5421 73.4645 16.5673C77.603 16.8424 89.8309 16.2297 89.4309 22.6188C89.3808 23.0689 89.7184 23.4815 90.1685 23.519C90.6186 23.569 91.0312 23.2314 91.0687 22.7813Z" fill="#FBDC80"/>
<path fill-rule="evenodd" clip-rule="evenodd" d="M52.0754 5.05206C57.9518 -0.286721 65.6411 9.57815 68.3418 14.2293C65.4161 11.2911 57.8268 1.67625 53.2882 6.17733C52.9756 6.50241 52.4505 6.52742 52.1254 6.21484C51.8003 5.90227 51.7753 5.37714 52.0879 5.05206H52.0754Z" fill="#FBDC80"/>
<path fill-rule="evenodd" clip-rule="evenodd" d="M55.876 9.19042C52.9378 9.05288 52.4252 13.0288 54.9883 14.7292C56.3636 15.642 58.2016 16.3296 60.127 16.7922C61.8399 17.2048 63.5528 17.4299 65.0282 17.4549L66.266 18.4176C66.266 18.4176 67.2412 20.4056 67.9414 21.9435C65.4658 22.3061 62.14 22.1185 59.0143 21.3683C56.6137 20.7932 54.2631 19.893 52.3877 18.6552C51.2749 17.9175 50.3372 17.0673 49.637 16.0921C49.1869 14.9293 49.0744 13.629 49.412 12.2036C50.1371 9.1029 53.1253 8.56527 55.876 9.20292V9.19042Z" fill="#C48C00"/>
<path fill-rule="evenodd" clip-rule="evenodd" d="M74.8034 38.1852L74.8534 38.0727C76.0787 35.3345 76.4037 31.146 75.6035 27.2951C73.7156 18.3305 65.5636 14.9296 57.6993 19.1432C54.1734 21.0311 51.0476 23.9818 49.7973 26.7325L49.7723 26.7825L53.8608 25.9698L55.1361 29.6957L55.1611 29.6457C60.4749 17.9679 76.6788 18.393 68.8269 35.8972L68.8019 35.9722L72.8279 34.9219L74.7784 38.1852H74.8034Z" fill="#FFCB00"/>
<path fill-rule="evenodd" clip-rule="evenodd" d="M73.1914 21.7571C71.0784 18.9189 67.9777 17.381 64.5143 17.3435C64.3268 18.2562 65.5896 20.4317 63.2515 21.2444C59.0255 22.7073 56.1498 25.1079 55.1496 29.684L55.1746 29.6465C60.4884 17.9687 76.6923 18.3938 68.8404 35.898L68.8154 35.973L69.4405 35.8104C72.8163 31.0843 71.4785 26.3707 71.2659 24.6578C71.0659 23.0449 71.7286 22.4072 73.1914 21.7571Z" fill="#C48C00"/>
<path fill-rule="evenodd" clip-rule="evenodd" d="M70.3516 16.2553C72.3146 17.143 73.1773 19.4561 72.2896 21.4191C71.4019 23.382 69.0888 24.2447 67.1258 23.357C65.1629 22.4693 64.3002 20.1563 65.1879 18.1933C66.0756 16.2303 68.3887 15.3676 70.3516 16.2553Z" fill="#C48C00"/>
<path fill-rule="evenodd" clip-rule="evenodd" d="M70.2649 16.4423C71.7778 17.13 72.553 18.7053 71.9779 19.9682C71.4027 21.2185 69.7148 21.6811 68.2019 20.9934C66.6891 20.3057 65.9139 18.7304 66.489 17.4676C67.0642 16.2173 68.7521 15.7546 70.2649 16.4423Z" fill="#FFCB00"/>
<path fill-rule="evenodd" clip-rule="evenodd" d="M71.0169 17.2301C71.7171 17.9427 71.9421 18.868 71.5045 19.2931C71.0794 19.7182 70.1542 19.4806 69.454 18.7804C68.7538 18.0678 68.5288 17.1551 68.9664 16.7174C69.3915 16.2923 70.3167 16.5174 71.0169 17.2426V17.2301Z" fill="#FBDC80"/>
<path fill-rule="evenodd" clip-rule="evenodd" d="M75.0658 36.5732C75.641 35.6354 75.7535 32.8723 75.8035 31.4344C75.916 27.7461 74.6657 24.5078 73.1529 22.1572C72.8028 21.8196 72.2526 22.1072 72.4027 22.5698C72.5652 23.0574 75.5784 26.6083 75.0533 36.5607L75.0658 36.5732Z" fill="#FBDC80"/>
<path fill-rule="evenodd" clip-rule="evenodd" d="M51.0607 25.6573C51.3857 24.5945 53.3862 22.7066 54.449 21.7314C57.1621 19.2183 60.4129 18.0305 63.1761 17.6304C63.6512 17.6804 63.8012 18.2805 63.3511 18.4681C62.876 18.6681 58.2124 18.7306 51.0607 25.6698V25.6573Z" fill="#FBDC80"/>
<path fill-rule="evenodd" clip-rule="evenodd" d="M7.47577 93.8117C3.64984 96.5749 1.93692 102.451 5.1627 108.14C17.3781 129.645 79.4931 145.999 125.229 151.701C148.885 154.651 167.402 153.076 173.941 151.451C185.719 148.525 192.483 140.36 185.719 127.607C185.956 127.782 186.181 127.97 186.406 128.157C189.795 131.033 191.883 135.484 190.67 141.111C188.969 149.013 185.206 150.775 178.067 153.589C147.247 165.729 45.5724 141.886 15.2526 122.319C8.56351 118.005 4.47502 114.004 2.2995 110.366C-1.13882 104.639 -0.388626 99.6881 2.27451 96.1123C4.06244 93.7117 6.75058 92.0363 9.58876 91.2486C9.76379 91.1986 9.95135 91.1486 10.1264 91.1111C9.12616 91.8738 8.21344 92.774 7.47577 93.8117Z" fill="#CD9045"/>
</g>
<defs>
<clipPath id="clip0_14348_322534">
<rect width="221.816" height="156" fill="white" transform="matrix(-1 0 0 1 221.816 0.889648)"/>
</clipPath>
</defs>
</svg>
