<svg width="129" height="120" viewBox="0 0 129 120" fill="none" xmlns="http://www.w3.org/2000/svg">
<g opacity="0.2">
<path d="M92.1384 22.8603C91.3684 22.8603 90.7184 23.3603 90.4884 24.0603H81.4384L87.8383 17.6603C88.4983 17.9903 89.3084 17.8803 89.8584 17.3403C90.5384 16.6603 90.5384 15.5503 89.8584 14.8603C89.1784 14.1803 88.0684 14.1803 87.3784 14.8603C86.8284 15.4103 86.7283 16.2203 87.0583 16.8803L80.6584 23.2803V14.2303C81.3484 14.0003 81.8584 13.3503 81.8584 12.5703C81.8584 11.6003 81.0684 10.8203 80.1084 10.8203C79.1484 10.8203 78.3584 11.6003 78.3584 12.5703C78.3584 13.3403 78.8583 13.9903 79.5583 14.2303V23.2803L73.1584 16.8803C73.4884 16.2203 73.3783 15.4103 72.8383 14.8603C72.1583 14.1803 71.0484 14.1803 70.3584 14.8603C69.6784 15.5403 69.6784 16.6503 70.3584 17.3403C70.9084 17.8903 71.7184 17.9903 72.3784 17.6603L78.7784 24.0603H69.7284C69.4984 23.3703 68.8484 22.8603 68.0684 22.8603C67.0984 22.8603 66.3184 23.6403 66.3184 24.6103C66.3184 25.5803 67.1084 26.3603 68.0684 26.3603C68.8384 26.3603 69.4884 25.8603 69.7284 25.1603H78.7784L72.3784 31.5603C71.7184 31.2303 70.9084 31.3403 70.3584 31.8803C69.6784 32.5603 69.6684 33.6703 70.3584 34.3603C71.0384 35.0403 72.1483 35.0403 72.8383 34.3603C73.3883 33.8103 73.4884 33.0003 73.1584 32.3403L79.5583 25.9403V34.9903C78.8583 35.2203 78.3584 35.8703 78.3584 36.6503C78.3584 37.6203 79.1384 38.4003 80.1084 38.4003C81.0784 38.4003 81.8584 37.6203 81.8584 36.6503C81.8584 35.8803 81.3484 35.2303 80.6584 34.9903V25.9403L87.0583 32.3403C86.7283 33.0003 86.8384 33.8103 87.3784 34.3603C88.0684 35.0403 89.1784 35.0403 89.8584 34.3603C90.5384 33.6703 90.5384 32.5603 89.8584 31.8803C89.3084 31.3303 88.4983 31.2303 87.8383 31.5603L81.4384 25.1603H90.4884C90.7184 25.8503 91.3684 26.3603 92.1384 26.3603C93.1084 26.3603 93.8884 25.5803 93.8884 24.6103C93.8884 23.6403 93.0984 22.8603 92.1384 22.8603Z" fill="white"/>
<path d="M92.9297 72.4004C92.9297 75.0204 90.7997 77.1504 88.1797 77.1504C85.5597 77.1504 83.4297 75.0204 83.4297 72.4004C83.4297 69.7804 85.5597 67.6504 88.1797 67.6504C90.7997 67.6504 92.9297 69.7804 92.9297 72.4004Z" fill="white"/>
<path d="M6.34 34.3907C6.34 36.1407 4.92001 37.5607 3.17001 37.5607C1.42001 37.5607 0 36.1407 0 34.3907C0 32.6407 1.42001 31.2207 3.17001 31.2207C4.92001 31.2207 6.34 32.6407 6.34 34.3907Z" fill="white"/>
<path d="M15.0391 86.6204H29.5591" stroke="white" stroke-width="2" stroke-linecap="round" stroke-linejoin="round"/>
<path d="M22.2988 79.3604V93.8803" stroke="white" stroke-width="2" stroke-linecap="round" stroke-linejoin="round"/>
<path d="M17.1582 91.7505L27.4282 81.4805" stroke="white" stroke-width="2" stroke-linecap="round" stroke-linejoin="round"/>
<path d="M27.4299 91.7505L17.1699 81.4805" stroke="white" stroke-width="2" stroke-linecap="round" stroke-linejoin="round"/>
<path d="M92.1403 22.8603C91.3703 22.8603 90.7203 23.3603 90.4903 24.0603H81.4403L87.8403 17.6603C88.5003 17.9903 89.3103 17.8803 89.8603 17.3403C90.5403 16.6603 90.5403 15.5503 89.8603 14.8603C89.1803 14.1803 88.0703 14.1803 87.3803 14.8603C86.8303 15.4103 86.7303 16.2203 87.0603 16.8803L80.6603 23.2803V14.2303C81.3503 14.0003 81.8603 13.3503 81.8603 12.5703C81.8603 11.6003 81.0703 10.8203 80.1103 10.8203C79.1503 10.8203 78.3603 11.6003 78.3603 12.5703C78.3603 13.3403 78.8603 13.9903 79.5603 14.2303V23.2803L73.1603 16.8803C73.4903 16.2203 73.3803 15.4103 72.8403 14.8603C72.1603 14.1803 71.0503 14.1803 70.3603 14.8603C69.6803 15.5403 69.6803 16.6503 70.3603 17.3403C70.9103 17.8903 71.7203 17.9903 72.3803 17.6603L78.7803 24.0603H69.7303C69.5003 23.3703 68.8503 22.8603 68.0703 22.8603C67.1003 22.8603 66.3203 23.6403 66.3203 24.6103C66.3203 25.5803 67.1103 26.3603 68.0703 26.3603C68.8403 26.3603 69.4903 25.8603 69.7303 25.1603H78.7803L72.3803 31.5603C71.7203 31.2303 70.9103 31.3403 70.3603 31.8803C69.6803 32.5603 69.6703 33.6703 70.3603 34.3603C71.0403 35.0403 72.1503 35.0403 72.8403 34.3603C73.3903 33.8103 73.4903 33.0003 73.1603 32.3403L79.5603 25.9403V34.9903C78.8603 35.2203 78.3603 35.8703 78.3603 36.6503C78.3603 37.6203 79.1403 38.4003 80.1103 38.4003C81.0803 38.4003 81.8603 37.6203 81.8603 36.6503C81.8603 35.8803 81.3503 35.2303 80.6603 34.9903V25.9403L87.0603 32.3403C86.7303 33.0003 86.8403 33.8103 87.3803 34.3603C88.0703 35.0403 89.1803 35.0403 89.8603 34.3603C90.5403 33.6703 90.5403 32.5603 89.8603 31.8803C89.3103 31.3303 88.5003 31.2303 87.8403 31.5603L81.4403 25.1603H90.4903C90.7203 25.8503 91.3703 26.3603 92.1403 26.3603C93.1103 26.3603 93.8903 25.5803 93.8903 24.6103C93.8903 23.6403 93.1003 22.8603 92.1403 22.8603Z" fill="white"/>
<path d="M92.9297 72.4004C92.9297 75.0204 90.7997 77.1504 88.1797 77.1504C85.5597 77.1504 83.4297 75.0204 83.4297 72.4004C83.4297 69.7804 85.5597 67.6504 88.1797 67.6504C90.7997 67.6504 92.9297 69.7804 92.9297 72.4004Z" fill="white"/>
<path d="M15.0391 86.6204H29.5591" stroke="white" stroke-width="2" stroke-linecap="round" stroke-linejoin="round"/>
<path d="M22.2988 79.3604V93.8803" stroke="white" stroke-width="2" stroke-linecap="round" stroke-linejoin="round"/>
<path d="M17.1582 91.7505L27.4282 81.4805" stroke="white" stroke-width="2" stroke-linecap="round" stroke-linejoin="round"/>
<path d="M27.4299 91.7505L17.1699 81.4805" stroke="white" stroke-width="2" stroke-linecap="round" stroke-linejoin="round"/>
<path d="M9.25 8.26001H23.77" stroke="white" stroke-width="2" stroke-linecap="round" stroke-linejoin="round"/>
<path d="M16.5098 1V15.52" stroke="white" stroke-width="2" stroke-linecap="round" stroke-linejoin="round"/>
<path d="M11.3691 13.3899L21.6392 3.12988" stroke="white" stroke-width="2" stroke-linecap="round" stroke-linejoin="round"/>
<path d="M21.6392 13.3899L11.3691 3.12988" stroke="white" stroke-width="2" stroke-linecap="round" stroke-linejoin="round"/>
<path d="M112.629 111.021H127.149" stroke="white" stroke-width="2" stroke-linecap="round" stroke-linejoin="round"/>
<path d="M119.889 103.761V118.281" stroke="white" stroke-width="2" stroke-linecap="round" stroke-linejoin="round"/>
<path d="M114.748 116.151L125.018 105.891" stroke="white" stroke-width="2" stroke-linecap="round" stroke-linejoin="round"/>
<path d="M125.018 116.151L114.748 105.891" stroke="white" stroke-width="2" stroke-linecap="round" stroke-linejoin="round"/>
</g>
</svg>
